<?xml version="1.0" encoding="UTF-8" standalone="no"?>
<!-- Created with Inkscape (http://www.inkscape.org/) -->

<svg
   version="1.1"
   id="svg2"
   width="102.02556"
   height="79.78849"
   viewBox="0 0 102.02556 79.78849"
   sodipodi:docname="cargador.svg"
   inkscape:version="1.1.1 (3bf5ae0d25, 2021-09-20)"
   xmlns:inkscape="http://www.inkscape.org/namespaces/inkscape"
   xmlns:sodipodi="http://sodipodi.sourceforge.net/DTD/sodipodi-0.dtd"
   xmlns="http://www.w3.org/2000/svg"
   xmlns:svg="http://www.w3.org/2000/svg">
  <defs
     id="defs6">
    <clipPath
       clipPathUnits="userSpaceOnUse"
       id="clipPath296">
      <path
         d="m 2491.07,3626.84 h -66.91 v 81.25 h 66.91 z"
         id="path294" />
    </clipPath>
    <linearGradient
       x1="0"
       y1="0"
       x2="1"
       y2="0"
       gradientUnits="userSpaceOnUse"
       gradientTransform="matrix(74.0115,98.3368,98.3368,-74.0115,2422.57,3620.9)"
       spreadMethod="pad"
       id="linearGradient302">
      <stop
         style="stop-opacity:1;stop-color:#a2e1f6"
         offset="0"
         id="stop298" />
      <stop
         style="stop-opacity:1;stop-color:#cde995"
         offset="1"
         id="stop300" />
    </linearGradient>
    <clipPath
       clipPathUnits="userSpaceOnUse"
       id="clipPath318">
      <path
         d="m 2668.92,3626.84 h 66.9102 v 81.2461 H 2668.92 Z"
         id="path316" />
    </clipPath>
    <linearGradient
       x1="0"
       y1="0"
       x2="1"
       y2="0"
       gradientUnits="userSpaceOnUse"
       gradientTransform="matrix(74.0115,98.3368,98.3368,-74.0115,2667.33,3620.9)"
       spreadMethod="pad"
       id="linearGradient324">
      <stop
         style="stop-opacity:1;stop-color:#7dbfd3"
         offset="0"
         id="stop320" />
      <stop
         style="stop-opacity:1;stop-color:#a3bd7b"
         offset="1"
         id="stop322" />
    </linearGradient>
    <clipPath
       clipPathUnits="userSpaceOnUse"
       id="clipPath340">
      <path
         d="m 2791.78,3626.84 h 66.9102 v 81.2461 H 2791.78 Z"
         id="path338" />
    </clipPath>
    <linearGradient
       x1="0"
       y1="0"
       x2="1"
       y2="0"
       gradientUnits="userSpaceOnUse"
       gradientTransform="matrix(74.0111,98.3363,98.3363,-74.0111,2790.19,3620.9)"
       spreadMethod="pad"
       id="linearGradient346">
      <stop
         style="stop-opacity:1;stop-color:#7dbfd3"
         offset="0"
         id="stop342" />
      <stop
         style="stop-opacity:1;stop-color:#a3bd7b"
         offset="1"
         id="stop344" />
    </linearGradient>
    <clipPath
       clipPathUnits="userSpaceOnUse"
       id="clipPath1214">
      <path
         d="m 4121.34,2401.71 h -41.03 v 0 h 41.03 c 0.05,0 0.1,0 0.15,0 -0.05,0 -0.1,0 -0.15,0 m 0.21,0 c 0.03,0 0.06,0 0.1,0 -0.04,0 -0.07,0 -0.1,0 m 0.17,0 c 0.03,0 0.06,0 0.08,0 -0.02,0 -0.05,0 -0.08,0 m 0.16,0 c 0.02,0 0.05,0 0.08,0 -0.03,0 -0.06,0 -0.08,0 m 0.16,0.01 c 0.03,0 0.04,0 0.07,0 -0.02,0 -0.05,0 -0.07,0 m 0.16,0 c 0.02,0 0.04,0 0.06,0 -0.02,0 -0.04,0 -0.06,0 m 0.17,0 c 0.01,0 0.01,0 0.02,0 -0.01,0 -0.02,0 -0.02,0 m 0.15,0 c 0,0 0,0 0.01,0 h -0.01 m -1.18,13.7 c 0.04,0 0.08,0 0.12,0 -0.04,0 -0.08,0 -0.12,0 m 0.14,0 c 10.45,0.04 19.82,4.49 26.51,11.52 0.02,-0.05 0.04,-0.09 0.06,-0.13 -6.71,-6.98 -16.14,-11.35 -26.57,-11.39"
         id="path1212" />
    </clipPath>
  </defs>
  <sodipodi:namedview
     id="namedview4"
     pagecolor="#ffffff"
     bordercolor="#000000"
     borderopacity="0.25"
     inkscape:showpageshadow="2"
     inkscape:pageopacity="0.0"
     inkscape:pagecheckerboard="0"
     inkscape:deskcolor="#d1d1d1"
     inkscape:pageshadow="2"
     showgrid="false"
     inkscape:zoom="1.6713765"
     inkscape:cx="-171.4156"
     inkscape:cy="-178.59531"
     inkscape:window-width="2560"
     inkscape:window-height="1369"
     inkscape:window-x="-8"
     inkscape:window-y="-8"
     inkscape:window-maximized="1"
     inkscape:current-layer="g8" />
  <g
     id="g8"
     inkscape:groupmode="layer"
     inkscape:label="ink_ext_XXXXXX"
     transform="matrix(1.3333333,0,0,-1.3333333,-449.28666,90.589598)">
    <path
       d="m 374.516,19.6551 h -10.219 c -3.52,0 -6.382,2.864 -6.382,6.3828 V 36.743 c 0,2.8738 -2.337,5.2121 -5.211,5.2121 h -4.883 v 1.1711 h 4.883 c 3.52,0 6.382,-2.8633 6.382,-6.3832 V 26.0379 c 0,-2.8731 2.338,-5.2109 5.211,-5.2109 h 10.219 v -1.1719"
       style="fill:#fbc807;fill-opacity:1;fill-rule:nonzero;stroke:none;stroke-width:0.1"
       id="path1606" />
    <path
       d="m 350.846,46.841 c -1.581,-1.668 -3.272,-3.5832 -5.758,-3.5351 -3.519,0.0671 -6.068,3.7953 -7.431,7.0461 V 8.86016 h 15.668 V 49.4801 c -0.766,-0.8949 -1.624,-1.7383 -2.479,-2.6391"
       style="fill:#9d9d9c;fill-opacity:1;fill-rule:nonzero;stroke:none;stroke-width:0.1"
       id="path1608" />
    <path
       d="M 338.157,67.9422 V 48.1961 l 7.334,-5.3652 7.333,5.3652 v 19.7461 h -14.667"
       style="fill:#9d9d9c;fill-opacity:1;fill-rule:nonzero;stroke:none;stroke-width:0.1"
       id="path1610" />
    <path
       d="m 350.846,46.841 c -1.576,-1.6629 -3.262,-3.5711 -5.737,-3.5351 V 8.86016 h 6.755 V 47.8988 c -0.336,-0.3488 -0.676,-0.6976 -1.018,-1.0578"
       style="fill:#dfdfdd;fill-opacity:1;fill-rule:nonzero;stroke:none;stroke-width:0.1"
       id="path1612" />
    <path
       d="m 350.787,67.9422 h -5.678 v -24.832 l 0.382,-0.2793 5.296,3.8742 v 21.2371"
       style="fill:#dfdfdd;fill-opacity:1;fill-rule:nonzero;stroke:none;stroke-width:0.1"
       id="path1614" />
    <path
       d="m 346.703,43.5371 c -0.293,-0.0621 -0.596,-0.091 -0.901,-0.1031 -0.152,-0.0871 -0.31,-0.136 -0.478,-0.1281 l -0.24,0.0461 c -0.66,-0.027 -1.218,0.1558 -1.684,0.4832 -0.407,0.1578 -0.793,0.3597 -1.15,0.6007 V 8.86016 h 6.481 V 44.6879 c -0.536,-0.5777 -1.18,-0.9699 -2.028,-1.1508"
       style="fill:#838585;fill-opacity:1;fill-rule:nonzero;stroke:none;stroke-width:0.1"
       id="path1616" />
    <path
       d="M 343.161,67.9422 V 44.6879 l 2.33,-1.857 2.329,1.857 v 23.2543 h -4.659"
       style="fill:#838585;fill-opacity:1;fill-rule:nonzero;stroke:none;stroke-width:0.1"
       id="path1618" />
    <path
       d="m 352.824,65.152 v 2.7902 H 338.157 V 65.152 h 14.667"
       style="fill:#6ccdbb;fill-opacity:1;fill-rule:nonzero;stroke:none;stroke-width:0.1"
       id="path1620" />
    <path
       d="m 353.375,50.3461 c 0,0.357 -0.476,0.4769 -0.643,0.1609 -1.499,-2.8359 -4.18,-5.5058 -7.241,-5.5058 -3.059,0 -5.741,2.6668 -7.24,5.5008 -0.167,0.3152 -0.644,0.196 -0.644,-0.161 v -1.873 c 1.267,-3.2871 4.318,-6.9102 7.884,-6.9102 3.566,0 6.619,3.6262 7.884,6.9141 v 1.8742"
       style="fill:#2e272d;fill-opacity:1;fill-rule:nonzero;stroke:none;stroke-width:0.1"
       id="path1622" />
    <path
       d="m 347.351,55.55 c 0,-1.0281 -0.833,-1.8609 -1.86,-1.8609 -1.028,0 -1.861,0.8328 -1.861,1.8609 0,1.027 0.833,1.8602 1.861,1.8602 1.027,0 1.86,-0.8332 1.86,-1.8602"
       style="fill:#6ccdbb;fill-opacity:1;fill-rule:nonzero;stroke:none;stroke-width:0.1"
       id="path1624" />
    <path
       d="m 346.576,55.55 c 0,-0.6 -0.486,-1.0852 -1.085,-1.0852 -0.6,0 -1.085,0.4852 -1.085,1.0852 0,0.5988 0.485,1.0852 1.085,1.0852 0.599,0 1.085,-0.4864 1.085,-1.0852"
       style="fill:#2e272d;fill-opacity:1;fill-rule:nonzero;stroke:none;stroke-width:0.1"
       id="path1626" />
    <path
       d="m 346.112,11.8461 c 0,-0.3441 -0.278,-0.6223 -0.621,-0.6223 -0.344,0 -0.622,0.2782 -0.622,0.6223 0,0.343 0.278,0.6219 0.622,0.6219 0.343,0 0.621,-0.2789 0.621,-0.6219"
       style="fill:#2e272d;fill-opacity:1;fill-rule:nonzero;stroke:none;stroke-width:0.1"
       id="path1628" />
    <path
       d="m 354.018,8.10117 h -17.053 v 1.51797 h 17.053 V 8.10117"
       style="fill:#2e272d;fill-opacity:1;fill-rule:nonzero;stroke:none;stroke-width:0.1"
       id="path1630" />
    <path
       d="m 368.062,35.8109 c 0.32,-0.1187 0.134,-2.8238 0.134,-2.8238 l 2.292,-1.0891 -0.405,-1.0921 c -1.924,0.7269 -5.786,2.2191 -6.175,2.6363 -0.521,0.5566 -1.103,1.6828 -0.999,1.9617 0.2,0.5402 4.833,0.525 5.153,0.407"
       style="fill:#2e272d;fill-opacity:1;fill-rule:nonzero;stroke:none;stroke-width:0.1"
       id="path1632" />
    <path
       d="m 408.319,35.8109 c -0.32,-0.1187 -0.134,-2.8238 -0.134,-2.8238 l -2.292,-1.0891 0.405,-1.0921 c 1.924,0.7269 5.786,2.2191 6.175,2.6363 0.521,0.5566 1.103,1.6828 0.999,1.9617 -0.2,0.5402 -4.833,0.525 -5.153,0.407"
       style="fill:#2e272d;fill-opacity:1;fill-rule:nonzero;stroke:none;stroke-width:0.1"
       id="path1634" />
    <path
       d="m 371.302,8.10195 -3.715,0.11289 c -1.209,0.04297 -2.328,1.62227 -2.274,3.15316 l 0.181,5.1191 7.762,-0.5711 0.322,-3.3988 c 0.023,-0.3543 -0.005,-2.1102 -0.092,-2.4543 -0.297,-1.16407 -1.176,-1.99688 -2.184,-1.96095"
       style="fill:#2e272d;fill-opacity:1;fill-rule:nonzero;stroke:none;stroke-width:0.1"
       id="path1636" />
    <path
       d="m 405.079,8.10195 3.715,0.11289 c 1.209,0.04297 2.328,1.62227 2.274,3.15316 l -0.181,5.1191 -7.762,-0.5711 -0.322,-3.3988 c -0.023,-0.3543 0.005,-2.1102 0.093,-2.4543 0.296,-1.16407 1.175,-1.99688 2.183,-1.96095"
       style="fill:#2e272d;fill-opacity:1;fill-rule:nonzero;stroke:none;stroke-width:0.1"
       id="path1638" />
    <path
       d="m 408.661,31.768 c -0.577,0.405 -1.07,0.8968 -1.467,1.4488 l -4.551,6.3211 c -1.213,1.6859 -3.299,2.7039 -5.537,2.7039 h -8.916 -8.915 c -2.238,0 -4.324,-1.018 -5.537,-2.7039 l -4.551,-6.3211 c -0.397,-0.552 -0.89,-1.0438 -1.467,-1.4488 -1.444,-1.0129 -4.331,-3.3801 -4.331,-6.1078 0,-3.6383 0.392,-12.2832 1.701,-12.7313 2.374,-0.8141 15.095,-1.3348 20.58,-1.5238 1.681,-0.059 3.36,-0.059 5.041,0 5.485,0.189 18.206,0.7097 20.58,1.5238 1.309,0.4481 1.701,9.093 1.701,12.7313 0,2.7277 -2.887,5.0949 -4.331,6.1078"
       style="fill:#a5a5a4;fill-opacity:1;fill-rule:nonzero;stroke:none;stroke-width:0.1"
       id="path1640" />
    <path
       d="m 411.143,29.6121 c -0.191,-3.7531 -0.624,-5.8051 -1.458,-6.1121 -2.209,-0.8129 -14.045,-3.4301 -19.149,-3.6199 -1.564,-0.0582 -3.127,-0.0582 -4.691,0 -5.104,0.1898 -16.94,2.807 -19.149,3.6199 -0.834,0.307 -1.268,2.359 -1.458,6.1121 -1.004,-1.107 -1.849,-2.4769 -1.849,-3.9519 0,-3.6383 0.392,-12.2832 1.701,-12.7313 2.374,-0.8141 15.095,-1.3348 20.58,-1.525 1.681,-0.0578 3.36,-0.0578 5.041,0 5.485,0.1902 18.206,0.7109 20.58,1.525 1.309,0.4481 1.701,9.093 1.701,12.7313 0,1.475 -0.845,2.8449 -1.849,3.9519"
       style="fill:#868787;fill-opacity:1;fill-rule:nonzero;stroke:none;stroke-width:0.1"
       id="path1642" />
    <path
       d="m 406.787,26.8211 c -0.139,0.182 -0.287,0.3578 -0.439,0.5258 -0.012,-0.2199 -0.024,-0.4297 -0.037,-0.6348 0.167,0.0367 0.326,0.0738 0.476,0.109"
       style="fill:#58595b;fill-opacity:1;fill-rule:nonzero;stroke:none;stroke-width:0.1"
       id="path1644" />
    <path
       d="m 390.516,17.573 c -1.551,-0.046 -3.1,-0.046 -4.65,0 -4.171,0.1239 -12.164,0.425 -16.322,0.8879 -1.321,-1.7879 -0.163,-4.1281 0.372,-4.3121 1.878,-0.6429 11.941,-1.0547 16.281,-1.2047 1.329,-0.0461 2.658,-0.0461 3.987,0 4.34,0.15 14.403,0.5618 16.281,1.2047 0.535,0.184 1.675,2.3383 0.423,4.3121 -4.158,-0.4629 -12.202,-0.764 -16.372,-0.8879"
       style="fill:#58595b;fill-opacity:1;fill-rule:nonzero;stroke:none;stroke-width:0.1"
       id="path1646" />
    <path
       d="m 390.497,16.2941 c -1.538,0.018 -3.075,0.018 -4.613,0 -4.138,-0.0461 -12.772,1.0438 -16.898,0.8707 0.203,0.8243 0.542,1.5411 1.073,1.6102 1.863,0.2398 11.848,-0.8082 16.153,-0.752 1.319,0.0168 2.638,0.0168 3.957,0 4.305,-0.0562 14.29,0.9918 16.153,0.752 0.531,-0.0691 0.87,-0.7859 1.073,-1.6102 -4.126,0.1731 -12.76,-0.9168 -16.898,-0.8707"
       style="fill:#bebdbb;fill-opacity:1;fill-rule:nonzero;stroke:none;stroke-width:0.1"
       id="path1648" />
    <path
       d="m 370.07,26.7121 c -0.013,0.2051 -0.025,0.4149 -0.037,0.6348 -0.152,-0.168 -0.3,-0.3438 -0.439,-0.5258 0.15,-0.0352 0.309,-0.0723 0.476,-0.109"
       style="fill:#58595b;fill-opacity:1;fill-rule:nonzero;stroke:none;stroke-width:0.1"
       id="path1650" />
    <path
       d="m 399.51,39.1828 c -0.922,1.1063 -2.288,1.7461 -3.729,1.7461 h -7.591 -7.59 c -1.441,0 -2.807,-0.6398 -3.729,-1.7461 l -4.936,-5.9226 c -0.073,-0.0883 -0.018,-0.2223 0.097,-0.2313 1.542,-0.1187 9.373,-0.6949 16.158,-0.6949 6.786,0 14.617,0.5762 16.159,0.6949 0.115,0.009 0.17,0.143 0.097,0.2313 l -4.936,5.9226"
       style="fill:#2e272d;fill-opacity:1;fill-rule:nonzero;stroke:none;stroke-width:0.1"
       id="path1652" />
    <path
       d="m 374.516,21.593 c 0,0 -2.53,8.3539 -5.068,8.473 -1.74,0.082 -3.012,-1.0422 -3.641,-1.757 -0.298,-0.3399 -0.445,-0.7828 -0.421,-1.234 0.061,-1.1441 0.315,-3.4059 1.36,-3.8211 1.41,-0.5598 7.77,-1.6609 7.77,-1.6609"
       style="fill:#bfc1c1;fill-opacity:1;fill-rule:nonzero;stroke:none;stroke-width:0.1"
       id="path1654" />
    <path
       d="m 373.65,22.175 c 0,0 -2.116,7.207 -4.239,7.3102 -1.456,0.0699 -2.521,-0.9 -3.046,-1.5161 -0.25,-0.2929 -0.373,-0.675 -0.353,-1.0652 0.052,-0.9867 0.264,-2.9391 1.138,-3.2957 1.18,-0.4832 6.5,-1.4332 6.5,-1.4332"
       style="fill:#d8d9d9;fill-opacity:1;fill-rule:nonzero;stroke:none;stroke-width:0.1"
       id="path1656" />
    <path
       d="m 370.372,25.8309 c 0,-0.8731 -0.708,-1.5809 -1.582,-1.5809 -0.873,0 -1.581,0.7078 -1.581,1.5809 0,0.8742 0.708,1.582 1.581,1.582 0.874,0 1.582,-0.7078 1.582,-1.582"
       style="fill:#a9a9a7;fill-opacity:1;fill-rule:nonzero;stroke:none;stroke-width:0.1"
       id="path1658" />
    <path
       d="m 401.808,21.593 c 0,0 2.529,8.3539 5.067,8.473 1.741,0.082 3.013,-1.0422 3.642,-1.757 0.298,-0.3399 0.445,-0.7828 0.421,-1.234 -0.062,-1.1441 -0.315,-3.4059 -1.36,-3.8211 -1.41,-0.5598 -7.77,-1.6609 -7.77,-1.6609"
       style="fill:#bfc1c1;fill-opacity:1;fill-rule:nonzero;stroke:none;stroke-width:0.1"
       id="path1660" />
    <path
       d="m 402.674,22.175 c 0,0 2.116,7.207 4.239,7.3102 1.456,0.0699 2.521,-0.9 3.046,-1.5161 0.249,-0.2929 0.373,-0.675 0.353,-1.0652 -0.052,-0.9867 -0.264,-2.9391 -1.138,-3.2957 -1.18,-0.4832 -6.5,-1.4332 -6.5,-1.4332"
       style="fill:#d8d9d9;fill-opacity:1;fill-rule:nonzero;stroke:none;stroke-width:0.1"
       id="path1662" />
    <path
       d="m 405.952,25.8309 c 0,-0.8731 0.708,-1.5809 1.581,-1.5809 0.874,0 1.582,0.7078 1.582,1.5809 0,0.8742 -0.708,1.582 -1.582,1.582 -0.873,0 -1.581,-0.7078 -1.581,-1.582"
       style="fill:#a9a9a7;fill-opacity:1;fill-rule:nonzero;stroke:none;stroke-width:0.1"
       id="path1664" />
    <path
       d="m 411.593,18.5852 c 0,-0.9153 -0.742,-1.6563 -1.657,-1.6563 -0.914,0 -1.656,0.741 -1.656,1.6563 0,0.9148 0.742,1.6558 1.656,1.6558 0.915,0 1.657,-0.741 1.657,-1.6558"
       style="fill:#535456;fill-opacity:1;fill-rule:nonzero;stroke:none;stroke-width:0.1"
       id="path1666" />
    <path
       d="m 411.105,18.5852 c 0,-0.6461 -0.523,-1.1692 -1.169,-1.1692 -0.645,0 -1.169,0.5231 -1.169,1.1692 0,0.6457 0.524,1.1687 1.169,1.1687 0.646,0 1.169,-0.523 1.169,-1.1687"
       style="fill:#bebdbb;fill-opacity:1;fill-rule:nonzero;stroke:none;stroke-width:0.1"
       id="path1668" />
    <path
       d="m 368.03,18.5852 c 0,-0.9153 -0.742,-1.6563 -1.656,-1.6563 -0.915,0 -1.657,0.741 -1.657,1.6563 0,0.9148 0.742,1.6558 1.657,1.6558 0.914,0 1.656,-0.741 1.656,-1.6558"
       style="fill:#535456;fill-opacity:1;fill-rule:nonzero;stroke:none;stroke-width:0.1"
       id="path1670" />
    <path
       d="m 367.543,18.5852 c 0,-0.6461 -0.524,-1.1692 -1.169,-1.1692 -0.646,0 -1.17,0.5231 -1.17,1.1692 0,0.6457 0.524,1.1687 1.17,1.1687 0.645,0 1.169,-0.523 1.169,-1.1687"
       style="fill:#bebdbb;fill-opacity:1;fill-rule:nonzero;stroke:none;stroke-width:0.1"
       id="path1672" />
    <path
       d="m 410.676,16.3719 -2.384,-0.3168 c -0.202,-0.027 -0.357,-0.191 -0.373,-0.3942 l -0.077,-1.0089 c -0.023,-0.2961 0.252,-0.525 0.539,-0.45 0.782,0.2058 2.138,0.6679 2.706,1.4949 0.212,0.309 -0.039,0.7242 -0.411,0.675"
       style="fill:#bebdbb;fill-opacity:1;fill-rule:nonzero;stroke:none;stroke-width:0.1"
       id="path1674" />
    <path
       d="m 365.693,16.3719 2.384,-0.3168 c 0.202,-0.027 0.357,-0.191 0.373,-0.3942 l 0.077,-1.0089 c 0.023,-0.2961 -0.252,-0.525 -0.539,-0.45 -0.782,0.2058 -2.138,0.6679 -2.706,1.4949 -0.212,0.309 0.039,0.7242 0.411,0.675"
       style="fill:#bebdbb;fill-opacity:1;fill-rule:nonzero;stroke:none;stroke-width:0.1"
       id="path1676" />
    <path
       d="m 388.19,30.0699 c 0,0 -13.431,0.4141 -15.669,0.861 0,0 2.686,-7.6989 3.581,-8.2368 0.896,-0.5371 7.255,-1.7902 12.088,-1.7902 4.834,0 11.193,1.2531 12.089,1.7902 0.895,0.5379 3.581,8.2368 3.581,8.2368 -2.238,-0.4469 -15.67,-0.861 -15.67,-0.861"
       style="fill:#bebdbb;fill-opacity:1;fill-rule:nonzero;stroke:none;stroke-width:0.1"
       id="path1678" />
    <path
       d="m 388.935,22.3371 c 0,-0.4109 -0.333,-0.7441 -0.745,-0.7441 -0.411,0 -0.744,0.3332 -0.744,0.7441 0,0.4109 0.333,0.7438 0.744,0.7438 0.412,0 0.745,-0.3329 0.745,-0.7438"
       style="fill:#a0a09f;fill-opacity:1;fill-rule:nonzero;stroke:none;stroke-width:0.1"
       id="path1680" />
  </g>
</svg>
