<?xml version="1.0" encoding="UTF-8" standalone="no"?>
<!-- Generator: Adobe Illustrator 27.5.0, SVG Export Plug-In . SVG Version: 6.00 Build 0)  -->

<svg
   version="1.1"
   x="0px"
   y="0px"
   viewBox="0 0 173.79237 101.43"
   xml:space="preserve"
   id="svg12738"
   sodipodi:docname="cargador1.svg"
   inkscape:version="1.1.1 (3bf5ae0d25, 2021-09-20)"
   width="173.79237"
   height="101.43"
   xmlns:inkscape="http://www.inkscape.org/namespaces/inkscape"
   xmlns:sodipodi="http://sodipodi.sourceforge.net/DTD/sodipodi-0.dtd"
   xmlns="http://www.w3.org/2000/svg"
   xmlns:svg="http://www.w3.org/2000/svg"><defs
   id="defs12742">
	

	
	
	
	
	
	
	
	
	
</defs><sodipodi:namedview
   id="namedview12740"
   pagecolor="#ffffff"
   bordercolor="#666666"
   borderopacity="1.0"
   inkscape:pageshadow="2"
   inkscape:pageopacity="0.0"
   inkscape:pagecheckerboard="0"
   showgrid="false"
   inkscape:zoom="1.44"
   inkscape:cx="-184.375"
   inkscape:cy="-69.791667"
   inkscape:window-width="1920"
   inkscape:window-height="1009"
   inkscape:window-x="2552"
   inkscape:window-y="532"
   inkscape:window-maximized="1"
   inkscape:current-layer="svg12738" />

<g
   id="g4611"
   transform="translate(-584.26099,-270.197)">
		<g
   id="g4521">
			<path
   style="fill:#484848"
   d="m 622.25,350.933 c 0,0 -10e-4,0 -0.017,-0.015 -0.097,-0.091 -0.344,-0.327 -0.623,-0.62 -0.005,-0.005 -0.023,-0.025 -0.026,-0.028 0.002,-0.002 0.135,-0.13 0.135,-0.13 0,0 0.09,0.047 0.206,0.133 0.167,0.116 0.304,0.273 0.368,0.367 0.016,0.013 0.088,0.163 0.088,0.163 0,0 -0.129,0.128 -0.131,0.13 z"
   id="path4519" />
		</g>
		<g
   id="g4535">
			<g
   id="g4531">
				<path
   style="fill:#455056"
   d="m 611.349,338.966 h -18.24 v -59.649 c 0,-5.037 4.083,-9.12 9.12,-9.12 v 0 c 5.037,0 9.12,4.083 9.12,9.12 z"
   id="path4523" />
				<path
   style="fill:#85c8ff"
   d="m 602.229,293.254 v 0 c -3.896,0 -7.055,-3.159 -7.055,-7.055 v -6.035 c 0,-3.896 3.159,-7.055 7.055,-7.055 v 0 c 3.896,0 7.055,3.159 7.055,7.055 v 6.035 c 0,3.896 -3.158,7.055 -7.055,7.055 z"
   id="path4525" />
				<g
   id="g4529">
					<polygon
   style="fill:#fff140"
   points="599.386,311.963 607.664,311.963 600.792,326.202 605.322,313.665 597.2,313.665 605.451,298.785 "
   id="polygon4527" />
				</g>
			</g>
			<rect
   x="584.26099"
   y="338.966"
   style="fill:#514a43"
   width="36.793999"
   height="1.855"
   id="rect4533" />
		</g>
		<g
   id="g4601">
			<g
   id="g4571">
				<path
   style="fill:#d2e200"
   d="m 746.534,330.888 c -0.256,3.172 -2.521,5.813 -5.604,6.542 -21.651,5.122 -88.996,3.093 -104.827,2.532 -2.133,-0.075 -3.916,-1.662 -4.231,-3.781 -0.004,-0.023 -0.007,-0.047 -0.011,-0.068 -0.459,-3.147 -0.498,-7.865 1.931,-12.484 6.946,-11.042 18.558,-22.707 27.545,-30.923 8.959,-8.19 20.501,-12.978 32.607,-13.48 8.699,-0.36 23.788,0.034 37.159,2.46 2.725,0.495 5.378,1.074 7.892,1.748 3.363,4.764 1.725,9.181 1.519,12.993 -0.056,0.988 -0.013,1.935 0.237,2.836 1.827,6.592 1.235,10.77 1.235,10.77 0,0 5.993,2.895 4.548,20.855 z"
   id="path4537" />
				<path
   style="fill:#d2e200"
   d="m 741.922,337.169 c -20.761,5.366 -89.581,3.292 -105.609,2.725 -2.133,-0.075 -3.915,-1.663 -4.232,-3.782 -0.003,-0.023 -0.007,-0.045 -0.01,-0.068 l 69.408,-0.291 c 5.977,-0.257 9.82,-3.698 13.376,-8.527 l 11.287,-21.867 c 2.506,-3.401 6.363,-5.536 10.564,-5.849 l 4.253,-0.315 c 1.828,6.593 1.235,10.77 1.235,10.77 0,0 6.156,2.975 4.487,21.583 -0.241,2.698 -2.146,4.946 -4.759,5.621 z"
   id="path4539" />
				<path
   style="fill:#ea6927"
   d="m 737.179,311.896 c -0.855,-0.77 -0.791,-2.137 0.118,-2.842 1.736,-1.347 4.58,-3.139 5.881,-1.632 1.943,2.251 0.747,6.453 -2.092,5.702 -2.072,-0.547 -2.871,-0.295 -3.907,-1.228 z"
   id="path4541" />
				<g
   id="g4549">
					<ellipse
   style="fill:#455056"
   cx="648.73499"
   cy="338.03299"
   rx="13.3"
   ry="13.356"
   id="ellipse4543" />
					<ellipse
   style="fill:#535c60"
   cx="648.73499"
   cy="338.03299"
   rx="10.761"
   ry="10.806"
   id="ellipse4545" />
					<ellipse
   style="fill:#a3b700"
   cx="648.73499"
   cy="338.03299"
   rx="8.743"
   ry="8.7799997"
   id="ellipse4547" />
				</g>
				<g
   id="g4557">
					<ellipse
   style="fill:#455056"
   cx="731.22302"
   cy="338.03299"
   rx="13.3"
   ry="13.356"
   id="ellipse4551" />
					<ellipse
   style="fill:#535c60"
   cx="731.22302"
   cy="338.03299"
   rx="10.761"
   ry="10.806"
   id="ellipse4553" />
					<ellipse
   style="fill:#a3b700"
   cx="731.22302"
   cy="338.03299"
   rx="8.743"
   ry="8.7799997"
   id="ellipse4555" />
				</g>
				<path
   style="fill:#a3b700"
   d="m 671.475,328.977 16.686,-3.259 c 8.843,-1.727 16.748,-6.201 22.356,-12.651 l 2.723,-3.132 c 4.609,-5.302 7.103,-14.559 5.71,-21.197 l -0.646,2.397 c -1.107,-5.275 -6.337,-8.992 -12.236,-8.696 l -12.721,0.637 c -7.259,0.364 -14.218,2.751 -19.93,6.838 l -5.778,4.133 c -5.753,4.116 -10.818,8.26 -10.178,15.424 0.318,3.564 1.255,9.153 2.192,12.711 1.267,4.809 6.503,7.834 11.822,6.795 z"
   id="path4559" />
				<path
   style="fill:#85c8ff"
   d="m 707.902,280.876 c 0,0 -31.611,-1.753 -47.584,19.106 -15.973,20.859 60.499,0.986 58.398,-10.358 -1.62,-8.748 -10.814,-8.748 -10.814,-8.748 z"
   id="path4561" />
				<g
   id="g4565">
					<path
   style="fill:#ffffff"
   d="m 670.489,329.771 c -2.974,0 -5.448,-0.778 -7.38,-2.326 -4.926,-3.946 -5.431,-11.866 -5.8,-17.649 -0.033,-0.516 -0.064,-1.012 -0.098,-1.481 -0.361,-5.026 4.925,-11.128 9.423,-15.361 2.846,-2.68 6.103,-4.83 9.683,-6.39 11.449,-4.99 27.877,-8.533 36.893,-4.519 2.965,1.32 4.929,3.372 5.839,6.098 0.694,2.071 0.773,4.551 0.235,7.371 0,0 0,0 0,0 -0.082,0.431 -0.171,0.846 -0.262,1.236 -2.191,9.457 -8.524,17.349 -18.822,23.455 -10.615,6.294 -22.114,8.604 -26.565,9.306 -1.104,0.174 -2.153,0.26 -3.146,0.26 z m 32.829,-48.934 c -8.527,0 -18.855,2.763 -26.787,6.22 -3.523,1.536 -6.729,3.651 -9.529,6.289 -3.613,3.4 -9.619,9.862 -9.255,14.931 0.034,0.471 0.065,0.968 0.099,1.486 0.363,5.683 0.859,13.466 5.6,17.264 2.454,1.966 5.853,2.623 10.104,1.954 17.932,-2.825 40.462,-12.993 44.947,-32.352 0.09,-0.383 0.177,-0.791 0.258,-1.214 0.52,-2.728 0.447,-5.117 -0.217,-7.1 -0.86,-2.578 -2.726,-4.521 -5.547,-5.777 -2.668,-1.19 -6.004,-1.701 -9.673,-1.701 z m 15.701,14.627 h 0.002 z"
   id="path4563" />
				</g>
				<g
   id="g4569">
					<path
   style="fill:#514a43"
   d="m 686.609,371.627 c -12.141,0 -24.777,-1.201 -37.176,-3.589 -15.037,-2.896 -28.592,-9.266 -39.199,-18.421 -9.652,-8.331 -16.481,-18.727 -19.229,-29.274 -3.628,-13.925 0.103,-26.808 10.238,-35.345 0.151,-0.128 0.378,-0.108 0.505,0.043 0.128,0.151 0.108,0.378 -0.043,0.505 -9.915,8.352 -13.562,20.969 -10.006,34.616 4.919,18.879 24.721,40.787 57.87,47.172 22.097,4.256 44.953,4.73 64.36,1.336 18.208,-3.185 32.281,-9.66 38.611,-17.764 4.325,-5.537 5.733,-10.73 4.184,-15.432 -3.411,-10.355 -20.077,-15.101 -20.245,-15.148 -0.191,-0.053 -0.302,-0.251 -0.249,-0.442 0.053,-0.191 0.251,-0.302 0.442,-0.249 0.043,0.012 4.337,1.221 9.002,3.724 4.331,2.324 9.882,6.273 11.732,11.891 1.628,4.944 0.182,10.36 -4.3,16.098 -3.246,4.155 -8.328,7.842 -15.105,10.957 -6.717,3.088 -14.774,5.467 -23.948,7.072 -8.595,1.501 -17.866,2.249 -27.444,2.25 z"
   id="path4567" />
				</g>
			</g>
			<g
   id="g4599">
				<path
   style="fill:#a3b700"
   d="m 645.344,310.27 c 1.098,0.809 -0.129,4.362 -2.74,7.935 -2.611,3.573 -5.618,5.814 -6.716,5.005 -1.098,-0.809 0.129,-4.361 2.74,-7.935 2.611,-3.574 5.618,-5.814 6.716,-5.005 z"
   id="path4573" />
				<path
   style="fill:#fff140"
   d="m 644.926,309.834 c 1.064,0.853 -0.149,4.158 -2.711,7.381 -2.562,3.224 -5.501,5.145 -6.566,4.292 -1.064,-0.853 0.15,-4.158 2.711,-7.381 2.562,-3.223 5.502,-5.145 6.566,-4.292 z"
   id="path4575" />
				<path
   style="fill:#514a43"
   d="m 739.405,319.979 c 0,1.563 -1.267,2.829 -2.83,2.829 -1.563,0 -2.83,-1.267 -2.83,-2.829 0,-1.563 1.267,-2.83 2.83,-2.83 1.563,10e-4 2.83,1.268 2.83,2.83 z"
   id="path4577" />
				<path
   style="fill:#a3b700"
   d="m 740.513,296.425 c -2.738,0.561 -5.497,0.497 -6.768,-1.45 -2.962,-4.538 -2.643,-13.29 -2.643,-13.29 2.725,0.495 5.378,1.074 7.892,1.748 3.364,4.763 1.726,9.181 1.519,12.992 z"
   id="path4579" />
				<g
   id="g4585">
					<path
   style="fill:#8e88ff"
   d="m 653.68,321.982 c -0.762,0 -1.382,-0.62 -1.382,-1.381 0,-0.762 0.62,-1.382 1.382,-1.382 0.762,0 1.381,0.62 1.381,1.382 0,0.761 -0.619,1.381 -1.381,1.381 z"
   id="path4581" />
					<path
   style="fill:#a3b700"
   d="m 653.68,319.521 c 0.595,0 1.079,0.484 1.079,1.079 0,0.595 -0.484,1.079 -1.079,1.079 -0.595,0 -1.079,-0.484 -1.079,-1.079 0,-0.595 0.484,-1.079 1.079,-1.079 z m 0,-0.604 c -0.93,0 -1.684,0.754 -1.684,1.684 0,0.93 0.754,1.684 1.684,1.684 0.93,0 1.684,-0.754 1.684,-1.684 0,-0.93 -0.754,-1.684 -1.684,-1.684 z"
   id="path4583" />
				</g>
				<g
   id="g4589">
					<path
   style="fill:#a3b700"
   d="m 714.855,337.265 h -50.43 c -0.149,0 -0.269,-0.12 -0.269,-0.269 0,-0.148 0.12,-0.269 0.269,-0.269 h 50.43 c 0.148,0 0.269,0.12 0.269,0.269 0,0.149 -0.12,0.269 -0.269,0.269 z"
   id="path4587" />
				</g>
				<g
   id="g4593">
					<path
   style="fill:#ffffff"
   d="m 668.24,307.1 c -4.631,0 -7.138,-0.815 -8.476,-1.595 -1.507,-0.878 -1.753,-1.808 -1.763,-1.848 -0.036,-0.144 0.052,-0.29 0.196,-0.326 0.142,-0.036 0.288,0.051 0.325,0.193 0.004,0.015 0.237,0.794 1.58,1.554 2.838,1.607 11.029,3.346 33.989,-3.068 1.669,-0.548 3.262,-1.06 4.803,-1.556 11.598,-3.731 18.598,-5.982 19.557,-10.883 0.028,-0.146 0.169,-0.241 0.316,-0.212 0.146,0.029 0.241,0.17 0.212,0.316 -1.02,5.212 -8.134,7.501 -19.92,11.292 -1.54,0.496 -3.133,1.008 -4.812,1.559 -12.479,3.486 -20.659,4.574 -26.007,4.574 z"
   id="path4591" />
				</g>
				<path
   style="fill:#2e8ccc"
   d="m 719.019,295.464 c -0.079,0.412 -0.165,0.821 -0.26,1.224 -3.2,0.454 -5.742,-0.142 -6.314,-1.701 -0.737,-2.008 2.051,-4.909 6.349,-6.759 0.657,1.965 0.773,4.359 0.225,7.236 z"
   id="path4595" />
				<path
   style="fill:#ffffff"
   d="m 720.189,294.273 -0.262,-0.056 c -1.272,-0.272 -2.6,-0.076 -3.739,0.552 l -1.727,0.953 c -0.65,0.164 -1.31,-0.229 -1.475,-0.879 v 0 c -0.164,-0.65 0.229,-1.31 0.879,-1.475 l 3.374,-0.853 c 1.301,-0.329 2.621,0.458 2.95,1.758 z"
   id="path4597" />
			</g>
		</g>
		<circle
   style="fill:#514a43"
   cx="601.94897"
   cy="286.13101"
   r="2.4549999"
   id="circle4603" />
		<path
   style="fill:#514a43"
   d="m 605.016,280.151 h -6.104 v -2.157 c 0,-0.843 0.683,-1.526 1.526,-1.526 h 3.052 c 0.843,0 1.526,0.683 1.526,1.526 z"
   id="path4605" />
		<rect
   x="600.36798"
   y="279.62399"
   style="fill:#514a43"
   width="0.80699998"
   height="2.49"
   id="rect4607" />
		<rect
   x="602.80603"
   y="279.62399"
   style="fill:#514a43"
   width="0.84200001"
   height="2.49"
   id="rect4609" />
	</g>
</svg>
