<svg xmlns="http://www.w3.org/2000/svg" viewBox="0 0 182.01 181.18"><defs><style>.cls-1{fill:#00cfa7;}.cls-2{fill:#363546;}.cls-3{fill:#fff;}</style></defs><g id="QUIERES_UNIRTE_" data-name="QUIERES UNIRTE ?"><circle class="cls-1" cx="98.37" cy="88.23" r="82.89"/><path class="cls-2" d="M141.89,52a12.57,12.57,0,0,0-17.76,0L71.29,104.84,54,87.53a12.56,12.56,0,1,0-17.76,17.76l26.2,26.19a12.55,12.55,0,0,0,17.76,0l61.72-61.72A12.57,12.57,0,0,0,141.89,52Z"/><path class="cls-3" d="M136.82,64.69,75.09,126.41a5.37,5.37,0,0,1-7.61,0l-26.19-26.2A5.38,5.38,0,0,1,48.9,92.6l19.85,19.85a3.6,3.6,0,0,0,5.08,0L129.2,57.08a5.38,5.38,0,0,1,7.62,7.61Z"/><path class="cls-2" d="M163.19,105.49a3.58,3.58,0,0,0-4.36,2.59A70.27,70.27,0,0,1,90.67,161a3.59,3.59,0,1,0,0,7.18,77.43,77.43,0,0,0,75.11-58.33A3.58,3.58,0,0,0,163.19,105.49Z"/><path class="cls-2" d="M164.59,87.08A3.59,3.59,0,0,0,161,90.67c0,1,0,2.06-.07,3.07a3.59,3.59,0,0,0,3.43,3.74h.16a3.58,3.58,0,0,0,3.58-3.43c.05-1.12.08-2.26.08-3.38A3.59,3.59,0,0,0,164.59,87.08Z"/><path class="cls-2" d="M154.35,27A90.06,90.06,0,1,0,27,154.35,90.06,90.06,0,1,0,154.35,27ZM90.67,173.56a82.9,82.9,0,1,1,82.89-82.89A83,83,0,0,1,90.67,173.56Z"/></g></svg>