<svg id="Capa_1" data-name="Capa 1" xmlns="http://www.w3.org/2000/svg" viewBox="0 0 1920 1920"><defs><style>.cls-1{fill:#ef4d4d;}</style></defs><path class="cls-1" d="M1918.27,153.58V1876.71c-9.62,19.58-23.63,34.36-44.91,41.2H46.83c-22.4-7.55-37.71-22.2-44.92-45V153.58c14.86-32,40-42.44,74.78-41.76,86.49,1.7,173,.34,259.56.83,11.35.06,16.88-2.73,21.9-13.77,22.17-48.74,60.32-79.37,111.63-94.12,5-1.43,11.56,1.63,15-4.76h52.4c.56,1,1,2.8,1.7,2.92C599.48,13.45,641.31,48,665.8,103.73c4.21,9.56,10.36,8.65,17.64,8.65q276.45,0,552.91.3c11.35,0,15.63-4.23,19.94-13.81,18.13-40.36,48.41-68.85,88.93-86.16C1357.41,7.5,1370.41,4.18,1383,0h52.4c1.15,1.2,2.16,3.25,3.48,3.47,57.93,9.87,98.06,43.21,123,95.21,5.14,10.71,10.24,14.06,21.79,14,86.59-.53,173.2.83,259.76-.85C1878.23,111.15,1903.43,121.49,1918.27,153.58ZM960.07,561.89q-413.57,0-827.15-.39c-15.57,0-19.13,3.63-19.11,19.16q.73,603.06,0,1206.14c0,15.59,3.64,19.13,19.15,19.12q827.15-.69,1654.3,0c15.56,0,19.13-3.62,19.11-19.15q-.73-603.07,0-1206.15c0-15.59-3.64-19.15-19.15-19.12Q1373.66,562.31,960.07,561.89Zm-1-112.38q414.37,0,828.75.29c13.82,0,18.82-2.35,18.58-17.75-1-63.64-.78-127.31-.13-191,.13-12.52-2.12-16.87-15.84-16.7-65.47.81-131,.7-196.42.07-12.46-.12-18.06,2-16.64,15.84,1.33,13,.53,26.19.22,39.29-.77,33-23.82,57.15-56.38,57.37q-112.24.74-224.49,0c-31.62-.23-54.87-24.33-55.84-56-.39-12.47-1.24-25.09.21-37.41,1.84-15.69-3.49-19.23-19-19.17-162.13.64-324.26.28-486.39.56-18.44,0-42.4-7.94-53.66,3.55-8.84,9-2.34,33.08-2.66,50.45,0,.63,0,1.25,0,1.88-1.18,31.84-24.11,55.9-55.75,56.13q-112.25.84-224.49,0c-32.62-.21-55.8-24.35-56.52-57.23-.32-14.35-.77-28.75.17-43,.69-10.39-3.4-12.18-12.69-12.13-67.35.35-134.7.53-202-.14-12-.12-14.18,3.52-14.08,14.63.53,63.66,1,127.33-.23,191-.32,16.94,4.48,19.9,20.36,19.87Q546.57,449.1,959.08,449.51ZM510,224.75c15.53,0,31.08-.36,46.59.16,7.82.26,11.08-1.65,10.72-10.2-.67-16.14.38-32.36-.4-48.49-1.48-30.32-26.25-53.78-55.88-53.81s-54.55,23.54-56,53.7c-.77,16.14.26,32.35-.39,48.49-.34,8.41,2.63,10.62,10.61,10.32C480.12,224.35,495.05,224.75,510,224.75Zm903,0c14.32-1.6,40.3,8.13,49.18-3.32,9.4-12.12,2.78-36.7,3.15-55.83a13,13,0,0,0-.09-1.87c-3.52-35.22-38-58.95-71.08-48.88-35.73,10.88-52.33,46.13-39.5,101.87,4.4,19.14,31,3.49,46.83,7.94C1403.73,225.31,1406.37,224.76,1412.94,224.76Z"/><path class="cls-1" d="M1186.79,902.77q-223.53,0-447.06-.07c-43.75-.06-72.16-39.22-56-77.22,9.68-22.74,27.81-34.69,52.66-35,29.93-.37,59.86-.09,89.79-.09q402.17,0,804.33,0c45.81,0,74.41,37.09,59.19,76.39-8.9,23-29.36,35.91-57.74,35.93q-161.79.12-323.6,0Z"/><path class="cls-1" d="M1186.39,1239.9q223.53,0,447.05.07c43.73,0,72,39.23,55.82,77.3-9.7,22.76-27.91,34.58-52.73,34.91-28,.38-56.12.1-84.17.1q-402.16,0-804.34,0c-8.06,0-16.38.33-24.16-1.39-28.34-6.27-47.32-32.82-44.25-60.71,3.19-28.87,27-50.08,57.85-50.13q187-.35,374.1-.1Z"/><path class="cls-1" d="M398.61,1239.9c36.16,0,72.31-.18,108.46,0s59.81,23.43,59.94,59.46q.39,109.48,0,219c-.15,34.9-23.89,58.44-58.91,58.58q-109.4.42-218.78,0c-35-.13-58.83-23.69-59-58.52q-.45-110.42,0-220.82c.17-33.78,24-57.28,57.94-57.62C325.06,1239.61,361.84,1239.9,398.61,1239.9Zm1.7,113.36c-18.6,0-43.82-7.34-54.06,1.92-11.82,10.7-3.14,36.28-3.58,55.38-.4,17.35-6.2,40.74,2.58,50.52,10.15,11.34,33.92,3,51.75,3.4,18.59.45,43.77,6.72,54.07-2.7,11.81-10.79,3.14-36.3,3.58-55.4.39-17.35,6.19-40.75-2.58-50.52C441.91,1344.55,418.12,1353.76,400.31,1353.26Z"/><path class="cls-1" d="M1072.55,1127.52q-166.45,0-332.92-.07c-44.51-.09-73-40.81-55.13-79,10.83-23.18,30.16-33.45,55.71-33.4q167.4.27,334.79.07c110.34,0,220.69-.18,331,.1,43.28.1,71.54,40.45,54.61,78.11-10.81,24.06-30.75,34.34-57.06,34.28C1293.24,1127.38,1182.89,1127.53,1072.55,1127.52Z"/><path class="cls-1" d="M1074.35,1464.66q165.51,0,331,.07c44.43.1,72.63,40.94,54.68,79.2-10.91,23.25-30.37,33.21-55.83,33.18q-183.3-.24-366.58-.07Q888,1577,738.41,1577c-28.75,0-49.41-15.69-57-42-6.42-22.31,2.85-47,22.8-60.51,11.82-8,25-10,39.07-9.93Q908.82,1464.86,1074.35,1464.66Z"/><path class="cls-1" d="M600.72,877.12c-.51,13.14-6,26.69-17,37.75-55.92,56-111.6,112.24-168,167.78-23.5,23.15-56.35,22.33-80.22-1q-41.46-40.49-81.92-82c-23.07-23.64-23.22-58.35-1.12-80.39,22.42-22.36,55.92-22,80.23,1.19,11.72,11.18,23.5,22.37,34.24,34.47,7.31,8.25,11.65,7.06,18.89-.31q58.94-60,118.84-119.09c17.72-17.53,39-21.18,61.95-12.1C587.57,831.71,600.75,852.25,600.72,877.12Z"/></svg>