<svg xmlns="http://www.w3.org/2000/svg" viewBox="0 0 105.66 171.95"><defs><style>.cls-1{fill:#00cea6;}.cls-2{fill:#363546;}</style></defs><g id="TESTIMONIOS"><path class="cls-1" d="M84.52,9.26H91A26.91,26.91,0,0,1,64.37,32.77a13.38,13.38,0,0,0-6.67,1.78A26.91,26.91,0,0,1,84.52,9.26Z"/><path class="cls-1" d="M44.22,32.77A26.91,26.91,0,0,1,17.56,9.26h6.51A26.89,26.89,0,0,1,50.89,34.55a13.32,13.32,0,0,0-6.67-1.78Z"/><path class="cls-1" d="M47.39,120.9a16.42,16.42,0,0,0,16.12,6.43l3-.53.68,3.85a11.11,11.11,0,0,1-1.89,8.41A36.4,36.4,0,0,1,59,145.71a26.53,26.53,0,0,0-6.33,7.09,15.87,15.87,0,0,0-4.81-4.4,10.74,10.74,0,0,1-.66-2.62,13.24,13.24,0,0,0-5.5-8.63l-2.27-1.6A13.35,13.35,0,0,0,39,120.16l-2.11-2.85a9.77,9.77,0,0,1,10.5,3.59Z"/><path class="cls-1" d="M33.61,124.16a6.65,6.65,0,0,1,.11,7.78L32,134.45a3.36,3.36,0,0,0,.82,4.68l5,3.52a6.58,6.58,0,0,1,2.73,4.29c.83,4.67,1.88,6,4.08,7.39a8.86,8.86,0,0,1,2.71,2.59l3.42,5.44a3.35,3.35,0,0,0,1.37,1.22,47,47,0,0,1-45-57A10.65,10.65,0,0,0,11.41,110l17.35,7.62Z"/><path class="cls-1" d="M42.56,82.6l-4.21.74a10.69,10.69,0,0,0-8.52,8.09,5.09,5.09,0,0,0-.92.55,15.72,15.72,0,0,0-6.37,13,14.41,14.41,0,0,0,.37,2.79l-8.81-3.87a3.77,3.77,0,0,1-2.17-4.57,11,11,0,0,0,.32-6A47,47,0,0,1,53.1,69.55c1.21,0,2.41,0,3.62.14C50.83,76.26,44.44,81.88,42.56,82.6Z"/><path class="cls-1" d="M80.48,101a3.94,3.94,0,0,1-3.94-3.92V92.79a4,4,0,0,1,.92-2.48L87,84.77a46.82,46.82,0,0,1,12,25.47l-8.23-1.52A10.64,10.64,0,0,0,80.48,101Z"/><circle class="cls-2" cx="88.23" cy="153.83" r="3.36"/><path class="cls-2" d="M62.82,65.57l-.09,0a54.51,54.51,0,0,0-7.32-1V43.66a6.75,6.75,0,0,1,6.78-6.72A33.57,33.57,0,0,0,95.61,3.29,3.34,3.34,0,0,0,92.25,0H81.94a32.76,32.76,0,0,0-29.5,19A32.76,32.76,0,0,0,22.94,0H13.11A3.32,3.32,0,0,0,9.83,3.36c0,18.52,14.71,33.58,32.78,33.58a6.65,6.65,0,0,1,6.55,6.72V64.59C21.28,66.37,0,90.15,0,118.22,0,147.85,23.52,172,52.44,172a51.45,51.45,0,0,0,24.85-6.42A3.4,3.4,0,0,0,78.62,161a3.23,3.23,0,0,0-4.44-1.36,45.05,45.05,0,0,1-19.74,5.57,3.37,3.37,0,0,0,1.72-2.48c.78-5.35,3-7.31,6.31-10.29a42.34,42.34,0,0,0,7.23-7.82,18.17,18.17,0,0,0,3-13.47L71.42,124a3.28,3.28,0,0,0-3.79-2.72l-6.17,1.11a9.39,9.39,0,0,1-9.33-3.81,15.84,15.84,0,0,0-19-5.48l0,0a8.31,8.31,0,0,1-3.93-6.67,8.77,8.77,0,0,1,1.4-4.94,3.07,3.07,0,0,0,1.78,1.51,3.22,3.22,0,0,0,3.28-.72,3.82,3.82,0,0,0,.81-4c-.1-1.38-1-3.1.28-5a3.76,3.76,0,0,1,2.46-1.61l4.22-.76C47.9,90,58.14,79.23,63.56,72.6a45.19,45.19,0,0,1,17.66,9c-8.4,5.05-8.14,4.76-8.67,5.3a10.84,10.84,0,0,0-3.07,7.51V98.7a10.66,10.66,0,0,0,10.63,10.63,3.91,3.91,0,0,1,3.9,3.9,3.39,3.39,0,0,0,2.75,3.32L99,118.79a46.62,46.62,0,0,1-5.18,20.92,3.36,3.36,0,0,0,1.44,4.52,1.74,1.74,0,0,0,3.25.87A53.77,53.77,0,0,0,62.82,65.57ZM82.52,7.81H89A26.91,26.91,0,0,1,62.37,31.33,13.37,13.37,0,0,0,55.7,33.1,26.91,26.91,0,0,1,82.52,7.81ZM42.22,31.32A26.91,26.91,0,0,1,15.56,7.81h6.51A26.9,26.9,0,0,1,48.89,33.1,13.32,13.32,0,0,0,42.22,31.32Zm4.37,91.58h0a16.39,16.39,0,0,0,16.12,6.42l3-.52.68,3.85a11.09,11.09,0,0,1-1.9,8.41,36.38,36.38,0,0,1-6.34,6.65,26.36,26.36,0,0,0-6.33,7.09A15.87,15.87,0,0,0,47,150.4a10.2,10.2,0,0,1-.66-2.62,13.28,13.28,0,0,0-5.5-8.63l-2.28-1.6a13.34,13.34,0,0,0-.38-15.39l-2.11-2.85A9.77,9.77,0,0,1,46.59,122.9Zm-13.78,3.26a6.65,6.65,0,0,1,.11,7.78l-1.76,2.51a3.36,3.36,0,0,0,.82,4.68l5,3.52a6.62,6.62,0,0,1,2.73,4.29c.83,4.67,1.88,6,4.08,7.39a8.75,8.75,0,0,1,2.7,2.59L50,164.36a3.46,3.46,0,0,0,1.36,1.22,47,47,0,0,1-45-57A10.61,10.61,0,0,0,10.6,112L28,119.62ZM41.76,84.6h0l-4.22.74a10.6,10.6,0,0,0-6.86,4.38A10.73,10.73,0,0,0,29,93.43a5.54,5.54,0,0,0-.93.55,15.74,15.74,0,0,0-6.36,13,14.2,14.2,0,0,0,.37,2.78l-8.81-3.86a3.77,3.77,0,0,1-2.17-4.57,11.1,11.1,0,0,0,.32-6A47,47,0,0,1,52.3,71.55c1.2,0,2.41,0,3.61.14C50,78.26,43.64,83.88,41.76,84.6Zm48.15,26.12A10.66,10.66,0,0,0,79.67,103a3.94,3.94,0,0,1-3.94-3.91V94.79a4,4,0,0,1,.93-2.49l9.5-5.53a46.77,46.77,0,0,1,12,25.46Z"/></g></svg>