<svg id="Capa_1" data-name="Capa 1" xmlns="http://www.w3.org/2000/svg" viewBox="0 0 686.69 687.74">
    <defs>
        <style>.cls-1{fill:#363546;}</style>
    </defs>
    <path class="cls-1" d="M346.15,687.74c-7.73-3.51-16.26-3.23-24.35-5.13C262,668.56,214.41,636.38,183.1,583.44Q104.41,450.39,28.67,315.59C-30.81,209.33,5.12,80.85,109.9,18.86,122.07,11.66,134.43,4.91,147.73,0h21.45c1.55,2.67,4.4,1.34,6.57,1.94,16.17,4.5,29.54,13.16,38.1,27.64,19.08,32.27,38.18,64.56,56.07,97.49,16.6,30.55,5.28,67.24-25.14,85.44C228,222.58,210.85,232.21,193.86,242c-9.9,5.72-11.22,10.69-5.4,20.8q59.49,103.28,119,206.54c5.62,9.76,10.4,11,20.24,5.33,16.42-9.46,32.8-19,49.23-28.45,33.76-19.43,71.57-9.51,91.23,24.14Q493.67,514.05,518.7,558c18.89,33.22,9.13,70.21-23.25,90.19-30.08,18.56-61.65,33-97.11,37.67-3.06.4-6.67-1-9.29,1.9ZM78.93,77.41c-1.34,1.41-2.11,2.21-2.86,3C22.16,138.83,10.88,229.56,50.67,300Q127,435.25,205.74,569.14C246.36,638.3,328.68,673.27,407.21,657c4.8-1,4.51-2.23,2.42-5.86q-41.11-71-81.9-142.09c-1.78-3.09-3.48-4.29-7.2-4.19-15.09.39-26.94-6-34.5-19.06q-61.66-106.62-123-213.46c-7.38-12.86-6.85-26.25,1-38.79,2.26-3.6,1.59-5.74-.22-8.84-11.34-19.47-22.5-39.05-33.76-58.57C113.19,136.74,96.23,107.38,78.93,77.41Zm82.61-50.54c-7.46,0-13.25,1-18.28,4.05-13.74,8.29-27.25,17-40.94,25.33-2.77,1.69-2.87,3.14-1.33,5.81q42.9,74.16,85.57,148.45c1.58,2.75,2.72,3.33,5.54,1.66,13.59-8.1,27.52-15.66,40.91-24.07,16.74-10.5,22.74-31.56,13.19-48.75-17.78-32-36.16-63.63-54.76-95.13C184.59,32.63,173.36,27.4,161.54,26.87ZM412,463.29a36.52,36.52,0,0,0-19.79,5.23c-12.72,7.37-25.42,14.78-38.25,22-3.32,1.85-4.36,3.18-2.15,7q42.3,72.9,84.21,146c1.74,3,3.2,4.17,6.58,2.32,13.49-7.34,27.35-14,40.58-21.84a36.59,36.59,0,0,0,13.7-49.62C479.42,543,461.37,512,443.19,481,436.36,469.39,425.39,463.94,412,463.29Z" />
    <path class="cls-1" d="M686.69,198.8c-3.2,7.11-3.09,15-5.11,22.4a217.63,217.63,0,0,1-8.84,26.64c-3.81,9.17-10.67,12.8-18.33,9.87s-10.16-10.84-6.43-20.36C668.65,184.57,663.87,134,629.89,88.8,590.59,36.53,536.94,17.47,473,31.24c-58,12.48-103.82,62.06-113.56,121.32-8.44,51.36,5.82,95.94,42.11,133.23,4.73,4.86,7.09,9.9,6.81,16.66-.34,8-.08,16.05-.08,25.3,7.08-3.92,13.35-7.17,19.39-10.8,5.68-3.42,11.12-3.48,17.13-.77,40.59,18.29,81.54,18.85,122.74,2.09,3.1-1.26,6.16-2.69,9.66-2.17,5.95.87,10.91,5.63,11.55,11.41.77,6.85-2.21,11.77-8.43,14.5a176.65,176.65,0,0,1-84.18,14.74,168.24,168.24,0,0,1-55.07-13c-2.86-1.22-4.89-.76-7.39.67q-15.09,8.64-30.35,17c-11.81,6.46-21.69.71-21.86-12.8q-.25-19.8,0-39.61a12.14,12.14,0,0,0-3.47-8.92c-46.71-52.6-60.5-113.25-37.71-179.48C363,54.7,411.08,15.64,479.66,2.34c3.31-.64,7,.16,9.94-2.34h36.2c.26,1.06,1.06,1.18,2,1.28a178.06,178.06,0,0,1,153.93,135.5c1.86,7.66,2,15.66,5,23.07Z" />
    <path class="cls-1" d="M521.82,208.87c0,14.52,0,29,0,43.56,0,9.4-5.07,15.1-13.16,15.21-8.39.11-13.62-5.69-13.64-15.45q-.08-42.87,0-85.76c0-9.23,5.27-15.19,13.19-15.32,8.14-.14,13.56,6,13.6,15.55C521.86,180.73,521.82,194.8,521.82,208.87Z" />
    <path class="cls-1" d="M508.17,96.57a13.17,13.17,0,0,1,13.61,13.34,13.66,13.66,0,0,1-13.09,13.4c-7.25.18-13.69-6.21-13.66-13.55A13.26,13.26,0,0,1,508.17,96.57Z" />
    <path class="cls-1" d="M625.47,281.86A13,13,0,0,1,638.53,295,13.5,13.5,0,0,1,625,308.58a13.88,13.88,0,0,1-13.21-13.37A13.34,13.34,0,0,1,625.47,281.86Z" />
</svg>