<?xml version="1.0" encoding="utf-8"?>
<!-- Generator: Adobe Illustrator 16.0.0, SVG Export Plug-In . SVG Version: 6.00 Build 0)  -->
<!DOCTYPE svg PUBLIC "-//W3C//DTD SVG 1.1//EN" "http://www.w3.org/Graphics/SVG/1.1/DTD/svg11.dtd">
<svg version="1.1" id="Capa_1" xmlns="http://www.w3.org/2000/svg" xmlns:xlink="http://www.w3.org/1999/xlink" x="0px" y="0px"
	 width="30px" height="54px" viewBox="614.5 -7 76 123" enable-background="new 614.5 -7 76 123" xml:space="preserve">
<title>logo</title>
<desc>Created with Sketch.</desc>
<g>
	<g id="wordmark" transform="translate(79.000000, 27.000000)">
		<path id="Fill-1" fill="#FFFFFF" d="M51.684,24.581c0.22,1.758,0.293,3.222,0.293,4.464c0,14.86-10.614,25.549-25.4,25.549
			c-14.86,0-26.426-11.2-26.426-25.621c0-14.347,11.492-25.62,26.205-25.62c10.907,0,20.497,5.124,23.937,14.713l-11.639,3.368
			c-2.854-5.564-7.54-7.028-12.298-7.028c-7.979,0-14.055,6.296-14.055,14.567c0,8.345,6.223,14.641,14.422,14.641
			c6.44,0,11.126-3.367,12.956-8.785H24.671V24.581H51.684z"/>
		<path id="Fill-3" fill="#FFFFFF" d="M78.802,39.002v-0.807H70.75c-2.928,0-4.759,1.537-4.759,3.809
			c0,2.342,2.05,3.806,5.124,3.806C75.143,45.81,78.802,43.1,78.802,39.002 M90.074,30.217v23.278H78.802v-2.709
			c-2.563,2.196-6.075,3.808-10.979,3.808c-8.198,0-13.689-4.758-13.689-12.006c0-7.174,5.491-11.858,15.3-11.858h9.369v-0.732
			c0-3.074-2.122-5.124-5.196-5.124c-3.515,0-5.564,1.392-6.15,4.612l-11.052-2.269c1.61-7.102,8.051-11.566,16.835-11.566
			C83.561,15.65,90.074,20.847,90.074,30.217"/>
		<path id="Fill-5" fill="#FFFFFF" d="M131.822,30.949v22.547h-11.641V33.438c0-4.318-2.561-7.246-6.295-7.246
			c-4.61,0-7.612,3.148-7.612,10.247v17.058H94.563V16.748h11.711v3.514c2.781-2.927,6.66-4.611,11.273-4.611
			C126.112,15.65,131.822,21.726,131.822,30.949"/>
		<path id="Fill-7" fill="#FFFFFF" d="M159.773,39.002v-0.807h-8.052c-2.928,0-4.759,1.537-4.759,3.809
			c0,2.342,2.05,3.806,5.124,3.806C156.114,45.81,159.773,43.1,159.773,39.002 M171.045,30.217v23.278h-11.272v-2.709
			c-2.563,2.196-6.075,3.808-10.979,3.808c-8.198,0-13.689-4.758-13.689-12.006c0-7.174,5.491-11.858,15.3-11.858h9.369v-0.732
			c0-3.074-2.122-5.124-5.196-5.124c-3.515,0-5.564,1.392-6.15,4.612l-11.052-2.269c1.61-7.102,8.051-11.566,16.835-11.566
			C164.531,15.65,171.045,20.847,171.045,30.217"/>
		<polygon id="Fill-9" fill="#FFFFFF" points="227.56,53.496 189.351,53.496 189.351,4.45 227.341,4.45 227.341,14.845 
			201.428,14.845 201.428,24.067 225.218,24.067 225.218,33.877 201.428,33.877 201.428,43.1 227.56,43.1 		"/>
		<path id="Fill-11" fill="#FFFFFF" d="M268.571,30.949v22.547h-11.64V33.438c0-4.318-2.562-7.246-6.296-7.246
			c-4.611,0-7.612,3.148-7.612,10.247v17.058h-11.712V16.748h11.712v3.514c2.781-2.927,6.661-4.611,11.273-4.611
			C262.861,15.65,268.571,21.726,268.571,30.949"/>
		<path id="Fill-13" fill="#FFFFFF" d="M283.785,30.949h15.152c-1.097-3.953-4.025-5.783-7.392-5.783
			C288.252,25.167,284.884,27.217,283.785,30.949z M310.505,38.123h-26.939c0.951,4.392,3.953,7.101,7.907,7.101
			c2.708,0,5.854-0.66,7.832-4.246l10.394,2.122c-3.147,7.76-9.809,11.494-18.226,11.494c-10.615,0-19.399-7.832-19.399-19.473
			c0-11.565,8.784-19.471,19.473-19.471c10.393,0,18.738,7.467,18.959,19.471V38.123z"/>
		<path id="Fill-15" fill="#FFFFFF" d="M341.481,16.529l-0.514,11.711h-2.123c-8.197,0-12.664,4.246-12.664,13.764v11.492h-11.712
			V16.748h11.712v7.028c2.637-4.393,6.661-7.54,12.664-7.54C339.87,16.235,340.601,16.309,341.481,16.529"/>
		<path id="Fill-17" fill="#FFFFFF" d="M372.283,35.121c0-5.636-4.246-9.516-9.005-9.516c-5.124,0-8.855,3.88-8.855,9.516
			c0,5.711,3.731,9.516,8.855,9.516C368.037,44.637,372.283,40.832,372.283,35.121z M383.995,54.227
			c0,11.347-9.662,17.568-21.595,17.568c-8.419,0-14.787-2.928-18.374-8.857l9.736-6.003c2.708,3.294,4.832,4.54,8.638,4.54
			c5.271,0,9.883-2.637,9.883-8.418v-2.709c-2.782,2.709-6.589,4.246-11.42,4.246c-9.735,0-17.935-7.832-17.935-19.473
			c0-11.564,8.199-19.471,17.935-19.471c4.831,0,8.638,1.537,11.42,4.245v-3.148h11.712V54.227z"/>
		<path id="Fill-19" fill="#FFFFFF" d="M388.21,11.99l5.196-11.126h13.908l-8.71,11.126H388.21z M387.479,53.496h11.639V16.748
			h-11.639V53.496z"/>
		<path id="Fill-21" fill="#FFFFFF" d="M427.727,39.002v-0.807h-8.052c-2.928,0-4.759,1.537-4.759,3.809
			c0,2.342,2.05,3.806,5.124,3.806C424.068,45.81,427.727,43.1,427.727,39.002 M438.999,30.217v23.278h-11.272v-2.709
			c-2.563,2.196-6.075,3.808-10.979,3.808c-8.199,0-13.689-4.758-13.689-12.006c0-7.174,5.49-11.858,15.3-11.858h9.369v-0.732
			c0-3.074-2.123-5.124-5.196-5.124c-3.516,0-5.564,1.392-6.149,4.612l-11.053-2.269c1.61-7.102,8.051-11.566,16.836-11.566
			C432.486,15.65,438.999,20.847,438.999,30.217"/>
	</g>
	<g id="iso">
		<path id="Fill-23" fill="#2EF302" d="M26.541,43.526c-0.647,0-1.146,0.575-1.056,1.217c0.592,4.172,4.179,7.382,8.515,7.382
			s7.922-3.21,8.513-7.382c0.091-0.642-0.407-1.217-1.055-1.217H26.541z"/>
		<path id="Fill-25" fill="#FFFFFF" d="M25.313,28.825c-2.216,0-4.013,1.797-4.013,4.012c0,2.216,1.797,4.012,4.013,4.012
			s4.012-1.796,4.012-4.012C29.324,30.622,27.529,28.825,25.313,28.825"/>
		<path id="Fill-27" fill="#FFFFFF" d="M42.688,28.825c-2.216,0-4.013,1.797-4.013,4.012c0,2.216,1.797,4.012,4.013,4.012
			s4.012-1.796,4.012-4.012C46.699,30.622,44.904,28.825,42.688,28.825"/>
		<path id="Fill-29" fill="#FFFFFF" d="M53.08,49.565c-2.746,4.832-6.075,10.688-8.04,19.437H22.955
			c-1.963-8.745-5.289-14.602-8.037-19.438C11.851,44.166,10,40.906,10,34.002C10,20.767,20.766,10,34,10
			c13.233,0,24,10.767,24,24.002C58,40.908,56.148,44.166,53.08,49.565 M34,0C15.252,0,0,15.253,0,34.002
			c0,9.546,2.885,14.623,6.226,20.507c2.907,5.114,6.2,10.911,7.647,20.258c0.377,2.437,2.475,4.235,4.939,4.235h30.368
			c2.465,0,4.563-1.797,4.94-4.233c1.45-9.349,4.745-15.146,7.653-20.264C65.115,48.627,68,43.55,68,34.002C68,15.253,52.748,0,34,0
			"/>
		<path id="Fill-32" fill="#FFFFFF" d="M49.184,82.928H18.817c-2.762,0-5,2.237-5,5c0,2.76,2.238,5,5,5h30.367
			c2.762,0,5-2.24,5-5.002C54.184,85.165,51.945,82.928,49.184,82.928"/>
		<path id="Fill-34" fill="#FFFFFF" d="M44.184,96.66H23.817c-2.762,0-5,2.237-5,5c0,2.76,2.238,5,5,5h20.367
			c2.762,0,5-2.24,5-5.002C49.184,98.897,46.945,96.66,44.184,96.66"/>
	</g>
</g>
<g>
	<g id="wordmark_1_" transform="translate(79.000000, 27.000000)">
		<path id="Fill-1_1_" fill="#FFFFFF" d="M51.684,236.08c0.22,1.758,0.293,3.223,0.293,4.465c0,14.86-10.614,25.549-25.4,25.549
			c-14.86,0-26.426-11.2-26.426-25.621c0-14.348,11.492-25.62,26.205-25.62c10.907,0,20.497,5.124,23.937,14.713l-11.639,3.368
			c-2.854-5.564-7.54-7.028-12.298-7.028c-7.979,0-14.055,6.296-14.055,14.567c0,8.345,6.223,14.641,14.422,14.641
			c6.44,0,11.126-3.367,12.956-8.785H24.671V236.08H51.684z"/>
		<path id="Fill-3_1_" fill="#FFFFFF" d="M78.802,250.502v-0.807H70.75c-2.928,0-4.759,1.537-4.759,3.809
			c0,2.342,2.05,3.806,5.124,3.806C75.143,257.31,78.802,254.6,78.802,250.502 M90.074,241.717v23.278H78.802v-2.709
			c-2.563,2.196-6.075,3.808-10.979,3.808c-8.198,0-13.689-4.758-13.689-12.006c0-7.174,5.491-11.858,15.3-11.858h9.369v-0.732
			c0-3.073-2.122-5.124-5.196-5.124c-3.515,0-5.564,1.393-6.15,4.612l-11.052-2.269c1.61-7.102,8.051-11.566,16.835-11.566
			C83.561,227.15,90.074,232.348,90.074,241.717"/>
		<path id="Fill-5_1_" fill="#FFFFFF" d="M131.822,242.449v22.547h-11.641v-20.059c0-4.318-2.561-7.246-6.295-7.246
			c-4.61,0-7.612,3.148-7.612,10.247v17.058H94.563v-36.748h11.711v3.514c2.781-2.928,6.66-4.611,11.273-4.611
			C126.112,227.15,131.822,233.226,131.822,242.449"/>
		<path id="Fill-7_1_" fill="#FFFFFF" d="M159.773,250.502v-0.807h-8.052c-2.928,0-4.759,1.537-4.759,3.809
			c0,2.342,2.05,3.806,5.124,3.806C156.114,257.31,159.773,254.6,159.773,250.502 M171.045,241.717v23.278h-11.272v-2.709
			c-2.563,2.196-6.075,3.808-10.979,3.808c-8.198,0-13.689-4.758-13.689-12.006c0-7.174,5.491-11.858,15.3-11.858h9.369v-0.732
			c0-3.073-2.122-5.124-5.196-5.124c-3.515,0-5.564,1.393-6.15,4.612l-11.052-2.269c1.61-7.102,8.051-11.566,16.835-11.566
			C164.531,227.15,171.045,232.348,171.045,241.717"/>
		<polygon id="Fill-9_1_" fill="#FFFFFF" points="227.56,264.996 189.351,264.996 189.351,215.95 227.341,215.95 227.341,226.346 
			201.428,226.346 201.428,235.567 225.218,235.567 225.218,245.377 201.428,245.377 201.428,254.6 227.56,254.6 		"/>
		<path id="Fill-11_1_" fill="#FFFFFF" d="M268.571,242.449v22.547h-11.64v-20.059c0-4.318-2.562-7.246-6.296-7.246
			c-4.611,0-7.612,3.148-7.612,10.247v17.058h-11.712v-36.748h11.712v3.514c2.781-2.928,6.661-4.611,11.273-4.611
			C262.861,227.15,268.571,233.226,268.571,242.449"/>
		<path id="Fill-13_1_" fill="#FFFFFF" d="M283.785,242.449h15.152c-1.097-3.953-4.025-5.783-7.392-5.783
			C288.252,236.666,284.884,238.717,283.785,242.449z M310.505,249.623h-26.939c0.951,4.392,3.953,7.101,7.907,7.101
			c2.708,0,5.854-0.66,7.832-4.246l10.394,2.122c-3.147,7.76-9.809,11.494-18.226,11.494c-10.615,0-19.399-7.832-19.399-19.473
			c0-11.565,8.784-19.471,19.473-19.471c10.393,0,18.738,7.467,18.959,19.471V249.623z"/>
		<path id="Fill-15_1_" fill="#FFFFFF" d="M341.481,228.029l-0.514,11.711h-2.123c-8.197,0-12.664,4.246-12.664,13.764v11.492
			h-11.712v-36.748h11.712v7.027c2.637-4.393,6.661-7.54,12.664-7.54C339.87,227.735,340.601,227.809,341.481,228.029"/>
		<path id="Fill-17_1_" fill="#FFFFFF" d="M372.283,246.621c0-5.636-4.246-9.516-9.005-9.516c-5.124,0-8.855,3.88-8.855,9.516
			c0,5.711,3.731,9.516,8.855,9.516C368.037,256.137,372.283,252.332,372.283,246.621z M383.995,265.727
			c0,11.347-9.662,17.568-21.595,17.568c-8.419,0-14.787-2.928-18.374-8.857l9.736-6.003c2.708,3.294,4.832,4.54,8.638,4.54
			c5.271,0,9.883-2.637,9.883-8.418v-2.709c-2.782,2.709-6.589,4.246-11.42,4.246c-9.735,0-17.935-7.832-17.935-19.473
			c0-11.564,8.199-19.471,17.935-19.471c4.831,0,8.638,1.537,11.42,4.245v-3.147h11.712V265.727z"/>
		<path id="Fill-19_1_" fill="#FFFFFF" d="M388.21,223.49l5.196-11.127h13.908l-8.71,11.127H388.21z M387.479,264.996h11.639
			v-36.748h-11.639V264.996z"/>
		<path id="Fill-21_1_" fill="#FFFFFF" d="M427.727,250.502v-0.807h-8.052c-2.928,0-4.759,1.537-4.759,3.809
			c0,2.342,2.05,3.806,5.124,3.806C424.068,257.31,427.727,254.6,427.727,250.502 M438.999,241.717v23.278h-11.272v-2.709
			c-2.563,2.196-6.075,3.808-10.979,3.808c-8.199,0-13.689-4.758-13.689-12.006c0-7.174,5.49-11.858,15.3-11.858h9.369v-0.732
			c0-3.073-2.123-5.124-5.196-5.124c-3.516,0-5.564,1.393-6.149,4.612l-11.053-2.269c1.61-7.102,8.051-11.566,16.836-11.566
			C432.486,227.15,438.999,232.348,438.999,241.717"/>
	</g>
	<g id="iso_1_">
		<path id="Fill-23_1_" fill="#2EF302" d="M26.541,255.025c-0.647,0-1.146,0.575-1.056,1.217c0.592,4.172,4.179,7.383,8.515,7.383
			s7.922-3.211,8.513-7.383c0.091-0.642-0.407-1.217-1.055-1.217H26.541z"/>
		<path id="Fill-25_1_" fill="#FFFFFF" d="M25.313,240.324c-2.216,0-4.013,1.797-4.013,4.012c0,2.217,1.797,4.013,4.013,4.013
			s4.012-1.796,4.012-4.013C29.324,242.121,27.529,240.324,25.313,240.324"/>
		<path id="Fill-27_1_" fill="#FFFFFF" d="M42.688,240.324c-2.216,0-4.013,1.797-4.013,4.012c0,2.217,1.797,4.013,4.013,4.013
			s4.012-1.796,4.012-4.013C46.699,242.121,44.904,240.324,42.688,240.324"/>
		<path id="Fill-29_1_" fill="#FFFFFF" d="M53.08,261.065c-2.746,4.832-6.075,10.688-8.04,19.437H22.955
			c-1.963-8.745-5.289-14.602-8.037-19.438C11.851,255.666,10,252.406,10,245.502c0-13.235,10.766-24.002,24-24.002
			c13.233,0,24,10.767,24,24.002C58,252.408,56.148,255.666,53.08,261.065 M34,211.5c-18.748,0-34,15.253-34,34.002
			c0,9.546,2.885,14.623,6.226,20.507c2.907,5.114,6.2,10.911,7.647,20.258c0.377,2.437,2.475,4.235,4.939,4.235h30.368
			c2.465,0,4.563-1.797,4.94-4.233c1.45-9.349,4.745-15.146,7.653-20.264C65.115,260.127,68,255.05,68,245.502
			C68,226.753,52.748,211.5,34,211.5"/>
		<path id="Fill-32_1_" fill="#FFFFFF" d="M49.184,294.428H18.817c-2.762,0-5,2.237-5,5c0,2.76,2.238,5,5,5h30.367
			c2.762,0,5-2.24,5-5.002C54.184,296.665,51.945,294.428,49.184,294.428"/>
		<path id="Fill-34_1_" fill="#FFFFFF" d="M44.184,308.16H23.817c-2.762,0-5,2.237-5,5c0,2.76,2.238,5,5,5h20.367
			c2.762,0,5-2.24,5-5.002C49.184,310.397,46.945,308.16,44.184,308.16"/>
	</g>
</g>
<g>
	<path fill="#FFFFFF" d="M645.041,44.699c-0.646,0-1.146,0.57-1.055,1.21c0.591,4.17,4.178,7.38,8.514,7.38s7.922-3.21,8.514-7.38
		c0.09-0.64-0.408-1.21-1.056-1.21H645.041z"/>
	<path fill="#FFFFFF" d="M643.813,29.989c-2.217,0-4.013,1.8-4.013,4.021c0,2.21,1.796,4.01,4.013,4.01
		c2.215,0,4.012-1.8,4.012-4.01C647.824,31.789,646.028,29.989,643.813,29.989z"/>
	<path fill="#FFFFFF" d="M661.188,29.989c-2.217,0-4.013,1.8-4.013,4.021c0,2.21,1.796,4.01,4.013,4.01
		c2.215,0,4.012-1.8,4.012-4.01C665.199,31.789,663.403,29.989,661.188,29.989z"/>
	<path fill="#FFFFFF" d="M671.58,50.739c-2.746,4.831-6.075,10.681-8.04,19.431h-22.085c-1.963-8.74-5.289-14.6-8.037-19.44
		c-3.066-5.39-4.918-8.65-4.918-15.56c0-13.23,10.766-24,24-24s24,10.77,24,24C676.5,42.079,674.649,45.34,671.58,50.739z
		 M652.5,1.17c-18.748,0-34,15.25-34,34c0,9.55,2.885,14.619,6.227,20.51c2.906,5.109,6.199,10.91,7.646,20.26
		c0.377,2.43,2.475,4.23,4.939,4.23h30.369c2.465,0,4.563-1.801,4.939-4.23c1.449-9.35,4.745-15.15,7.654-20.27
		c3.34-5.87,6.225-10.95,6.225-20.5C686.5,16.42,671.248,1.17,652.5,1.17z"/>
	<path fill="#FFFFFF" d="M667.684,84.1h-30.367c-2.762,0-5,2.24-5,5s2.238,5,5,5h30.367c2.762,0,5-2.24,5-5
		S670.446,84.1,667.684,84.1z"/>
	<path fill="#FFFFFF" d="M662.684,97.83h-20.367c-2.762,0-5,2.24-5,5s2.238,5,5,5h20.367c2.762,0,5-2.24,5-5
		S665.446,97.83,662.684,97.83z"/>
</g>
<g>
	<path fill="#2EF302" d="M793.541,44.699c-0.646,0-1.146,0.57-1.055,1.21c0.591,4.17,4.178,7.379,8.514,7.379
		s7.922-3.209,8.514-7.379c0.09-0.64-0.408-1.21-1.056-1.21H793.541z"/>
	<path fill="#FFFFFF" d="M792.313,29.989c-2.217,0-4.013,1.8-4.013,4.021c0,2.21,1.796,4.01,4.013,4.01
		c2.215,0,4.012-1.8,4.012-4.01C796.324,31.789,794.528,29.989,792.313,29.989z"/>
	<path fill="#FFFFFF" d="M809.688,29.989c-2.217,0-4.013,1.8-4.013,4.021c0,2.21,1.796,4.01,4.013,4.01
		c2.215,0,4.012-1.8,4.012-4.01C813.699,31.789,811.903,29.989,809.688,29.989z"/>
	<path fill="#FFFFFF" d="M820.08,50.739c-2.746,4.831-6.075,10.681-8.04,19.431h-22.085c-1.963-8.74-5.289-14.6-8.037-19.44
		c-3.066-5.39-4.918-8.65-4.918-15.56c0-13.23,10.766-24,24-24s24,10.77,24,24C825,42.079,823.149,45.34,820.08,50.739z M801,1.17
		c-18.748,0-34,15.25-34,34c0,9.55,2.885,14.619,6.227,20.51c2.906,5.109,6.199,10.91,7.646,20.26c0.377,2.43,2.475,4.23,4.939,4.23
		h30.369c2.465,0,4.563-1.801,4.939-4.23c1.449-9.35,4.745-15.15,7.654-20.27c3.34-5.87,6.225-10.95,6.225-20.5
		C835,16.42,819.748,1.17,801,1.17z"/>
	<path fill="#FFFFFF" d="M816.184,84.1h-30.367c-2.762,0-5,2.24-5,5s2.238,5,5,5h30.367c2.762,0,5-2.24,5-5
		S818.946,84.1,816.184,84.1z"/>
	<path fill="#FFFFFF" d="M811.184,97.83h-20.367c-2.762,0-5,2.24-5,5s2.238,5,5,5h20.367c2.762,0,5-2.24,5-5
		S813.946,97.83,811.184,97.83z"/>
</g>
<g>
	<path fill="#2EF302" d="M941.041,44.699c-0.646,0-1.146,0.57-1.055,1.21c0.591,4.17,4.178,7.38,8.514,7.38s7.922-3.21,8.514-7.38
		c0.09-0.64-0.408-1.21-1.056-1.21H941.041z"/>
	<path fill="#FFFFFF" d="M939.813,29.989c-2.217,0-4.013,1.8-4.013,4.021c0,2.21,1.796,4.01,4.013,4.01
		c2.215,0,4.012-1.8,4.012-4.01C943.824,31.789,942.028,29.989,939.813,29.989z"/>
	<path fill="#FFFFFF" d="M957.188,29.989c-2.217,0-4.013,1.8-4.013,4.021c0,2.21,1.796,4.01,4.013,4.01
		c2.215,0,4.012-1.8,4.012-4.01C961.199,31.789,959.403,29.989,957.188,29.989z"/>
	<path fill="#FFFFFF" d="M967.58,50.739c-2.746,4.831-6.075,10.681-8.04,19.431h-22.085c-1.963-8.74-5.289-14.6-8.037-19.44
		c-3.066-5.39-4.918-8.65-4.918-15.56c0-13.23,10.766-24,24-24s24,10.77,24,24C972.5,42.079,970.649,45.34,967.58,50.739z
		 M948.5,1.17c-18.748,0-34,15.25-34,34c0,9.55,2.885,14.619,6.227,20.51c2.906,5.109,6.199,10.91,7.646,20.26
		c0.377,2.43,2.475,4.23,4.939,4.23h30.369c2.465,0,4.563-1.801,4.939-4.23c1.449-9.35,4.745-15.15,7.654-20.27
		c3.34-5.87,6.225-10.95,6.225-20.5C982.5,16.42,967.248,1.17,948.5,1.17z"/>
	<path fill="#FFFFFF" d="M963.684,84.1h-30.367c-2.762,0-5,2.24-5,5s2.238,5,5,5h30.367c2.762,0,5-2.24,5-5
		S966.446,84.1,963.684,84.1z"/>
	<path fill="#FFFFFF" d="M958.684,97.83h-20.367c-2.762,0-5,2.24-5,5s2.238,5,5,5h20.367c2.762,0,5-2.24,5-5
		S961.446,97.83,958.684,97.83z"/>
</g>
</svg>
