<svg xmlns="http://www.w3.org/2000/svg" viewBox="0 0 150.89 160.99"><defs><style>.cls-1{fill:#363546;}.cls-2{fill:#00cea6;}</style></defs><g id="TESTIMONIOS"><path class="cls-1" d="M15.05,80.5a2.35,2.35,0,0,0-2.35-2.35H2.34a2.35,2.35,0,0,0,0,4.69H12.7A2.35,2.35,0,0,0,15.05,80.5Z"/><path class="cls-2" d="M78.89,111.41h.44a7.72,7.72,0,0,1,7.72,7.73v29.79H71.42v-29.7a7.67,7.67,0,0,1,7.47-7.82Z"/><path class="cls-2" d="M86.9,159.87H71.58a.16.16,0,0,1-.16-.16v-6.1H87.05v6.1A.16.16,0,0,1,86.9,159.87Z"/><path class="cls-2" d="M118.32,132a6,6,0,0,1-5.95,5.94H91.74v-6.25h3.38c1.3.76,2.36-.3,2.36-1.61s-2.36-1.51-2.36-1.51H91.74v-6.26h4.5a2.78,2.78,0,0,0,.81-.11,7.54,7.54,0,0,0,5.64-7.23V99.91l7.34,2.45a1.54,1.54,0,0,0,1,0l7.35-2.45Z"/><path class="cls-2" d="M71.58,6.69H86.9a.16.16,0,0,1,.15.16v6.09H71.42V6.85A.16.16,0,0,1,71.58,6.69Z"/><path class="cls-2" d="M55.79,51.72V67.31l-6.34-2.12a4.62,4.62,0,0,0-2.94,0l-6.35,2.12V47.1A18.54,18.54,0,0,1,58.7,28.57h8v4.69H63.9a2.35,2.35,0,0,0,0,4.69h2.84V44.2h-3a7.49,7.49,0,0,0-7.59,7.52Z"/><path class="cls-2" d="M79.33,55.14h-.18a7.73,7.73,0,0,1-7.73-7.72v-.49h0V17.63H87.05V47.42A7.72,7.72,0,0,1,79.33,55.14Z"/><path class="cls-1" d="M20,110.4l-9,5.23A2.36,2.36,0,0,0,12.1,120a2.3,2.3,0,0,0,1.18-.32l9-5.22A2.37,2.37,0,1,0,20,110.4Z"/><path class="cls-1" d="M140,115.63l-9.05-5.23a2.37,2.37,0,1,0-2.36,4.1l9.05,5.22a2.3,2.3,0,0,0,1.18.32,2.36,2.36,0,0,0,1.18-4.41Z"/><path class="cls-1" d="M148.54,78.15H138.19a2.35,2.35,0,1,0,0,4.69h10.35a2.35,2.35,0,1,0,0-4.69Z"/><path class="cls-1" d="M129.74,52.12a2.3,2.3,0,0,0,1.18-.32L140,46.58a2.37,2.37,0,0,0-2.36-4.1l-9.05,5.23a2.36,2.36,0,0,0,1.18,4.41Z"/><path class="cls-1" d="M22.33,47.71l-9-5.23a2.37,2.37,0,1,0-2.36,4.1l9,5.22a2.34,2.34,0,0,0,1.19.32,2.36,2.36,0,0,0,1.18-4.41Z"/><path class="cls-1" d="M117.12,93.84a4.56,4.56,0,0,0-4.09-.63l-6.53,2.18L100,93.22a4.53,4.53,0,0,0-6,4.3v15.35a2.78,2.78,0,0,1-.82,2,2.74,2.74,0,0,1-2,.82H86.92c-.93-6.2-6-11-12-11h-.7c-6,0-11.08,4.75-12,11H59.34a2.86,2.86,0,0,1-2.86-2.86V79.91a4.64,4.64,0,0,0-3.08-4.38l-7.86-2.8a4.64,4.64,0,0,0-3.12,0l-7.85,2.8a4.64,4.64,0,0,0-3.09,4.38v9.83a2.35,2.35,0,0,0,4.69,0V81.3L44,78.7l7.82,2.6v31.46a7.58,7.58,0,0,0,7.59,7.59h3.35V125H59.9a2.35,2.35,0,0,0,0,4.69h2.84V136h-8a18.53,18.53,0,0,1-18.53-18.54V99.26a2.35,2.35,0,1,0-4.69,0v18.15a23.26,23.26,0,0,0,23.26,23.26h8v15.44A4.88,4.88,0,0,0,67.63,161H82.86a4.88,4.88,0,0,0,4.89-4.88V140.67h8c7.77,0,21.16,1.4,23.16-4.59,1.49-4.48.11-13.59.11-18.67V97.52A4.54,4.54,0,0,0,117.12,93.84ZM102.65,20.32H87.75V4.89A4.89,4.89,0,0,0,82.86,0H67.63a4.89,4.89,0,0,0-4.89,4.89V20.32h-8A23.26,23.26,0,0,0,31.48,43.58V66.17a5,5,0,0,0,1.88,3.92,4.34,4.34,0,0,0,4.09.66L44,68.44l6.53,2.31a4.38,4.38,0,0,0,4.09-.66,5,5,0,0,0,1.88-3.92V49.75a2.87,2.87,0,0,1,2.86-2.86h3.75A12.58,12.58,0,0,0,75.28,57.83H76A12.57,12.57,0,0,0,88.17,46.89h3A2.84,2.84,0,0,1,94,49.72V61.46a2.34,2.34,0,0,0,2.34,2.34h0a2.35,2.35,0,0,0,2.35-2.34V49.79A7.6,7.6,0,0,0,91.1,42.2H87.75V36h2.83a2.35,2.35,0,0,0,0-4.69H87.75V25h8a18.54,18.54,0,0,1,18.54,18.53V79.9l-7.82,2.7-7.81-2.69V70.15a2.35,2.35,0,0,0-4.69,0V81a3.26,3.26,0,0,0,2.21,3.09l8.85,3a4.62,4.62,0,0,0,2.88,0l8.85-3A3.27,3.27,0,0,0,119,81V36.68A16.36,16.36,0,0,0,102.65,20.32ZM74.9,109.41h.43a7.73,7.73,0,0,1,7.73,7.73v29.79H67.43v-29.7a7.66,7.66,0,0,1,7.47-7.82Zm8,48.46H67.58a.16.16,0,0,1-.15-.16v-6.09H83.06v6.09A.16.16,0,0,1,82.9,157.87ZM114.32,130a6,6,0,0,1-5.95,6H87.75v-6.26h3.37c1.3.76,2.36-.3,2.36-1.6s-2.36-1.52-2.36-1.52H87.75v-6.26h4.49a2.78,2.78,0,0,0,.81-.11A7.53,7.53,0,0,0,98.69,113V97.91l7.34,2.45a1.54,1.54,0,0,0,1,0l7.35-2.45ZM67.58,4.69H82.9a.16.16,0,0,1,.16.16v6.09H67.43V4.85A.16.16,0,0,1,67.58,4.69Zm-15.78,45V65.31l-6.35-2.12a4.62,4.62,0,0,0-2.94,0l-6.34,2.12V45.11A18.53,18.53,0,0,1,54.7,26.57h8v4.69H59.9a2.35,2.35,0,0,0,0,4.69h2.84V42.2h-3a7.5,7.5,0,0,0-7.59,7.52Zm23.53,3.42h-.18a7.72,7.72,0,0,1-7.72-7.72v-.49h0V15.63H83.06V45.42A7.73,7.73,0,0,1,75.33,53.14Z"/></g></svg>