<?xml version="1.0" encoding="UTF-8" standalone="no"?>
<!-- Generator: Adobe Illustrator 27.5.0, SVG Export Plug-In . SVG Version: 6.00 Build 0)  -->

<svg
   version="1.1"
   x="0px"
   y="0px"
   viewBox="0 0 184.34795 102.43864"
   xml:space="preserve"
   id="svg12738"
   sodipodi:docname="solar.svg"
   inkscape:version="1.1.1 (3bf5ae0d25, 2021-09-20)"
   width="184.34795"
   height="102.43864"
   xmlns:inkscape="http://www.inkscape.org/namespaces/inkscape"
   xmlns:sodipodi="http://sodipodi.sourceforge.net/DTD/sodipodi-0.dtd"
   xmlns="http://www.w3.org/2000/svg"
   xmlns:svg="http://www.w3.org/2000/svg"><defs
   id="defs12742">
	

	
	
	
	
	
	
	
	
	
</defs><sodipodi:namedview
   id="namedview12740"
   pagecolor="#ffffff"
   bordercolor="#666666"
   borderopacity="1.0"
   inkscape:pageshadow="2"
   inkscape:pageopacity="0.0"
   inkscape:pagecheckerboard="0"
   showgrid="false"
   inkscape:zoom="1.44"
   inkscape:cx="-151.04167"
   inkscape:cy="179.51389"
   inkscape:window-width="1920"
   inkscape:window-height="1009"
   inkscape:window-x="2552"
   inkscape:window-y="532"
   inkscape:window-maximized="1"
   inkscape:current-layer="svg12738" />

<g
   id="g4517"
   transform="translate(-550.8155,-20.721)">
		<path
   style="fill:#85c8ff"
   d="m 687.213,39.244 c -13.156,0.34 -70.203,10.46 -74.569,34.953 -7.523,42.203 72.244,46.959 94.773,35.273 40.836,-21.181 38.622,-71.746 -20.204,-70.226 z"
   id="path3499" />
		<path
   style="fill:#85c8ff"
   d="m 625.883,40.277 c -13.156,0.34 -70.203,10.46 -74.569,34.953 -7.523,42.203 72.244,46.959 94.773,35.273 40.836,-21.18 38.622,-71.746 -20.204,-70.226 z"
   id="path3501" />
		<path
   style="fill:#dbd8d5"
   d="m 721.147,101.601 c -0.58,0.437 -1.169,0.872 -1.768,1.305 -2.005,1.452 -4.121,2.881 -6.349,4.285 -5.096,3.213 -12.32,6.136 -20.919,8.579 -0.697,0.198 -1.405,0.393 -2.12,0.585 -3.667,0.983 -7.561,1.88 -11.629,2.677 -0.707,0.138 -1.42,0.274 -2.137,0.406 -3.754,0.693 -7.644,1.302 -11.629,1.815 -0.772,0.099 -1.548,0.196 -2.328,0.287 -5.584,0.662 -11.336,1.136 -17.145,1.393 -0.706,0.033 -1.413,0.06 -2.12,0.085 -0.343,0.012 -0.686,0.024 -1.03,0.034 -4.593,0.141 -9.21,0.146 -13.796,0 -3.55,-0.114 -7.081,-0.316 -10.57,-0.617 -0.778,-0.067 -1.554,-0.139 -2.326,-0.215 -21.577,-2.135 -41.285,-8.065 -53.143,-19.314 -0.419,-0.397 -0.828,-0.801 -1.226,-1.212 -0.031,-0.031 -0.061,-0.062 -0.091,-0.093 z"
   id="path3503" />
		<polygon
   style="fill:#4e4e50"
   points="558.939,95.628 604.76,95.628 581.85,40.158 "
   id="polygon3505" />
		<polygon
   style="fill:#c2bdb7"
   points="560.996,95.628 606.818,95.628 583.907,40.158 "
   id="polygon3507" />
		<polygon
   style="fill:#4e4e50"
   points="710.897,95.628 604.087,95.628 581.85,39.119 688.66,39.119 "
   id="polygon3509" />
		<polygon
   style="fill:#4e4e50"
   points="722.336,95.628 615.526,95.628 593.289,39.119 700.099,39.119 "
   id="polygon3511" />
		<g
   id="g3515">
			<path
   style="fill:#b2b1b6"
   d="m 688.742,96.009 c -0.152,0 -0.295,-0.091 -0.355,-0.242 L 666.15,39.257 c -0.077,-0.196 0.019,-0.417 0.215,-0.494 0.196,-0.077 0.417,0.019 0.494,0.215 l 22.237,56.51 c 0.077,0.196 -0.019,0.417 -0.215,0.494 -0.046,0.019 -0.093,0.027 -0.139,0.027 z"
   id="path3513" />
		</g>
		<g
   id="g3721">
			<g
   id="g3681">
				<g
   id="g3521">
					<path
   style="fill:#b2b1b6"
   d="m 676.33,73.024 2.739,14.143 c 0,0 -3.634,1.118 -3.13,3.242 h 6.109 c 0.557,0 0.99,-0.486 0.927,-1.039 l -1.781,-15.452 c -10e-4,10e-4 -1.566,-4.024 -4.864,-0.894 z"
   id="path3517" />
					<path
   style="fill:#8e88ff"
   d="m 678.286,85.938 4.694,-0.615 -1.074,-11.55 3.704,-12.041 0.335,-4.005 -2.571,-2.144 -5.087,4.597 v 2.223 c 0,0 -3.257,8.715 -2.396,12.019 0.861,3.304 2.395,11.516 2.395,11.516 z"
   id="path3519" />
				</g>
				<g
   id="g3527">
					<path
   style="fill:#b2b1b6"
   d="m 683.709,74.31 6.682,12.142 c 0,0 -1.836,1.197 -2.074,3.561 -0.018,0.185 0.164,0.325 0.337,0.258 l 5.963,-2.301 c 0.412,-0.159 0.591,-0.643 0.382,-1.031 l -7.713,-14.361 c 0,-0.001 -2.012,-1.79 -3.577,1.732 z"
   id="path3523" />
					<path
   style="fill:#8e88ff"
   d="m 688.964,84.876 5.087,-1.062 -5.374,-11.621 c -0.289,-0.628 -0.416,-1.319 -0.37,-2.009 l 0.588,-8.866 c 0,0 -0.111,-5.363 -4.49,-7.174 -5.573,-2.304 -5.336,0.421 -5.336,0.421 l 2.739,6.383 0.171,8.547 c 0.05,2.48 0.778,4.899 2.105,6.995 z"
   id="path3525" />
				</g>
				<g
   id="g3535">
					<g
   id="g3533">
						<g
   id="g3531">
							<path
   style="fill:#f8b283"
   d="m 672.207,52.786 c 0.004,0.093 -10e-4,0.186 -0.015,0.279 l -1.251,8.334 c -0.144,0.96 -1.014,1.622 -1.94,1.455 -0.938,-0.169 -1.567,-1.12 -1.391,-2.096 l 0.711,-3.939 0.171,-0.946 0.644,-3.569 c 0.148,-0.822 0.955,-1.306 1.787,-1.09 0.728,0.189 1.257,0.858 1.284,1.572 z"
   id="path3529" />
						</g>
					</g>
				</g>
				<g
   id="g3541">
					<g
   id="g3539">
						<path
   style="fill:#ffffff"
   d="m 672.286,55.583 -0.023,-1.976 c 0.164,-1.327 -0.575,-2.52 -1.642,-2.652 v 0 c -1.067,-0.132 -2.834,1.102 -2.998,2.429 l 0.215,5.278 3.633,0.871 c 0.309,-0.871 0.581,-1.703 0.751,-2.92 z"
   id="path3537" />
					</g>
				</g>
				<g
   id="g3549">
					<g
   id="g3545">
						<path
   style="fill:#ffb583"
   d="m 668.169,60.245 -6.713,2.458 c -0.005,0.002 -0.01,0.002 -0.015,-0.001 -0.085,-0.042 -0.928,-0.436 -2.13,-0.394 -1.268,0.045 -1.337,0.96 -0.54,0.776 0.697,-0.161 0.871,0.089 0.904,0.154 0.004,0.008 0.002,0.018 -0.006,0.024 l -1.6,1.161 c -0.344,0.25 -0.065,0.794 0.336,0.654 0.009,-0.003 0.022,-0.002 0.028,-0.01 0.202,-0.293 -0.12,0.052 0.047,0.296 0.252,0.368 0.534,0.078 0.534,0.078 0,0 -0.205,0.584 0.394,0.567 0.002,0 0.002,0.366 1.255,-0.11 1.133,-0.43 6.796,-2.267 9.265,-3.069 0.421,-0.137 0.527,-0.684 0.188,-0.968 l -1.928,-1.613 c -0.005,-0.004 -0.012,-0.006 -0.019,-0.003 z"
   id="path3543" />
					</g>
					<path
   style="fill:#f9f9f9"
   d="m 669.95,62.858 c -0.003,0.002 -0.006,0.004 -0.01,0.005 l -5.922,1.914 c -0.151,0.053 -3.714,1.309 -4.118,1.406 -0.347,0.084 -0.477,-0.058 -0.517,-0.123 -0.067,0.013 -0.231,0.018 -0.371,-0.178 -0.104,-0.146 -0.114,-0.264 -0.104,-0.338 -0.096,0.035 -0.266,0.061 -0.418,-0.108 -0.133,-0.147 -0.133,-0.277 -0.111,-0.359 -0.135,0.047 -0.33,0.053 -0.458,-0.142 -0.161,-0.245 0.014,-0.461 0.129,-0.541 l 1.599,-1.161 c 0.016,-0.012 0.038,-0.008 0.049,0.008 0.011,0.016 0.008,0.038 -0.008,0.049 0,0 0,0 0,0 l -1.6,1.161 c -0.012,0.008 -0.274,0.195 -0.111,0.444 0.163,0.249 0.44,0.085 0.451,0.078 0.015,-0.009 0.034,-0.006 0.045,0.007 0.011,0.013 0.012,0.032 10e-4,0.046 -0.005,0.006 -0.12,0.158 0.065,0.362 0.185,0.204 0.394,0.066 0.402,0.06 0.014,-0.009 0.032,-0.008 0.044,0.004 0.012,0.011 0.015,0.03 0.006,0.044 -0.003,0.005 -0.075,0.135 0.075,0.345 0.147,0.207 0.312,0.148 0.319,0.145 0.009,-0.003 0.019,-0.003 0.027,10e-4 0.009,0.004 0.015,0.011 0.019,0.02 0.003,0.008 0.081,0.196 0.449,0.107 0.4,-0.097 4.075,-1.391 4.112,-1.404 l 5.923,-1.914 c 0.019,-0.006 0.038,0.004 0.044,0.023 0.006,0.014 10e-4,0.03 -0.011,0.039 z"
   id="path3547" />
				</g>
				<path
   style="fill:#ffffff"
   d="m 686.28,55.806 -1.53,0.925 -0.556,0.336 -0.665,0.402 -1.831,1.107 -0.721,0.436 -0.551,0.334 c 0,-10e-4 -0.001,0 -0.001,0 l -1.531,0.925 h -10e-4 l -0.104,0.064 c 0,0 -0.043,-0.013 -0.123,-0.037 -0.086,-0.027 -0.215,-0.066 -0.38,-0.118 -0.187,-0.058 -0.421,-0.132 -0.689,-0.218 -0.925,-0.298 -2.261,-0.745 -3.546,-1.238 -0.618,-0.237 -1.225,-0.485 -1.767,-0.731 h -10e-4 c -0.278,-0.126 -0.538,-0.252 -0.775,-0.375 -0.384,-0.201 -0.706,-0.397 -0.937,-0.581 -0.545,-0.437 -1.31,-1.175 -1.923,-2.034 -0.438,-0.612 -0.8,-1.286 -0.95,-1.956 -0.067,-0.294 -0.092,-0.59 -0.065,-0.878 0.021,-0.222 0.073,-0.44 0.161,-0.651 0.048,-0.115 0.107,-0.229 0.177,-0.341 0.026,-0.04 0.052,-0.08 0.081,-0.119 0.289,-0.4 0.738,-0.768 1.39,-1.082 0.136,-0.065 0.279,-0.128 0.433,-0.189 0.063,-0.025 0.127,-0.049 0.194,-0.073 0.107,-0.04 0.219,-0.074 0.333,-0.104 0.363,-0.096 0.755,-0.146 1.17,-0.157 0.317,-0.009 0.647,0.006 0.989,0.04 0.66,0.067 1.361,0.21 2.083,0.409 2.712,0.75 5.723,2.297 8.002,3.621 2.139,1.24 3.634,2.283 3.634,2.283 z"
   id="path3551" />
				<path
   style="fill:#8e88ff"
   d="m 682.258,59.882 -3.363,0.388 h -10e-4 l -0.227,0.027 -0.378,0.044 c 0,0 -0.245,-0.06 -0.658,-0.171 -0.764,-0.207 -2.104,-0.59 -3.535,-1.102 -0.612,-0.219 -1.24,-0.462 -1.846,-0.724 -0.271,-0.117 -0.538,-0.238 -0.796,-0.362 -1.085,-0.521 -2.034,-1.105 -2.598,-1.726 -0.128,-0.14 -0.247,-0.28 -0.358,-0.42 -0.303,-0.378 -0.545,-0.75 -0.732,-1.114 -0.518,-1.005 -0.612,-1.943 -0.361,-2.748 0.169,-0.549 0.498,-1.035 0.961,-1.437 0.324,-0.283 0.633,-0.511 0.919,-0.696 l 0.157,0.132 c 0.136,-0.065 0.279,-0.128 0.433,-0.189 0.063,-0.025 0.127,-0.049 0.194,-0.073 0.107,-0.04 0.219,-0.074 0.333,-0.104 l -0.5,0.433 c 0,0 -0.075,0.055 -0.194,0.156 -0.334,0.285 -1.012,0.937 -1.308,1.762 -0.083,0.232 -0.136,0.477 -0.144,0.732 -0.014,0.473 0.132,0.979 0.542,1.489 0.181,0.227 0.415,0.455 0.709,0.682 0.552,0.424 1.326,0.86 2.222,1.29 0.161,0.077 0.328,0.155 0.497,0.232 0.512,0.233 1.056,0.464 1.615,0.688 1.151,0.462 2.365,0.899 3.503,1.285 1.156,0.391 2.232,0.73 3.081,0.989 0,0 0.001,-10e-4 0.001,0 1.11,0.338 1.832,0.537 1.832,0.537 z"
   id="path3553" />
				<path
   style="fill:#8e88ff"
   d="m 686.003,58.203 -0.099,0.011 -3.869,0.447 c 0,0 -0.121,-0.03 -0.336,-0.086 -0.239,-0.063 -0.595,-0.158 -1.031,-0.282 -0.072,-0.021 -0.146,-0.043 -0.223,-0.065 -2.282,-0.666 -6.375,-2.033 -7.844,-3.652 -0.123,-0.136 -0.238,-0.27 -0.345,-0.404 -0.067,-0.083 -0.132,-0.167 -0.193,-0.249 -0.702,-0.951 -1.03,-1.861 -1.044,-2.68 -10e-4,-0.062 -10e-4,-0.124 0.002,-0.184 0.024,-0.595 0.216,-1.138 0.551,-1.608 0.317,-0.009 0.647,0.006 0.989,0.04 -0.654,0.942 -1.061,2.343 0.692,3.691 1.34,1.03 3.989,2.132 6.526,3.039 0.717,0.257 1.426,0.498 2.093,0.717 0.592,0.194 1.151,0.373 1.657,0.53 1.201,0.373 2.094,0.627 2.378,0.708 0.063,0.018 0.096,0.027 0.096,0.027 z"
   id="path3555" />
				<g
   id="g3671">
					<g
   id="g3665">
						<g
   id="g3653">
							<g
   id="g3641">
								<g
   id="g3639">
									<g
   id="g3623">
										<g
   id="g3567">
											<g
   id="g3561">
												<g
   id="g3559">
													<path
   style="fill:#f8b283"
   d="m 670.165,52.454 c -0.429,0.509 -1.146,0.641 -1.718,0.358 -0.1,-0.049 -0.195,-0.111 -0.284,-0.186 l -0.428,-0.36 -0.271,-0.227 -0.351,-0.295 -0.228,-0.193 -1.201,-1.009 c -0.598,-0.504 -0.676,-1.404 -0.173,-2.003 0.252,-0.299 0.603,-0.468 0.966,-0.499 0.363,-0.032 0.737,0.075 1.037,0.326 l 1.251,1.052 0.157,0.132 0.265,0.223 0.806,0.679 c 0.028,0.024 0.056,0.049 0.082,0.076 0.073,0.071 0.137,0.15 0.191,0.233 0.334,0.511 0.311,1.204 -0.101,1.693 z"
   id="path3557" />
												</g>
											</g>
											<g
   id="g3565">
												<polygon
   style="fill:#6a4a3f"
   points="668.163,52.626 666.411,51.153 668.048,50.496 "
   id="polygon3563" />
											</g>
										</g>
										<g
   id="g3573">
											<g
   id="g3571">
												<path
   style="fill:#ffab6d"
   d="m 663.882,49.381 c 0.199,0.498 0.422,0.988 0.664,1.466 0.329,0.649 0.63,1.543 1.329,1.835 0.396,0.165 1.716,-0.779 1.977,-1.326 0.569,-1.194 -0.077,-2.672 -1.016,-3.427 -1.106,-0.891 -3.319,-0.203 -2.954,1.452 z"
   id="path3569" />
											</g>
										</g>
										<g
   id="g3579">
											<g
   id="g3577">
												<path
   style="fill:#1e1b18"
   d="m 663.019,50.102 c 0.518,-0.017 0.845,-0.7 0.844,-0.888 -0.002,-0.497 0.551,-0.75 0.939,-0.932 0.252,-0.118 0.673,-0.252 0.955,-0.168 0.245,0.073 0.325,0.522 0.589,0.465 0.234,-0.051 0.309,-0.469 0.483,-0.6 0.26,-0.196 0.335,0.1 0.448,0.316 0.088,0.167 0.098,0.373 0.248,0.494 0.077,0.062 0.312,-0.04 0.718,0.194 0.073,-0.065 -0.119,-0.472 -0.137,-0.546 -0.125,-0.518 -0.29,-1.493 -0.727,-1.856 -0.214,-0.178 -0.429,-0.025 -0.647,-0.277 -0.226,-0.261 -0.304,-0.743 -0.706,-0.782 -0.125,-0.012 -0.274,-0.013 -0.344,0.092 -0.304,0.457 -1.017,0.085 -1.352,0.468 -0.625,0.714 -0.897,0.711 -1.014,0.734 -0.617,0.122 -1.041,0.86 -0.762,1.817 0.436,1.489 -1.024,1.517 0.465,1.469 z"
   id="path3575" />
											</g>
										</g>
										<g
   id="g3595">
											<g
   id="g3593">
												<g
   id="g3591">
													<g
   id="g3589">
														<g
   id="g3587">
															<g
   id="g3585">
																<g
   id="g3583">
																	<path
   style="fill:#603f36"
   d="m 664.674,50.094 c 0.133,0.115 -0.048,0.325 -0.181,0.21 -0.133,-0.115 0.043,-0.329 0.181,-0.21 z"
   id="path3581" />
																</g>
															</g>
														</g>
													</g>
												</g>
											</g>
										</g>
										<g
   id="g3611">
											<g
   id="g3609">
												<g
   id="g3607">
													<g
   id="g3605">
														<g
   id="g3603">
															<g
   id="g3601">
																<g
   id="g3599">
																	<path
   style="fill:#603f36"
   d="m 665.586,49.33 c 0.133,0.115 -0.048,0.325 -0.182,0.21 -0.131,-0.114 0.045,-0.329 0.182,-0.21 z"
   id="path3597" />
																</g>
															</g>
														</g>
													</g>
												</g>
											</g>
										</g>
										<g
   id="g3621">
											<g
   id="g3619">
												<g
   id="g3617">
													<g
   id="g3615">
														<path
   style="fill:#6a4a3f"
   d="m 666.747,50.333 c 0.003,0.009 0.005,0.018 0.007,0.028 0.032,0.171 -0.102,0.413 -0.359,0.476 -0.05,0.013 -0.106,0.018 -0.166,0.015 -0.088,-0.005 -0.137,-0.099 -0.077,-0.165 0.086,-0.095 0.179,-0.23 0.178,-0.375 -0.002,-0.259 0.349,-0.205 0.417,0.021 z"
   id="path3613" />
													</g>
												</g>
											</g>
										</g>
									</g>
									<g
   id="g3629">
										<g
   id="g3627">
											<path
   style="fill:#ffab6d"
   d="m 667.8,48.083 c 0.254,0.841 -0.818,1.157 -1.07,0.323 -0.248,-0.816 0.808,-1.192 1.07,-0.323 z"
   id="path3625" />
										</g>
									</g>
									<g
   id="g3637">
										<g
   id="g3635">
											<g
   id="g3633">
												<path
   style="fill:#ff954d"
   d="m 667.392,48.562 c -0.003,0.003 -0.006,0.005 -0.009,0.007 -0.013,0.006 -0.028,0 -0.034,-0.013 -0.038,-0.089 -0.02,-0.215 0.045,-0.307 0.046,-0.065 0.06,-0.145 0.038,-0.219 -0.02,-0.069 -0.067,-0.123 -0.133,-0.15 -0.178,-0.074 -0.364,0.029 -0.366,0.03 -0.012,0.007 -0.028,0.003 -0.035,-0.01 -0.007,-0.012 -0.003,-0.028 0.01,-0.035 0.009,-0.005 0.21,-0.116 0.411,-0.033 0.079,0.033 0.139,0.1 0.163,0.183 0.026,0.089 0.009,0.185 -0.046,0.263 -0.054,0.077 -0.071,0.185 -0.04,0.258 0.004,0.008 0.002,0.018 -0.004,0.026 z"
   id="path3631" />
											</g>
										</g>
									</g>
								</g>
							</g>
							<g
   id="g3651">
								<g
   id="g3649">
									<g
   id="g3647">
										<g
   id="g3645">
											<path
   style="fill:#603f36"
   d="m 665.575,50.82 c -0.086,0.069 -0.33,0.239 -0.486,0.077 -0.14,-0.146 -0.043,-0.335 0.039,-0.429 l -0.264,-0.534 c -0.008,-0.016 -10e-4,-0.036 0.015,-0.044 0.016,-0.008 0.036,-10e-4 0.044,0.015 l 0.274,0.554 c 0.006,0.012 0.004,0.028 -0.006,0.037 -0.008,0.008 -0.198,0.206 -0.055,0.354 0.143,0.149 0.422,-0.103 0.425,-0.106 0.013,-0.012 0.034,-0.011 0.046,0.002 0.012,0.013 0.011,0.034 -0.002,0.046 -0.002,0.004 -0.013,0.014 -0.03,0.028 z"
   id="path3643" />
										</g>
									</g>
								</g>
							</g>
						</g>
						<g
   id="g3663">
							<g
   id="g3661">
								<g
   id="g3659">
									<g
   id="g3657">
										<path
   style="fill:#ff954d"
   d="m 666.054,49.812 c 0.113,0.095 0.283,0.081 0.378,-0.033 0.096,-0.113 0.081,-0.283 -0.032,-0.378 -0.114,-0.096 -0.283,-0.081 -0.378,0.033 -0.096,0.113 -0.081,0.282 0.032,0.378 z"
   id="path3655" />
									</g>
								</g>
							</g>
						</g>
					</g>
					<g
   id="g3669">
						<path
   style="fill:#ee7035"
   d="m 667.322,52.005 c -0.016,0.008 -0.036,0.002 -0.045,-0.014 -0.01,-0.017 -0.004,-0.038 0.012,-0.048 0.011,-0.007 1.126,-0.692 0.642,-2.399 -0.005,-0.018 0.005,-0.038 0.024,-0.043 0.018,-0.005 0.038,0.005 0.043,0.024 0.5,1.761 -0.661,2.471 -0.673,2.478 -0.002,10e-4 -0.002,10e-4 -0.003,0.002 z"
   id="path3667" />
					</g>
				</g>
				<g
   id="g3677">
					<polygon
   style="fill:#667ba2"
   points="665.159,48.413 666.945,48.634 668.529,48.552 668.416,47.392 "
   id="polygon3673" />
					<path
   style="fill:#ffffff"
   d="m 661.76,50.073 3.182,-1.363 1.279,-0.374 0.729,0.038 1.51,-0.561 0.389,-0.657 -0.228,-0.271 c 0,0 -0.372,0.004 -0.405,-0.058 -0.034,-0.062 -1.346,-2.39 -3.445,-1.857 -2.1,0.533 -2.894,2.012 -2.41,3.876 0.123,0.446 0.123,0.446 0.123,0.446 0,0 -1.257,0.563 -0.724,0.781 z"
   id="path3675" />
				</g>
				<path
   style="fill:#fff140"
   d="m 663.969,61.709 -1.218,0.389 c -0.336,0.107 -0.693,0.135 -1.041,0.076 -0.49,-0.084 -1.348,-0.152 -2.465,0.07 -1.268,0.252 -1.469,0.791 -0.678,0.951 0.313,0.063 0.668,0.035 0.947,-0.009 -0.493,0.151 -1.242,0.506 -1.718,1.336 -0.764,1.331 0.617,2.303 1.972,1.889 0.305,-0.094 3.781,-1.238 5.197,-1.704 z"
   id="path3679" />
			</g>
			<path
   style="fill:#8e88ff"
   d="m 684.026,55.667 c 0,0 -4.757,0.709 -8.673,-1.101 -4.335,0 -4.335,2.776 -4.335,2.776 l 8.05,3.497 c 0,0 6.935,-1.853 4.958,-5.172 z"
   id="path3683" />
			<path
   style="fill:#8e88ff"
   d="m 685.138,57.702 -6.321,-3.63 c -0.204,-0.117 -0.387,-0.265 -0.544,-0.441 -0.703,-0.786 -2.743,-3.082 -2.991,-3.541 3.32,0.497 10.5,3.532 11.825,6.133 -1.162,0.309 -1.969,1.479 -1.969,1.479 z"
   id="path3685" />
			<g
   id="g3719">
				<g
   id="g3715">
					<g
   id="g3693">
						<g
   id="g3691">
							<g
   id="g3689">
								<path
   style="fill:#f8b283"
   d="m 676.382,52.425 c 0.031,0.087 0.055,0.178 0.069,0.271 l 1.313,8.324 c 0.151,0.959 -0.479,1.852 -1.413,1.971 -0.945,0.121 -1.832,-0.597 -1.957,-1.58 l -0.507,-3.971 -0.122,-0.954 -0.459,-3.597 c -0.106,-0.828 0.518,-1.533 1.377,-1.577 0.752,-0.039 1.458,0.441 1.699,1.113 z"
   id="path3687" />
							</g>
						</g>
					</g>
					<g
   id="g3699">
						<g
   id="g3697">
							<path
   style="fill:#ffffff"
   d="m 677.548,56.07 -0.865,-2.879 c -0.242,-1.315 -1.306,-2.231 -2.364,-2.035 v 0 c -1.058,0.195 -1.725,1.43 -1.482,2.745 l 0.547,2.964 1.352,-0.022 c 0.987,-0.017 1.954,-0.282 2.812,-0.773 z"
   id="path3695" />
						</g>
					</g>
					<g
   id="g3705">
						<g
   id="g3703">
							<path
   style="fill:#ffffff"
   d="m 676.615,56.545 c -0.62,0.222 -1.278,0.331 -1.942,0.319 l -1.065,-0.02 c -0.017,0 -0.031,-0.012 -0.034,-0.028 l -0.483,-2.303 c -0.004,-0.019 0.008,-0.038 0.027,-0.042 0.019,-0.004 0.038,0.008 0.042,0.027 l 0.477,2.276 1.036,0.019 c 0.989,0.018 1.963,-0.236 2.817,-0.735 l -0.166,-1.046 c -0.003,-0.019 0.01,-0.037 0.029,-0.041 0.019,-0.003 0.037,0.01 0.04,0.029 l 0.169,1.07 c 0.002,0.014 -0.004,0.029 -0.017,0.036 l -0.006,0.004 c -0.294,0.175 -0.604,0.32 -0.924,0.435 z"
   id="path3701" />
						</g>
					</g>
					<g
   id="g3713">
						<g
   id="g3709">
							<path
   style="fill:#ffb583"
   d="m 674.774,60.753 -5.663,4.363 c -0.004,0.003 -0.009,0.005 -0.014,0.004 -0.094,-0.014 -1.016,-0.137 -2.149,0.265 -1.196,0.424 -0.986,1.318 -0.282,0.903 0.616,-0.363 0.858,-0.177 0.908,-0.125 0.006,0.007 0.007,0.017 0.001,0.025 l -1.176,1.589 c -0.253,0.342 0.177,0.777 0.517,0.522 0.008,-0.006 0.021,-0.009 0.024,-0.018 0.104,-0.34 -0.099,0.086 0.134,0.268 0.351,0.275 0.533,-0.086 0.533,-0.086 0,0 -0.019,0.619 0.547,0.422 0.002,-0.001 0.112,0.348 1.163,-0.482 0.951,-0.751 5.799,-4.206 7.913,-5.713 0.361,-0.257 0.297,-0.811 -0.112,-0.98 l -2.324,-0.958 c -0.007,-0.004 -0.014,-0.003 -0.02,10e-4 z"
   id="path3707" />
						</g>
						<path
   style="fill:#f9f9f9"
   d="m 677.258,62.709 c -0.002,0.003 -0.005,0.006 -0.008,0.008 l -5.072,3.606 c -0.128,0.096 -3.149,2.365 -3.504,2.58 -0.306,0.184 -0.473,0.088 -0.53,0.038 -0.06,0.032 -0.215,0.087 -0.407,-0.059 -0.143,-0.108 -0.189,-0.217 -0.201,-0.291 -0.081,0.062 -0.235,0.138 -0.431,0.023 -0.17,-0.1 -0.21,-0.224 -0.214,-0.309 -0.114,0.085 -0.299,0.15 -0.479,0.002 -0.227,-0.186 -0.126,-0.444 -0.04,-0.555 l 1.176,-1.588 c 0.012,-0.016 0.034,-0.019 0.049,-0.007 0.016,0.011 0.019,0.034 0.008,0.049 v 0 l -1.176,1.589 c -0.009,0.011 -0.202,0.269 0.028,0.457 0.231,0.188 0.445,-0.051 0.454,-0.061 0.011,-0.013 0.03,-0.016 0.045,-0.007 0.015,0.009 0.021,0.027 0.015,0.043 -0.003,0.007 -0.067,0.186 0.171,0.326 0.237,0.139 0.395,-0.056 0.402,-0.064 0.01,-0.013 0.028,-0.017 0.043,-0.01 0.015,0.007 0.023,0.024 0.019,0.04 -10e-4,0.006 -0.03,0.151 0.175,0.307 0.203,0.153 0.342,0.047 0.348,0.042 0.007,-0.006 0.017,-0.008 0.026,-0.007 0.009,10e-4 0.018,0.006 0.024,0.013 0.005,0.007 0.137,0.163 0.46,-0.033 0.352,-0.213 3.467,-2.553 3.499,-2.576 l 5.073,-3.607 c 0.016,-0.011 0.038,-0.008 0.049,0.008 0.008,0.015 0.007,0.031 -0.002,0.043 z"
   id="path3711" />
					</g>
				</g>
				<path
   style="fill:#fff140"
   d="m 671.079,63.469 -1.025,0.712 c -0.29,0.201 -0.623,0.332 -0.973,0.377 -0.494,0.063 -1.333,0.25 -2.336,0.789 -1.138,0.613 -1.172,1.187 -0.369,1.108 0.318,-0.031 0.649,-0.162 0.903,-0.286 -0.427,0.289 -1.039,0.848 -1.251,1.781 -0.34,1.496 1.266,2.021 2.439,1.227 0.262,-0.177 3.181,-2.242 4.424,-3.121 z"
   id="path3717" />
			</g>
		</g>
		<g
   id="g3725">
			<path
   style="fill:#b2b1b6"
   d="m 604.087,96.009 c -0.152,0 -0.296,-0.091 -0.355,-0.242 l -22.237,-56.51 c -0.077,-0.196 0.019,-0.417 0.215,-0.494 0.196,-0.077 0.417,0.019 0.494,0.215 l 22.237,56.51 c 0.077,0.196 -0.019,0.417 -0.215,0.494 -0.046,0.019 -0.093,0.027 -0.139,0.027 z"
   id="path3723" />
		</g>
		<g
   id="g3729">
			<path
   style="fill:#b2b1b6"
   d="m 621.018,96.009 c -0.152,0 -0.296,-0.091 -0.355,-0.242 l -22.237,-56.51 c -0.077,-0.196 0.019,-0.417 0.215,-0.494 0.196,-0.077 0.417,0.019 0.494,0.215 l 22.237,56.51 c 0.077,0.196 -0.019,0.417 -0.215,0.494 -0.046,0.019 -0.093,0.027 -0.139,0.027 z"
   id="path3727" />
		</g>
		<g
   id="g3733">
			<path
   style="fill:#b2b1b6"
   d="m 637.949,96.009 c -0.152,0 -0.295,-0.091 -0.355,-0.242 l -22.237,-56.51 c -0.077,-0.196 0.019,-0.417 0.215,-0.494 0.196,-0.077 0.417,0.019 0.494,0.215 l 22.237,56.51 c 0.077,0.196 -0.019,0.417 -0.215,0.494 -0.046,0.019 -0.093,0.027 -0.139,0.027 z"
   id="path3731" />
		</g>
		<g
   id="g3737">
			<path
   style="fill:#b2b1b6"
   d="m 654.88,96.009 c -0.152,0 -0.296,-0.091 -0.355,-0.242 l -22.237,-56.51 c -0.077,-0.196 0.019,-0.417 0.215,-0.494 0.196,-0.077 0.417,0.019 0.494,0.215 l 22.237,56.51 c 0.077,0.196 -0.019,0.417 -0.215,0.494 -0.046,0.019 -0.093,0.027 -0.139,0.027 z"
   id="path3735" />
		</g>
		<g
   id="g3741">
			<path
   style="fill:#b2b1b6"
   d="m 671.811,96.009 c -0.152,0 -0.296,-0.091 -0.355,-0.242 l -22.237,-56.51 c -0.077,-0.196 0.019,-0.417 0.215,-0.494 0.196,-0.077 0.417,0.019 0.494,0.215 l 22.237,56.51 c 0.077,0.196 -0.019,0.417 -0.215,0.494 -0.046,0.019 -0.093,0.027 -0.139,0.027 z"
   id="path3739" />
		</g>
		<g
   id="g3745">
			<path
   style="fill:#b2b1b6"
   d="m 705.672,96.009 c -0.152,0 -0.296,-0.091 -0.355,-0.242 L 683.08,39.257 c -0.077,-0.196 0.019,-0.417 0.215,-0.494 0.196,-0.077 0.417,0.019 0.494,0.215 l 22.237,56.51 c 0.077,0.196 -0.019,0.417 -0.215,0.494 -0.045,0.019 -0.092,0.027 -0.139,0.027 z"
   id="path3743" />
		</g>
		<g
   id="g3749">
			<path
   style="fill:#b2b1b6"
   d="m 722.603,96.009 c -0.152,0 -0.296,-0.091 -0.355,-0.242 l -22.237,-56.51 c -0.077,-0.196 0.019,-0.417 0.215,-0.494 0.196,-0.077 0.417,0.019 0.494,0.215 l 22.237,56.51 c 0.077,0.196 -0.019,0.417 -0.215,0.494 -0.045,0.019 -0.092,0.027 -0.139,0.027 z"
   id="path3747" />
		</g>
		<g
   id="g4055">
			<polygon
   style="fill:#85c8ff"
   points="642.87,91.086 668.685,91.086 659.002,43.232 632.332,43.232 "
   id="polygon3751" />
			<g
   id="g4053">
				<g
   id="g3801">
					<g
   id="g3767">
						<g
   id="g3757">
							<path
   style="fill:#04217f"
   d="m 658.177,83.844 0.936,4.486 c 0.637,0.513 0.993,0.801 1.629,1.314 h 4.607 c 0.424,-0.513 0.663,-0.801 1.088,-1.314 l -0.913,-4.486 c -0.637,-0.517 -0.994,-0.807 -1.631,-1.325 h -4.63 c -0.425,0.517 -0.662,0.807 -1.086,1.325 z"
   id="path3753" />
							<path
   style="fill:#143893"
   d="m 658.177,83.844 0.312,1.494 c 2.08,1.128 3.606,1.5 4.305,0.923 0.659,-0.544 0.505,-1.868 -0.316,-3.742 h -3.215 c -0.425,0.517 -0.662,0.807 -1.086,1.325 z"
   id="path3755" />
						</g>
						<g
   id="g3761">
							<path
   style="fill:#ffffff"
   d="m 665.301,89.742 c 0.056,0 0.093,-0.044 0.081,-0.098 l -1.456,-7.125 c -0.011,-0.055 -0.066,-0.099 -0.122,-0.099 -0.056,0 -0.093,0.045 -0.082,0.099 l 1.458,7.125 c 0.011,0.054 0.065,0.098 0.121,0.098 z"
   id="path3759" />
						</g>
						<g
   id="g3765">
							<path
   style="fill:#ffffff"
   d="m 660.796,89.742 c 0.056,0 0.092,-0.044 0.081,-0.098 l -1.479,-7.125 c -0.011,-0.055 -0.066,-0.099 -0.123,-0.099 -0.057,0 -0.093,0.045 -0.081,0.099 l 1.48,7.125 c 0.011,0.054 0.066,0.098 0.122,0.098 z"
   id="path3763" />
						</g>
					</g>
					<g
   id="g3783">
						<g
   id="g3773">
							<path
   style="fill:#04217f"
   d="m 650.574,83.844 0.959,4.486 c 0.639,0.513 0.997,0.801 1.636,1.314 h 4.607 c 0.422,-0.513 0.659,-0.801 1.081,-1.314 l -0.936,-4.486 c -0.639,-0.517 -0.998,-0.807 -1.638,-1.325 h -4.63 c -0.422,0.517 -0.658,0.807 -1.079,1.325 z"
   id="path3769" />
							<path
   style="fill:#143893"
   d="m 650.574,83.844 0.32,1.494 c 2.086,1.128 3.614,1.5 4.31,0.923 0.656,-0.544 0.495,-1.868 -0.336,-3.742 h -3.215 c -0.422,0.517 -0.658,0.807 -1.079,1.325 z"
   id="path3771" />
						</g>
						<g
   id="g3777">
							<path
   style="fill:#ffffff"
   d="m 657.729,89.742 c 0.056,0 0.092,-0.044 0.081,-0.098 l -1.494,-7.125 c -0.012,-0.055 -0.067,-0.099 -0.123,-0.099 -0.056,0 -0.093,0.045 -0.081,0.099 l 1.495,7.125 c 0.011,0.054 0.066,0.098 0.122,0.098 z"
   id="path3775" />
						</g>
						<g
   id="g3781">
							<path
   style="fill:#ffffff"
   d="m 653.224,89.742 c 0.056,0 0.092,-0.044 0.081,-0.098 l -1.516,-7.125 c -0.012,-0.055 -0.067,-0.099 -0.123,-0.099 -0.056,0 -0.093,0.045 -0.081,0.099 l 1.517,7.125 c 0.011,0.054 0.066,0.098 0.122,0.098 z"
   id="path3779" />
						</g>
					</g>
					<g
   id="g3799">
						<g
   id="g3789">
							<path
   style="fill:#143893"
   d="m 642.971,83.844 0.983,4.486 c 0.642,0.513 1.002,0.801 1.643,1.314 h 4.607 c 0.419,-0.513 0.654,-0.801 1.074,-1.314 l -0.96,-4.486 c -0.642,-0.517 -1.002,-0.807 -1.645,-1.325 h -4.63 c -0.419,0.517 -0.654,0.807 -1.072,1.325 z"
   id="path3785" />
							<path
   style="fill:#143893"
   d="m 642.971,83.844 0.327,1.494 c 2.092,1.128 3.622,1.5 4.315,0.923 0.654,-0.544 0.486,-1.868 -0.355,-3.742 h -3.215 c -0.419,0.517 -0.654,0.807 -1.072,1.325 z"
   id="path3787" />
						</g>
						<g
   id="g3793">
							<path
   style="fill:#ffffff"
   d="m 650.157,89.742 c 0.056,0 0.092,-0.044 0.08,-0.098 l -1.531,-7.125 c -0.012,-0.055 -0.067,-0.099 -0.123,-0.099 -0.056,0 -0.093,0.045 -0.081,0.099 l 1.532,7.125 c 0.012,0.054 0.067,0.098 0.123,0.098 z"
   id="path3791" />
						</g>
						<g
   id="g3797">
							<path
   style="fill:#ffffff"
   d="m 645.652,89.742 c 0.056,0 0.092,-0.044 0.08,-0.098 l -1.553,-7.125 c -0.012,-0.055 -0.067,-0.099 -0.124,-0.099 -0.057,0 -0.092,0.045 -0.08,0.099 l 1.554,7.125 c 0.012,0.054 0.067,0.098 0.123,0.098 z"
   id="path3795" />
						</g>
					</g>
				</g>
				<g
   id="g3851">
					<g
   id="g3817">
						<g
   id="g3807">
							<path
   style="fill:#04217f"
   d="m 656.637,76.461 0.945,4.531 c 0.64,0.519 0.999,0.809 1.639,1.327 h 4.63 c 0.426,-0.518 0.665,-0.809 1.092,-1.327 l -0.922,-4.531 c -0.641,-0.522 -1,-0.815 -1.641,-1.338 h -4.653 c -0.426,0.523 -0.665,0.815 -1.09,1.338 z"
   id="path3803" />
							<path
   style="fill:#143893"
   d="m 656.637,76.461 0.315,1.51 c 2.092,1.139 3.626,1.516 4.328,0.932 0.662,-0.55 0.506,-1.887 -0.322,-3.78 h -3.232 c -0.425,0.523 -0.664,0.815 -1.089,1.338 z"
   id="path3805" />
						</g>
						<g
   id="g3811">
							<path
   style="fill:#ffffff"
   d="m 663.804,82.419 c 0.056,0 0.093,-0.045 0.082,-0.099 l -1.471,-7.197 c -0.011,-0.055 -0.067,-0.1 -0.123,-0.1 -0.056,0 -0.093,0.045 -0.082,0.1 l 1.472,7.197 c 0.011,0.055 0.065,0.099 0.122,0.099 z"
   id="path3809" />
						</g>
						<g
   id="g3815">
							<path
   style="fill:#ffffff"
   d="m 659.276,82.419 c 0.056,0 0.093,-0.045 0.081,-0.099 l -1.494,-7.197 c -0.011,-0.055 -0.067,-0.1 -0.123,-0.1 -0.057,0 -0.093,0.045 -0.082,0.1 l 1.495,7.197 c 0.011,0.055 0.066,0.099 0.123,0.099 z"
   id="path3813" />
						</g>
					</g>
					<g
   id="g3833">
						<g
   id="g3823">
							<path
   style="fill:#04217f"
   d="m 648.995,76.461 0.969,4.531 c 0.643,0.519 1.003,0.809 1.646,1.327 h 4.63 c 0.423,-0.518 0.661,-0.809 1.085,-1.327 l -0.946,-4.531 c -0.643,-0.522 -1.004,-0.815 -1.648,-1.338 h -4.653 c -0.423,0.523 -0.66,0.815 -1.083,1.338 z"
   id="path3819" />
							<path
   style="fill:#143893"
   d="m 648.995,76.461 0.323,1.51 c 2.098,1.139 3.634,1.516 4.333,0.932 0.659,-0.55 0.496,-1.887 -0.341,-3.78 h -3.232 c -0.423,0.523 -0.66,0.815 -1.083,1.338 z"
   id="path3821" />
						</g>
						<g
   id="g3827">
							<path
   style="fill:#ffffff"
   d="m 656.193,82.419 c 0.056,0 0.093,-0.045 0.081,-0.099 l -1.509,-7.197 c -0.012,-0.055 -0.067,-0.1 -0.124,-0.1 -0.057,0 -0.093,0.045 -0.082,0.1 l 1.51,7.197 c 0.013,0.055 0.068,0.099 0.124,0.099 z"
   id="path3825" />
						</g>
						<g
   id="g3831">
							<path
   style="fill:#ffffff"
   d="m 651.665,82.419 c 0.056,0 0.093,-0.045 0.081,-0.099 l -1.531,-7.197 c -0.012,-0.055 -0.067,-0.1 -0.124,-0.1 -0.057,0 -0.093,0.045 -0.081,0.1 l 1.532,7.197 c 0.012,0.055 0.067,0.099 0.123,0.099 z"
   id="path3829" />
						</g>
					</g>
					<g
   id="g3849">
						<g
   id="g3839">
							<path
   style="fill:#143893"
   d="m 641.354,76.461 0.993,4.531 c 0.646,0.519 1.008,0.809 1.653,1.327 h 4.63 c 0.421,-0.518 0.657,-0.809 1.078,-1.327 l -0.97,-4.531 c -0.646,-0.522 -1.008,-0.815 -1.655,-1.338 h -4.653 c -0.421,0.523 -0.656,0.815 -1.076,1.338 z"
   id="path3835" />
							<path
   style="fill:#143893"
   d="m 641.354,76.461 0.331,1.51 c 2.104,1.139 3.642,1.516 4.338,0.932 0.656,-0.55 0.486,-1.887 -0.361,-3.78 h -3.232 c -0.421,0.523 -0.656,0.815 -1.076,1.338 z"
   id="path3837" />
						</g>
						<g
   id="g3843">
							<path
   style="fill:#ffffff"
   d="m 648.583,82.419 c 0.056,0 0.093,-0.045 0.081,-0.099 l -1.547,-7.197 c -0.012,-0.055 -0.068,-0.1 -0.124,-0.1 -0.056,0 -0.093,0.045 -0.081,0.1 l 1.548,7.197 c 0.011,0.055 0.067,0.099 0.123,0.099 z"
   id="path3841" />
						</g>
						<g
   id="g3847">
							<path
   style="fill:#ffffff"
   d="m 644.055,82.419 c 0.056,0 0.092,-0.045 0.081,-0.099 l -1.569,-7.197 c -0.012,-0.055 -0.068,-0.1 -0.125,-0.1 -0.057,0 -0.093,0.045 -0.081,0.1 l 1.57,7.197 c 0.012,0.055 0.067,0.099 0.124,0.099 z"
   id="path3845" />
						</g>
					</g>
				</g>
				<g
   id="g3901">
					<g
   id="g3867">
						<g
   id="g3857">
							<path
   style="fill:#04217f"
   d="m 655.081,69.003 0.955,4.578 c 0.644,0.524 1.005,0.818 1.649,1.341 h 4.654 c 0.428,-0.523 0.668,-0.817 1.096,-1.341 l -0.932,-4.578 c -0.644,-0.528 -1.006,-0.824 -1.651,-1.352 h -4.677 c -0.427,0.528 -0.667,0.824 -1.094,1.352 z"
   id="path3853" />
							<path
   style="fill:#143893"
   d="m 655.081,69.003 0.318,1.525 c 2.104,1.151 3.646,1.531 4.351,0.942 0.665,-0.556 0.507,-1.906 -0.327,-3.819 h -3.248 c -0.427,0.528 -0.667,0.824 -1.094,1.352 z"
   id="path3855" />
						</g>
						<g
   id="g3861">
							<path
   style="fill:#ffffff"
   d="m 662.291,75.022 c 0.057,0 0.094,-0.045 0.082,-0.101 l -1.487,-7.271 c -0.011,-0.056 -0.067,-0.102 -0.124,-0.102 -0.057,0 -0.094,0.046 -0.082,0.102 l 1.487,7.271 c 0.012,0.056 0.067,0.101 0.124,0.101 z"
   id="path3859" />
						</g>
						<g
   id="g3865">
							<path
   style="fill:#ffffff"
   d="m 657.74,75.022 c 0.057,0 0.093,-0.045 0.082,-0.101 l -1.509,-7.271 c -0.012,-0.056 -0.067,-0.102 -0.124,-0.102 -0.057,0 -0.094,0.046 -0.082,0.102 l 1.51,7.271 c 0.011,0.056 0.066,0.101 0.123,0.101 z"
   id="path3863" />
						</g>
					</g>
					<g
   id="g3883">
						<g
   id="g3873">
							<path
   style="fill:#04217f"
   d="m 647.401,69.003 0.979,4.578 c 0.647,0.524 1.009,0.818 1.656,1.341 h 4.654 c 0.425,-0.523 0.663,-0.817 1.089,-1.341 l -0.956,-4.578 c -0.647,-0.528 -1.01,-0.824 -1.658,-1.352 h -4.677 c -0.425,0.528 -0.663,0.824 -1.087,1.352 z"
   id="path3869" />
							<path
   style="fill:#143893"
   d="m 647.401,69.003 0.326,1.525 c 2.11,1.151 3.654,1.531 4.356,0.942 0.662,-0.556 0.497,-1.906 -0.347,-3.819 h -3.248 c -0.425,0.528 -0.663,0.824 -1.087,1.352 z"
   id="path3871" />
						</g>
						<g
   id="g3877">
							<path
   style="fill:#ffffff"
   d="m 654.642,75.022 c 0.057,0 0.093,-0.045 0.081,-0.101 l -1.525,-7.271 c -0.012,-0.056 -0.067,-0.102 -0.124,-0.102 -0.057,0 -0.094,0.046 -0.082,0.102 l 1.526,7.271 c 0.012,0.056 0.067,0.101 0.124,0.101 z"
   id="path3875" />
						</g>
						<g
   id="g3881">
							<path
   style="fill:#ffffff"
   d="m 650.091,75.022 c 0.057,0 0.093,-0.045 0.081,-0.101 l -1.547,-7.271 c -0.012,-0.056 -0.068,-0.102 -0.125,-0.102 -0.057,0 -0.094,0.046 -0.081,0.102 l 1.548,7.271 c 0.012,0.056 0.067,0.101 0.124,0.101 z"
   id="path3879" />
						</g>
					</g>
					<g
   id="g3899">
						<g
   id="g3889">
							<path
   style="fill:#143893"
   d="m 639.72,69.003 1.003,4.578 c 0.65,0.524 1.014,0.818 1.663,1.341 h 4.654 c 0.422,-0.523 0.659,-0.817 1.082,-1.341 l -0.98,-4.578 c -0.65,-0.528 -1.014,-0.824 -1.665,-1.352 H 640.8 c -0.422,0.528 -0.659,0.824 -1.08,1.352 z"
   id="path3885" />
							<path
   style="fill:#143893"
   d="m 639.72,69.003 0.334,1.525 c 2.116,1.151 3.662,1.531 4.361,0.942 0.659,-0.556 0.487,-1.906 -0.367,-3.819 H 640.8 c -0.422,0.528 -0.659,0.824 -1.08,1.352 z"
   id="path3887" />
						</g>
						<g
   id="g3893">
							<path
   style="fill:#ffffff"
   d="m 646.993,75.022 c 0.057,0 0.093,-0.045 0.081,-0.101 l -1.563,-7.271 c -0.012,-0.056 -0.068,-0.102 -0.125,-0.102 -0.057,0 -0.093,0.046 -0.081,0.102 l 1.564,7.271 c 0.011,0.056 0.067,0.101 0.124,0.101 z"
   id="path3891" />
						</g>
						<g
   id="g3897">
							<path
   style="fill:#ffffff"
   d="m 642.442,75.022 c 0.057,0 0.093,-0.045 0.081,-0.101 l -1.585,-7.271 c -0.012,-0.056 -0.068,-0.102 -0.125,-0.102 -0.057,0 -0.093,0.046 -0.081,0.102 l 1.586,7.271 c 0.011,0.056 0.067,0.101 0.124,0.101 z"
   id="path3895" />
						</g>
					</g>
				</g>
				<g
   id="g3951">
					<g
   id="g3917">
						<g
   id="g3907">
							<path
   style="fill:#04217f"
   d="m 645.79,61.468 0.989,4.625 c 0.651,0.529 1.016,0.826 1.666,1.355 h 4.678 c 0.427,-0.529 0.666,-0.826 1.093,-1.355 l -0.965,-4.625 c -0.651,-0.533 -1.016,-0.832 -1.668,-1.366 h -4.701 c -0.428,0.534 -0.666,0.833 -1.092,1.366 z"
   id="path3903" />
							<path
   style="fill:#143893"
   d="m 645.79,61.468 0.33,1.541 c 2.122,1.163 3.674,1.547 4.379,0.951 0.665,-0.561 0.497,-1.926 -0.353,-3.858 h -3.265 c -0.427,0.534 -0.665,0.833 -1.091,1.366 z"
   id="path3905" />
						</g>
						<g
   id="g3911">
							<path
   style="fill:#ffffff"
   d="m 653.075,67.549 c 0.057,0 0.094,-0.045 0.082,-0.101 l -1.54,-7.346 c -0.012,-0.057 -0.068,-0.103 -0.125,-0.103 -0.057,0 -0.094,0.046 -0.082,0.103 l 1.541,7.346 c 0.011,0.056 0.067,0.101 0.124,0.101 z"
   id="path3909" />
						</g>
						<g
   id="g3915">
							<path
   style="fill:#ffffff"
   d="m 648.5,67.549 c 0.057,0 0.094,-0.045 0.082,-0.101 l -1.563,-7.346 c -0.012,-0.057 -0.068,-0.103 -0.125,-0.103 -0.057,0 -0.094,0.046 -0.082,0.103 l 1.564,7.346 c 0.011,0.056 0.067,0.101 0.124,0.101 z"
   id="path3913" />
						</g>
					</g>
					<g
   id="g3933">
						<g
   id="g3923">
							<path
   style="fill:#04217f"
   d="m 653.443,61.468 0.989,4.625 c 0.651,0.529 1.016,0.826 1.666,1.355 h 4.678 c 0.427,-0.529 0.666,-0.826 1.093,-1.355 l -0.966,-4.625 c -0.651,-0.533 -1.016,-0.832 -1.668,-1.366 h -4.701 c -0.426,0.534 -0.665,0.833 -1.091,1.366 z"
   id="path3919" />
							<path
   style="fill:#143893"
   d="m 653.443,61.468 0.329,1.541 c 2.122,1.163 3.674,1.547 4.379,0.951 0.665,-0.561 0.497,-1.926 -0.353,-3.858 h -3.265 c -0.425,0.534 -0.664,0.833 -1.09,1.366 z"
   id="path3921" />
						</g>
						<g
   id="g3927">
							<path
   style="fill:#ffffff"
   d="m 660.728,67.549 c 0.057,0 0.094,-0.045 0.082,-0.101 l -1.54,-7.346 c -0.012,-0.057 -0.068,-0.103 -0.125,-0.103 -0.057,0 -0.094,0.046 -0.082,0.103 l 1.541,7.346 c 0.011,0.056 0.067,0.101 0.124,0.101 z"
   id="path3925" />
						</g>
						<g
   id="g3931">
							<path
   style="fill:#ffffff"
   d="m 656.154,67.549 c 0.057,0 0.094,-0.045 0.082,-0.101 l -1.563,-7.346 c -0.012,-0.057 -0.068,-0.103 -0.126,-0.103 -0.057,0 -0.094,0.046 -0.082,0.103 l 1.564,7.346 c 0.012,0.056 0.068,0.101 0.125,0.101 z"
   id="path3929" />
						</g>
					</g>
					<g
   id="g3949">
						<g
   id="g3939">
							<path
   style="fill:#143893"
   d="m 638.07,61.468 1.013,4.625 c 0.654,0.529 1.02,0.826 1.673,1.355 h 4.678 c 0.424,-0.529 0.662,-0.826 1.086,-1.355 l -0.99,-4.625 c -0.654,-0.533 -1.021,-0.832 -1.675,-1.366 h -4.701 c -0.424,0.534 -0.662,0.833 -1.084,1.366 z"
   id="path3935" />
							<path
   style="fill:#143893"
   d="m 638.07,61.468 0.338,1.541 c 2.128,1.163 3.682,1.547 4.384,0.951 0.662,-0.561 0.487,-1.926 -0.373,-3.858 h -3.265 c -0.424,0.534 -0.662,0.833 -1.084,1.366 z"
   id="path3937" />
						</g>
						<g
   id="g3943">
							<path
   style="fill:#ffffff"
   d="m 645.386,67.549 c 0.057,0 0.093,-0.045 0.081,-0.101 l -1.579,-7.346 c -0.012,-0.057 -0.068,-0.103 -0.126,-0.103 -0.058,0 -0.094,0.046 -0.082,0.103 l 1.58,7.346 c 0.013,0.056 0.069,0.101 0.126,0.101 z"
   id="path3941" />
						</g>
						<g
   id="g3947">
							<path
   style="fill:#ffffff"
   d="m 640.812,67.549 c 0.057,0 0.093,-0.045 0.081,-0.101 l -1.602,-7.346 c -0.012,-0.057 -0.069,-0.103 -0.126,-0.103 -0.057,0 -0.094,0.046 -0.081,0.103 l 1.603,7.346 c 0.012,0.056 0.068,0.101 0.125,0.101 z"
   id="path3945" />
						</g>
					</g>
				</g>
				<g
   id="g4001">
					<g
   id="g3967">
						<g
   id="g3957">
							<path
   style="fill:#04217f"
   d="m 651.922,53.855 0.975,4.673 c 0.652,0.535 1.017,0.835 1.668,1.369 h 4.702 c 0.431,-0.534 0.673,-0.834 1.104,-1.369 l -0.951,-4.673 c -0.652,-0.539 -1.018,-0.841 -1.671,-1.38 h -4.725 c -0.43,0.539 -0.672,0.841 -1.102,1.38 z"
   id="path3953" />
							<path
   style="fill:#143893"
   d="m 651.922,53.855 0.325,1.557 c 2.128,1.175 3.687,1.563 4.398,0.961 0.67,-0.567 0.508,-1.946 -0.339,-3.898 h -3.282 c -0.43,0.539 -0.672,0.841 -1.102,1.38 z"
   id="path3955" />
						</g>
						<g
   id="g3961">
							<path
   style="fill:#ffffff"
   d="m 659.219,59.999 c 0.057,0 0.094,-0.046 0.083,-0.103 l -1.517,-7.422 c -0.012,-0.057 -0.068,-0.104 -0.125,-0.104 -0.057,0 -0.095,0.046 -0.083,0.104 l 1.518,7.422 c 0.011,0.057 0.067,0.103 0.124,0.103 z"
   id="path3959" />
						</g>
						<g
   id="g3965">
							<path
   style="fill:#ffffff"
   d="m 654.621,59.999 c 0.057,0 0.094,-0.046 0.082,-0.103 l -1.54,-7.422 c -0.012,-0.057 -0.068,-0.104 -0.126,-0.104 -0.058,0 -0.095,0.046 -0.083,0.104 l 1.542,7.422 c 0.012,0.057 0.068,0.103 0.125,0.103 z"
   id="path3963" />
						</g>
					</g>
					<g
   id="g3983">
						<g
   id="g3973">
							<path
   style="fill:#04217f"
   d="m 644.162,53.855 0.999,4.673 c 0.655,0.535 1.022,0.835 1.676,1.369 h 4.702 c 0.428,-0.534 0.668,-0.834 1.097,-1.369 l -0.975,-4.673 c -0.655,-0.539 -1.022,-0.841 -1.678,-1.38 h -4.725 c -0.429,0.539 -0.669,0.841 -1.096,1.38 z"
   id="path3969" />
							<path
   style="fill:#143893"
   d="m 644.162,53.855 0.333,1.557 c 2.134,1.175 3.695,1.563 4.403,0.961 0.667,-0.567 0.497,-1.946 -0.359,-3.898 h -3.282 c -0.428,0.539 -0.668,0.841 -1.095,1.38 z"
   id="path3971" />
						</g>
						<g
   id="g3977">
							<path
   style="fill:#ffffff"
   d="m 651.491,59.999 c 0.057,0 0.094,-0.046 0.082,-0.103 l -1.556,-7.422 c -0.012,-0.057 -0.068,-0.104 -0.126,-0.104 -0.058,0 -0.094,0.046 -0.082,0.104 l 1.557,7.422 c 0.012,0.057 0.068,0.103 0.125,0.103 z"
   id="path3975" />
						</g>
						<g
   id="g3981">
							<path
   style="fill:#ffffff"
   d="m 646.893,59.999 c 0.057,0 0.094,-0.046 0.082,-0.103 l -1.579,-7.422 c -0.012,-0.057 -0.069,-0.104 -0.126,-0.104 -0.057,0 -0.094,0.046 -0.082,0.104 l 1.58,7.422 c 0.011,0.057 0.068,0.103 0.125,0.103 z"
   id="path3979" />
						</g>
					</g>
					<g
   id="g3999">
						<g
   id="g3989">
							<path
   style="fill:#04217f"
   d="m 636.402,53.855 1.024,4.673 c 0.658,0.535 1.026,0.835 1.683,1.369 h 4.702 c 0.425,-0.534 0.664,-0.834 1.09,-1.369 l -1,-4.673 c -0.658,-0.539 -1.027,-0.841 -1.685,-1.38 h -4.725 c -0.426,0.539 -0.665,0.841 -1.089,1.38 z"
   id="path3985" />
							<path
   style="fill:#0a528e"
   d="m 636.402,53.855 0.341,1.557 c 2.14,1.175 3.703,1.563 4.408,0.961 0.664,-0.567 0.487,-1.946 -0.379,-3.898 h -3.282 c -0.425,0.539 -0.664,0.841 -1.088,1.38 z"
   id="path3987" />
						</g>
						<g
   id="g3993">
							<path
   style="fill:#ffffff"
   d="m 643.763,59.999 c 0.057,0 0.094,-0.046 0.082,-0.103 l -1.595,-7.422 c -0.012,-0.057 -0.069,-0.104 -0.127,-0.104 -0.057,0 -0.094,0.046 -0.082,0.104 l 1.596,7.422 c 0.013,0.057 0.069,0.103 0.126,0.103 z"
   id="path3991" />
						</g>
						<g
   id="g3997">
							<path
   style="fill:#ffffff"
   d="m 639.165,59.999 c 0.057,0 0.094,-0.046 0.081,-0.103 l -1.618,-7.422 c -0.012,-0.057 -0.069,-0.104 -0.127,-0.104 -0.058,0 -0.094,0.046 -0.082,0.104 l 1.619,7.422 c 0.013,0.057 0.07,0.103 0.127,0.103 z"
   id="path3995" />
						</g>
					</g>
				</g>
				<g
   id="g4051">
					<g
   id="g4017">
						<g
   id="g4007">
							<path
   style="fill:#04217f"
   d="m 650.318,46.163 0.985,4.721 c 0.656,0.54 1.023,0.843 1.679,1.383 h 4.726 c 0.433,-0.54 0.676,-0.843 1.109,-1.383 l -0.961,-4.721 c -0.656,-0.544 -1.024,-0.85 -1.681,-1.394 h -4.75 c -0.433,0.545 -0.675,0.85 -1.107,1.394 z"
   id="path4003" />
							<path
   style="fill:#143893"
   d="m 650.318,46.163 0.328,1.573 c 2.14,1.187 3.708,1.579 4.422,0.971 0.673,-0.573 0.508,-1.966 -0.345,-3.939 h -3.299 c -0.432,0.546 -0.674,0.851 -1.106,1.395 z"
   id="path4005" />
						</g>
						<g
   id="g4011">
							<path
   style="fill:#ffffff"
   d="m 657.659,52.371 c 0.058,0 0.095,-0.046 0.083,-0.104 l -1.533,-7.499 c -0.012,-0.058 -0.068,-0.105 -0.126,-0.105 -0.058,0 -0.095,0.047 -0.083,0.105 l 1.534,7.499 c 0.011,0.058 0.067,0.104 0.125,0.104 z"
   id="path4009" />
						</g>
						<g
   id="g4015">
							<path
   style="fill:#ffffff"
   d="m 653.037,52.371 c 0.058,0 0.095,-0.046 0.083,-0.104 l -1.556,-7.499 c -0.012,-0.058 -0.069,-0.105 -0.126,-0.105 -0.058,0 -0.095,0.047 -0.083,0.105 l 1.557,7.499 c 0.011,0.058 0.068,0.104 0.125,0.104 z"
   id="path4013" />
						</g>
					</g>
					<g
   id="g4033">
						<g
   id="g4023">
							<path
   style="fill:#04217f"
   d="m 642.517,46.163 1.009,4.721 c 0.659,0.54 1.028,0.843 1.686,1.383 h 4.726 c 0.43,-0.54 0.671,-0.843 1.101,-1.383 l -0.985,-4.721 c -0.659,-0.544 -1.029,-0.85 -1.688,-1.394 h -4.75 c -0.429,0.545 -0.67,0.85 -1.099,1.394 z"
   id="path4019" />
							<path
   style="fill:#143893"
   d="m 642.517,46.163 0.336,1.573 c 2.146,1.187 3.716,1.579 4.427,0.971 0.67,-0.573 0.498,-1.966 -0.365,-3.939 h -3.299 c -0.429,0.546 -0.67,0.851 -1.099,1.395 z"
   id="path4021" />
						</g>
						<g
   id="g4027">
							<path
   style="fill:#ffffff"
   d="m 649.891,52.371 c 0.058,0 0.095,-0.046 0.083,-0.104 l -1.572,-7.499 c -0.012,-0.058 -0.069,-0.105 -0.127,-0.105 -0.058,0 -0.095,0.047 -0.083,0.105 l 1.573,7.499 c 0.012,0.058 0.069,0.104 0.126,0.104 z"
   id="path4025" />
						</g>
						<g
   id="g4031">
							<path
   style="fill:#ffffff"
   d="m 645.269,52.371 c 0.058,0 0.094,-0.046 0.082,-0.104 l -1.596,-7.499 c -0.012,-0.058 -0.069,-0.105 -0.127,-0.105 -0.058,0 -0.095,0.047 -0.082,0.105 l 1.597,7.499 c 0.012,0.058 0.069,0.104 0.126,0.104 z"
   id="path4029" />
						</g>
					</g>
					<g
   id="g4049">
						<g
   id="g4039">
							<path
   style="fill:#04217f"
   d="m 634.717,46.163 1.034,4.721 c 0.662,0.54 1.032,0.843 1.693,1.383 h 4.726 c 0.427,-0.54 0.667,-0.843 1.094,-1.383 l -1.01,-4.721 c -0.662,-0.544 -1.033,-0.85 -1.695,-1.394 h -4.75 c -0.427,0.545 -0.666,0.85 -1.092,1.394 z"
   id="path4035" />
							<path
   style="fill:#143893"
   d="m 634.717,46.163 0.345,1.573 c 2.153,1.187 3.724,1.579 4.432,0.971 0.667,-0.573 0.488,-1.966 -0.386,-3.939 h -3.299 c -0.427,0.546 -0.666,0.851 -1.092,1.395 z"
   id="path4037" />
						</g>
						<g
   id="g4043">
							<path
   style="fill:#ffffff"
   d="m 642.123,52.371 c 0.058,0 0.094,-0.046 0.082,-0.104 l -1.612,-7.499 c -0.012,-0.058 -0.069,-0.105 -0.127,-0.105 -0.058,0 -0.095,0.047 -0.082,0.105 l 1.613,7.499 c 0.012,0.058 0.069,0.104 0.126,0.104 z"
   id="path4041" />
						</g>
						<g
   id="g4047">
							<path
   style="fill:#ffffff"
   d="m 637.502,52.371 c 0.058,0 0.094,-0.046 0.082,-0.104 l -1.635,-7.499 c -0.013,-0.058 -0.07,-0.105 -0.128,-0.105 -0.058,0 -0.095,0.047 -0.082,0.105 l 1.636,7.499 c 0.012,0.058 0.069,0.104 0.127,0.104 z"
   id="path4045" />
						</g>
					</g>
				</g>
			</g>
		</g>
		<g
   id="g4361">
			<polygon
   style="fill:#85c8ff"
   points="613.334,91.086 642.799,91.086 623.284,45.712 594.27,45.234 "
   id="polygon4057" />
			<g
   id="g4359">
				<g
   id="g4107">
					<g
   id="g4073">
						<g
   id="g4063">
							<path
   style="fill:#04217f"
   d="m 629.532,83.866 1.895,4.457 c 0.819,0.514 1.278,0.802 2.097,1.315 l 5.218,0.003 c 0.378,-0.512 0.59,-0.799 0.968,-1.31 l -1.907,-4.444 c -0.815,-0.511 -1.272,-0.797 -2.087,-1.308 l -5.205,-0.016 c -0.382,0.509 -0.597,0.794 -0.979,1.303 z"
   id="path4059" />
							<path
   style="fill:#143893"
   d="m 629.532,83.866 0.629,1.48 c 2.564,1.124 4.359,1.496 5.037,0.924 0.638,-0.538 0.211,-1.847 -1.07,-3.696 l -3.617,-0.011 c -0.382,0.509 -0.597,0.794 -0.979,1.303 z"
   id="path4061" />
						</g>
						<g
   id="g4067">
							<path
   style="fill:#ffffff"
   d="m 638.708,89.74 c 0.063,0 0.096,-0.044 0.073,-0.098 l -3.026,-7.062 c -0.023,-0.054 -0.093,-0.098 -0.156,-0.098 -0.063,0 -0.096,0.043 -0.073,0.097 l 3.025,7.063 c 0.023,0.054 0.093,0.098 0.157,0.098 z"
   id="path4065" />
						</g>
						<g
   id="g4071">
							<path
   style="fill:#ffffff"
   d="m 633.604,89.738 c 0.064,0 0.096,-0.044 0.073,-0.099 l -3.014,-7.075 c -0.023,-0.054 -0.093,-0.098 -0.157,-0.098 -0.064,0 -0.096,0.044 -0.073,0.098 l 3.013,7.076 c 0.024,0.053 0.095,0.098 0.158,0.098 z"
   id="path4069" />
						</g>
					</g>
					<g
   id="g4089">
						<g
   id="g4079">
							<path
   style="fill:#04217f"
   d="m 620.919,83.844 1.882,4.471 c 0.821,0.515 1.282,0.804 2.103,1.32 l 5.25,0.003 c 0.384,-0.514 0.599,-0.801 0.982,-1.314 l -1.895,-4.458 c -0.817,-0.513 -1.276,-0.8 -2.093,-1.312 l -5.238,-0.016 c -0.386,0.509 -0.603,0.795 -0.991,1.306 z"
   id="path4075" />
							<path
   style="fill:#143893"
   d="m 620.919,83.844 0.625,1.484 c 2.573,1.127 4.378,1.501 5.064,0.927 0.646,-0.54 0.223,-1.853 -1.056,-3.707 l -3.64,-0.011 c -0.388,0.51 -0.605,0.796 -0.993,1.307 z"
   id="path4077" />
						</g>
						<g
   id="g4083">
							<path
   style="fill:#ffffff"
   d="m 630.12,89.736 c 0.064,0 0.097,-0.044 0.074,-0.099 l -3.006,-7.084 c -0.023,-0.054 -0.093,-0.098 -0.157,-0.098 -0.064,0 -0.097,0.044 -0.074,0.098 l 3.005,7.085 c 0.024,0.054 0.094,0.098 0.158,0.098 z"
   id="path4081" />
						</g>
						<g
   id="g4087">
							<path
   style="fill:#ffffff"
   d="m 624.985,89.733 c 0.064,0 0.097,-0.044 0.074,-0.099 l -2.993,-7.097 c -0.023,-0.054 -0.093,-0.098 -0.157,-0.099 -0.064,-0.001 -0.097,0.044 -0.074,0.098 l 2.993,7.098 c 0.022,0.055 0.093,0.099 0.157,0.099 z"
   id="path4085" />
						</g>
					</g>
					<g
   id="g4105">
						<g
   id="g4095">
							<path
   style="fill:#143893"
   d="m 612.252,83.821 1.869,4.485 c 0.824,0.517 1.286,0.807 2.109,1.324 l 5.284,0.003 c 0.389,-0.515 0.607,-0.804 0.995,-1.318 l -1.882,-4.472 c -0.82,-0.514 -1.279,-0.802 -2.099,-1.316 l -5.271,-0.016 c -0.392,0.51 -0.612,0.798 -1.005,1.31 z"
   id="path4091" />
							<path
   style="fill:#143893"
   d="m 612.252,83.821 0.62,1.489 c 2.583,1.131 4.397,1.506 5.091,0.93 0.653,-0.542 0.234,-1.859 -1.042,-3.719 l -3.663,-0.011 c -0.393,0.511 -0.613,0.799 -1.006,1.311 z"
   id="path4093" />
						</g>
						<g
   id="g4099">
							<path
   style="fill:#ffffff"
   d="m 621.478,89.732 c 0.064,0 0.098,-0.044 0.075,-0.099 l -2.985,-7.106 c -0.023,-0.054 -0.093,-0.098 -0.157,-0.099 -0.064,0 -0.098,0.044 -0.075,0.098 l 2.985,7.107 c 0.022,0.054 0.093,0.099 0.157,0.099 z"
   id="path4097" />
						</g>
						<g
   id="g4103">
							<path
   style="fill:#ffffff"
   d="m 616.311,89.729 c 0.065,0 0.098,-0.044 0.075,-0.099 l -2.973,-7.12 c -0.023,-0.054 -0.093,-0.099 -0.158,-0.099 -0.064,0 -0.098,0.044 -0.075,0.098 l 2.972,7.12 c 0.023,0.056 0.094,0.1 0.159,0.1 z"
   id="path4101" />
						</g>
					</g>
				</g>
				<g
   id="g4157">
					<g
   id="g4123">
						<g
   id="g4113">
							<path
   style="fill:#04217f"
   d="m 626.456,76.631 1.882,4.426 c 0.816,0.512 1.274,0.799 2.09,1.31 l 5.205,0.017 c 0.378,-0.507 0.591,-0.791 0.969,-1.297 l -1.894,-4.413 c -0.812,-0.509 -1.267,-0.794 -2.079,-1.303 l -5.193,-0.03 c -0.383,0.504 -0.597,0.787 -0.98,1.29 z"
   id="path4109" />
							<path
   style="fill:#143893"
   d="m 626.456,76.631 0.625,1.469 c 2.555,1.121 4.345,1.496 5.023,0.93 0.638,-0.532 0.214,-1.831 -1.06,-3.668 l -3.609,-0.021 c -0.382,0.504 -0.596,0.787 -0.979,1.29 z"
   id="path4111" />
						</g>
						<g
   id="g4117">
							<path
   style="fill:#ffffff"
   d="m 635.598,82.482 c 0.063,0 0.096,-0.043 0.073,-0.097 l -3.004,-7.012 c -0.023,-0.054 -0.093,-0.097 -0.156,-0.098 -0.063,0 -0.096,0.043 -0.073,0.096 l 3.004,7.013 c 0.023,0.054 0.093,0.097 0.156,0.098 z"
   id="path4115" />
						</g>
						<g
   id="g4121">
							<path
   style="fill:#ffffff"
   d="m 630.507,82.466 c 0.063,0 0.096,-0.043 0.073,-0.097 l -2.993,-7.025 c -0.023,-0.054 -0.093,-0.097 -0.156,-0.098 -0.063,0 -0.096,0.043 -0.073,0.097 l 2.992,7.026 c 0.024,0.052 0.094,0.096 0.157,0.097 z"
   id="path4119" />
						</g>
					</g>
					<g
   id="g4139">
						<g
   id="g4129">
							<path
   style="fill:#04217f"
   d="m 617.864,76.586 1.869,4.44 c 0.818,0.513 1.277,0.801 2.096,1.314 l 5.238,0.017 c 0.384,-0.508 0.599,-0.793 0.982,-1.301 l -1.881,-4.426 c -0.814,-0.51 -1.271,-0.797 -2.085,-1.307 l -5.225,-0.03 c -0.389,0.505 -0.606,0.788 -0.994,1.293 z"
   id="path4125" />
							<path
   style="fill:#143893"
   d="m 617.864,76.586 0.62,1.474 c 2.565,1.125 4.364,1.501 5.05,0.933 0.645,-0.534 0.226,-1.837 -1.047,-3.68 l -3.631,-0.021 c -0.387,0.506 -0.604,0.789 -0.992,1.294 z"
   id="path4127" />
						</g>
						<g
   id="g4133">
							<path
   style="fill:#ffffff"
   d="m 627.031,82.455 c 0.064,0 0.097,-0.043 0.074,-0.098 l -2.984,-7.034 c -0.023,-0.054 -0.093,-0.098 -0.156,-0.098 -0.064,0 -0.097,0.043 -0.074,0.097 l 2.984,7.035 c 0.022,0.053 0.093,0.097 0.156,0.098 z"
   id="path4131" />
						</g>
						<g
   id="g4137">
							<path
   style="fill:#ffffff"
   d="m 621.908,82.439 c 0.064,0 0.097,-0.044 0.074,-0.098 l -2.972,-7.047 c -0.023,-0.054 -0.093,-0.098 -0.157,-0.098 -0.064,0 -0.097,0.043 -0.074,0.097 l 2.972,7.048 c 0.023,0.053 0.093,0.097 0.157,0.098 z"
   id="path4135" />
						</g>
					</g>
					<g
   id="g4155">
						<g
   id="g4145">
							<path
   style="fill:#143893"
   d="m 609.218,76.541 1.856,4.453 c 0.821,0.515 1.281,0.804 2.102,1.318 l 5.271,0.017 c 0.389,-0.51 0.607,-0.796 0.995,-1.305 l -1.868,-4.44 c -0.817,-0.512 -1.274,-0.799 -2.091,-1.311 l -5.258,-0.03 c -0.393,0.507 -0.614,0.791 -1.007,1.298 z"
   id="path4141" />
							<path
   style="fill:#143893"
   d="m 609.218,76.541 0.616,1.478 c 2.575,1.128 4.384,1.505 5.077,0.936 0.652,-0.535 0.237,-1.843 -1.033,-3.691 l -3.654,-0.021 c -0.392,0.507 -0.613,0.791 -1.006,1.298 z"
   id="path4143" />
						</g>
						<g
   id="g4149">
							<path
   style="fill:#ffffff"
   d="m 618.411,82.428 c 0.064,0 0.097,-0.044 0.075,-0.098 l -2.964,-7.056 c -0.023,-0.054 -0.093,-0.098 -0.157,-0.098 -0.064,0 -0.097,0.043 -0.075,0.097 l 2.964,7.057 c 0.022,0.053 0.092,0.097 0.157,0.098 z"
   id="path4147" />
						</g>
						<g
   id="g4153">
							<path
   style="fill:#ffffff"
   d="m 613.255,82.411 c 0.064,0 0.098,-0.044 0.075,-0.098 l -2.952,-7.069 c -0.023,-0.054 -0.093,-0.098 -0.157,-0.099 -0.064,0 -0.098,0.043 -0.075,0.097 l 2.951,7.07 c 0.023,0.055 0.094,0.099 0.158,0.099 z"
   id="path4151" />
						</g>
					</g>
				</g>
				<g
   id="g4207">
					<g
   id="g4173">
						<g
   id="g4163">
							<path
   style="fill:#04217f"
   d="m 623.402,69.448 1.868,4.395 c 0.813,0.51 1.269,0.795 2.082,1.305 l 5.193,0.03 c 0.379,-0.502 0.591,-0.783 0.969,-1.284 l -1.88,-4.382 c -0.809,-0.507 -1.263,-0.791 -2.072,-1.298 l -5.181,-0.043 c -0.382,0.498 -0.596,0.778 -0.979,1.277 z"
   id="path4159" />
							<path
   style="fill:#143893"
   d="m 623.402,69.448 0.62,1.459 c 2.547,1.119 4.332,1.495 5.01,0.936 0.638,-0.526 0.217,-1.816 -1.05,-3.641 l -3.6,-0.03 c -0.383,0.497 -0.597,0.777 -0.98,1.276 z"
   id="path4161" />
						</g>
						<g
   id="g4167">
							<path
   style="fill:#ffffff"
   d="m 632.511,75.274 c 0.063,0 0.096,-0.043 0.073,-0.096 l -2.983,-6.963 c -0.023,-0.053 -0.092,-0.097 -0.155,-0.097 -0.063,-10e-4 -0.096,0.042 -0.073,0.095 l 2.983,6.964 c 0.022,0.053 0.091,0.097 0.155,0.097 z"
   id="path4165" />
						</g>
						<g
   id="g4171">
							<path
   style="fill:#ffffff"
   d="m 627.432,75.245 c 0.063,0 0.096,-0.043 0.073,-0.096 l -2.971,-6.976 c -0.023,-0.053 -0.092,-0.097 -0.156,-0.098 -0.063,0 -0.096,0.042 -0.073,0.096 l 2.971,6.977 c 0.023,0.053 0.093,0.096 0.156,0.097 z"
   id="path4169" />
						</g>
					</g>
					<g
   id="g4189">
						<g
   id="g4179">
							<path
   style="fill:#04217f"
   d="m 614.831,69.38 1.856,4.408 c 0.815,0.511 1.273,0.798 2.088,1.309 l 5.225,0.03 c 0.384,-0.503 0.599,-0.785 0.982,-1.287 l -1.868,-4.395 c -0.811,-0.508 -1.266,-0.793 -2.077,-1.302 l -5.213,-0.044 c -0.388,0.5 -0.605,0.781 -0.993,1.281 z"
   id="path4175" />
							<path
   style="fill:#143893"
   d="m 614.831,69.38 0.616,1.463 c 2.557,1.122 4.351,1.5 5.036,0.939 0.645,-0.528 0.229,-1.822 -1.037,-3.653 l -3.622,-0.03 c -0.388,0.5 -0.605,0.781 -0.993,1.281 z"
   id="path4177" />
						</g>
						<g
   id="g4183">
							<path
   style="fill:#ffffff"
   d="m 623.964,75.225 c 0.064,0 0.097,-0.043 0.074,-0.097 l -2.963,-6.985 c -0.023,-0.053 -0.092,-0.097 -0.156,-0.098 -0.063,-0.001 -0.096,0.042 -0.074,0.096 l 2.963,6.985 c 0.023,0.055 0.093,0.099 0.156,0.099 z"
   id="path4181" />
						</g>
						<g
   id="g4187">
							<path
   style="fill:#ffffff"
   d="m 618.854,75.195 c 0.064,0 0.097,-0.043 0.074,-0.097 L 615.977,68.1 c -0.023,-0.053 -0.092,-0.097 -0.156,-0.098 -0.064,0 -0.097,0.042 -0.074,0.096 l 2.951,6.998 c 0.022,0.055 0.092,0.099 0.156,0.099 z"
   id="path4185" />
						</g>
					</g>
					<g
   id="g4205">
						<g
   id="g4195">
							<path
   style="fill:#143893"
   d="m 606.206,69.312 1.843,4.422 c 0.818,0.513 1.276,0.8 2.094,1.313 l 5.258,0.031 c 0.389,-0.505 0.607,-0.788 0.995,-1.292 l -1.855,-4.409 c -0.814,-0.51 -1.27,-0.796 -2.083,-1.306 l -5.245,-0.044 c -0.394,0.502 -0.614,0.783 -1.007,1.285 z"
   id="path4191" />
							<path
   style="fill:#143893"
   d="m 606.206,69.312 0.612,1.468 c 2.566,1.126 4.37,1.504 5.062,0.942 0.651,-0.529 0.24,-1.827 -1.023,-3.664 l -3.645,-0.03 c -0.393,0.501 -0.613,0.782 -1.006,1.284 z"
   id="path4193" />
						</g>
						<g
   id="g4199">
							<path
   style="fill:#ffffff"
   d="m 615.364,75.175 c 0.064,0 0.097,-0.043 0.075,-0.097 l -2.943,-7.006 c -0.023,-0.054 -0.092,-0.097 -0.156,-0.098 -0.064,0 -0.097,0.043 -0.075,0.096 l 2.943,7.007 c 0.022,0.054 0.092,0.098 0.156,0.098 z"
   id="path4197" />
						</g>
						<g
   id="g4203">
							<path
   style="fill:#ffffff"
   d="m 610.222,75.146 c 0.064,0 0.098,-0.043 0.075,-0.097 l -2.931,-7.019 c -0.022,-0.054 -0.092,-0.097 -0.156,-0.098 -0.064,0 -0.098,0.043 -0.075,0.096 l 2.93,7.02 c 0.022,0.053 0.093,0.097 0.157,0.098 z"
   id="path4201" />
						</g>
					</g>
				</g>
				<g
   id="g4257">
					<g
   id="g4223">
						<g
   id="g4213">
							<path
   style="fill:#04217f"
   d="m 611.818,62.224 1.843,4.377 c 0.812,0.509 1.268,0.795 2.08,1.304 l 5.212,0.044 c 0.384,-0.498 0.599,-0.777 0.982,-1.274 l -1.855,-4.364 c -0.808,-0.507 -1.262,-0.79 -2.07,-1.297 l -5.2,-0.057 c -0.386,0.495 -0.604,0.772 -0.992,1.267 z"
   id="path4209" />
							<path
   style="fill:#143893"
   d="m 611.818,62.224 0.612,1.453 c 2.548,1.12 4.338,1.499 5.022,0.944 0.644,-0.522 0.232,-1.806 -1.027,-3.625 l -3.614,-0.039 c -0.387,0.495 -0.605,0.772 -0.993,1.267 z"
   id="path4211" />
						</g>
						<g
   id="g4217">
							<path
   style="fill:#ffffff"
   d="m 620.919,68.046 c 0.063,10e-4 0.096,-0.042 0.074,-0.096 l -2.943,-6.936 c -0.022,-0.053 -0.092,-0.096 -0.155,-0.097 -0.063,-0.001 -0.096,0.042 -0.074,0.095 l 2.942,6.936 c 0.023,0.054 0.092,0.097 0.156,0.098 z"
   id="path4215" />
						</g>
						<g
   id="g4221">
							<path
   style="fill:#ffffff"
   d="m 615.821,68.003 c 0.064,0.001 0.097,-0.042 0.074,-0.096 l -2.931,-6.949 c -0.022,-0.053 -0.092,-0.097 -0.155,-0.097 -0.063,-10e-4 -0.097,0.042 -0.074,0.095 l 2.93,6.949 c 0.022,0.054 0.092,0.098 0.156,0.098 z"
   id="path4219" />
						</g>
					</g>
					<g
   id="g4239">
						<g
   id="g4229">
							<path
   style="fill:#04217f"
   d="m 620.295,62.313 1.882,4.364 c 0.813,0.508 1.269,0.792 2.083,1.3 l 5.18,0.043 c 0.376,-0.497 0.586,-0.775 0.961,-1.271 l -1.894,-4.351 c -0.809,-0.505 -1.263,-0.788 -2.072,-1.293 l -5.168,-0.056 c -0.379,0.494 -0.592,0.77 -0.972,1.264 z"
   id="path4225" />
							<path
   style="fill:#143893"
   d="m 620.295,62.313 0.625,1.449 c 2.545,1.117 4.328,1.494 5.001,0.942 0.634,-0.52 0.209,-1.801 -1.063,-3.615 l -3.591,-0.039 c -0.379,0.493 -0.592,0.769 -0.972,1.263 z"
   id="path4227" />
						</g>
						<g
   id="g4233">
							<path
   style="fill:#ffffff"
   d="m 629.406,68.117 c 0.063,10e-4 0.095,-0.042 0.072,-0.095 l -3.005,-6.915 c -0.023,-0.053 -0.092,-0.096 -0.155,-0.097 -0.063,-10e-4 -0.095,0.042 -0.072,0.094 l 3.004,6.916 c 0.023,0.053 0.093,0.096 0.156,0.097 z"
   id="path4231" />
						</g>
						<g
   id="g4237">
							<path
   style="fill:#ffffff"
   d="m 624.34,68.074 c 0.063,0 0.096,-0.042 0.073,-0.096 L 621.42,61.05 c -0.023,-0.053 -0.093,-0.097 -0.156,-0.097 -0.063,-0.001 -0.096,0.042 -0.073,0.095 l 2.992,6.928 c 0.023,0.054 0.093,0.098 0.157,0.098 z"
   id="path4235" />
						</g>
					</g>
					<g
   id="g4255">
						<g
   id="g4245">
							<path
   style="fill:#143893"
   d="m 603.215,62.135 1.83,4.391 c 0.815,0.511 1.272,0.797 2.086,1.308 l 5.245,0.044 c 0.389,-0.5 0.607,-0.779 0.996,-1.278 l -1.842,-4.378 c -0.811,-0.508 -1.265,-0.793 -2.076,-1.301 l -5.232,-0.057 c -0.394,0.496 -0.614,0.774 -1.007,1.271 z"
   id="path4241" />
							<path
   style="fill:#143893"
   d="m 603.215,62.135 0.607,1.458 c 2.558,1.123 4.357,1.504 5.048,0.948 0.651,-0.523 0.243,-1.812 -1.014,-3.637 l -3.636,-0.04 c -0.392,0.496 -0.612,0.774 -1.005,1.271 z"
   id="path4243" />
						</g>
						<g
   id="g4249">
							<path
   style="fill:#ffffff"
   d="m 612.34,67.974 c 0.064,10e-4 0.097,-0.042 0.075,-0.096 l -2.923,-6.957 c -0.022,-0.053 -0.092,-0.097 -0.156,-0.098 -0.064,-10e-4 -0.097,0.042 -0.075,0.095 l 2.922,6.958 c 0.023,0.054 0.093,0.098 0.157,0.098 z"
   id="path4247" />
						</g>
						<g
   id="g4253">
							<path
   style="fill:#ffffff"
   d="m 607.21,67.931 c 0.064,0.001 0.098,-0.042 0.075,-0.096 l -2.91,-6.97 c -0.022,-0.053 -0.092,-0.097 -0.156,-0.098 -0.064,-0.001 -0.098,0.042 -0.075,0.095 l 2.91,6.97 c 0.022,0.055 0.092,0.099 0.156,0.099 z"
   id="path4251" />
						</g>
					</g>
				</g>
				<g
   id="g4307">
					<g
   id="g4273">
						<g
   id="g4263">
							<path
   style="fill:#04217f"
   d="m 617.357,55.23 1.842,4.333 c 0.807,0.506 1.26,0.789 2.067,1.295 l 5.168,0.057 c 0.379,-0.492 0.591,-0.767 0.969,-1.258 l -1.854,-4.321 c -0.803,-0.503 -1.254,-0.785 -2.057,-1.288 l -5.156,-0.069 c -0.381,0.488 -0.596,0.762 -0.979,1.251 z"
   id="path4259" />
							<path
   style="fill:#143893"
   d="m 617.357,55.23 0.612,1.439 c 2.53,1.114 4.306,1.494 4.982,0.947 0.637,-0.514 0.223,-1.786 -1.031,-3.588 l -3.583,-0.048 c -0.382,0.487 -0.597,0.761 -0.98,1.25 z"
   id="path4261" />
						</g>
						<g
   id="g4267">
							<path
   style="fill:#ffffff"
   d="m 626.4,61.01 c 0.063,0.001 0.095,-0.042 0.073,-0.094 l -2.942,-6.867 c -0.023,-0.052 -0.092,-0.096 -0.154,-0.097 -0.063,-10e-4 -0.095,0.041 -0.073,0.093 l 2.941,6.867 c 0.023,0.054 0.092,0.097 0.155,0.098 z"
   id="path4265" />
						</g>
						<g
   id="g4271">
							<path
   style="fill:#ffffff"
   d="m 621.346,60.955 c 0.063,0.001 0.096,-0.042 0.073,-0.095 l -2.93,-6.879 c -0.022,-0.053 -0.091,-0.096 -0.154,-0.097 -0.063,-10e-4 -0.096,0.041 -0.073,0.094 l 2.93,6.88 c 0.021,0.052 0.09,0.096 0.154,0.097 z"
   id="path4269" />
						</g>
					</g>
					<g
   id="g4289">
						<g
   id="g4279">
							<path
   style="fill:#04217f"
   d="m 608.827,55.119 1.83,4.347 c 0.81,0.507 1.263,0.792 2.073,1.299 l 5.2,0.057 c 0.384,-0.493 0.599,-0.769 0.982,-1.262 l -1.842,-4.334 c -0.805,-0.505 -1.257,-0.787 -2.063,-1.292 l -5.188,-0.07 c -0.386,0.49 -0.604,0.765 -0.992,1.255 z"
   id="path4275" />
							<path
   style="fill:#143893"
   d="m 608.827,55.119 0.607,1.443 c 2.54,1.117 4.324,1.498 5.008,0.95 0.643,-0.516 0.235,-1.791 -1.018,-3.599 l -3.605,-0.049 c -0.386,0.49 -0.604,0.765 -0.992,1.255 z"
   id="path4277" />
						</g>
						<g
   id="g4283">
							<path
   style="fill:#ffffff"
   d="m 617.894,60.917 c 0.063,10e-4 0.096,-0.042 0.074,-0.095 l -2.922,-6.887 c -0.022,-0.053 -0.092,-0.096 -0.155,-0.097 -0.063,-10e-4 -0.096,0.041 -0.074,0.094 l 2.922,6.888 c 0.023,0.053 0.092,0.096 0.155,0.097 z"
   id="path4281" />
						</g>
						<g
   id="g4287">
							<path
   style="fill:#ffffff"
   d="m 612.809,60.861 c 0.063,0.001 0.097,-0.042 0.074,-0.095 l -2.91,-6.9 c -0.022,-0.053 -0.092,-0.096 -0.155,-0.097 -0.063,-10e-4 -0.097,0.041 -0.074,0.094 l 2.91,6.901 c 0.022,0.053 0.091,0.097 0.155,0.097 z"
   id="path4285" />
						</g>
					</g>
					<g
   id="g4305">
						<g
   id="g4295">
							<path
   style="fill:#04217f"
   d="m 600.245,55.007 1.817,4.36 c 0.812,0.509 1.267,0.794 2.079,1.303 l 5.232,0.057 c 0.389,-0.494 0.607,-0.771 0.996,-1.265 l -1.829,-4.347 c -0.808,-0.506 -1.261,-0.79 -2.068,-1.296 l -5.22,-0.07 c -0.394,0.491 -0.614,0.767 -1.007,1.258 z"
   id="path4291" />
							<path
   style="fill:#0a528e"
   d="m 600.245,55.007 0.603,1.447 c 2.55,1.121 4.343,1.503 5.034,0.953 0.65,-0.517 0.246,-1.797 -1.004,-3.61 l -3.627,-0.049 c -0.393,0.492 -0.613,0.768 -1.006,1.259 z"
   id="path4293" />
						</g>
						<g
   id="g4299">
							<path
   style="fill:#ffffff"
   d="m 609.336,60.823 c 0.064,10e-4 0.097,-0.042 0.075,-0.095 l -2.902,-6.908 c -0.022,-0.053 -0.092,-0.096 -0.155,-0.097 -0.063,-10e-4 -0.097,0.041 -0.075,0.094 l 2.901,6.909 c 0.023,0.053 0.093,0.097 0.156,0.097 z"
   id="path4297" />
						</g>
						<g
   id="g4303">
							<path
   style="fill:#ffffff"
   d="m 604.219,60.767 c 0.064,10e-4 0.098,-0.042 0.075,-0.095 l -2.89,-6.921 c -0.022,-0.053 -0.092,-0.097 -0.155,-0.097 -0.064,-0.001 -0.097,0.041 -0.075,0.094 l 2.889,6.922 c 0.022,0.053 0.092,0.097 0.156,0.097 z"
   id="path4301" />
						</g>
					</g>
				</g>
				<g
   id="g4357">
					<g
   id="g4323">
						<g
   id="g4313">
							<path
   style="fill:#04217f"
   d="m 614.367,48.195 1.83,4.303 c 0.804,0.504 1.255,0.786 2.06,1.29 l 5.155,0.07 c 0.379,-0.487 0.591,-0.759 0.97,-1.245 l -1.841,-4.291 c -0.8,-0.501 -1.249,-0.782 -2.049,-1.283 l -5.143,-0.082 c -0.385,0.483 -0.599,0.754 -0.982,1.238 z"
   id="path4309" />
							<path
   style="fill:#143893"
   d="m 614.367,48.195 0.607,1.429 c 2.522,1.112 4.292,1.493 4.968,0.952 0.636,-0.508 0.226,-1.771 -1.022,-3.562 l -3.574,-0.057 c -0.382,0.483 -0.596,0.754 -0.979,1.238 z"
   id="path4311" />
						</g>
						<g
   id="g4317">
							<path
   style="fill:#ffffff"
   d="m 623.377,53.952 c 0.063,0.001 0.095,-0.041 0.073,-0.094 l -2.922,-6.819 c -0.022,-0.052 -0.091,-0.095 -0.154,-0.096 -0.063,-10e-4 -0.095,0.041 -0.073,0.093 l 2.921,6.82 c 0.023,0.052 0.092,0.095 0.155,0.096 z"
   id="path4315" />
						</g>
						<g
   id="g4321">
							<path
   style="fill:#ffffff"
   d="m 618.334,53.884 c 0.063,10e-4 0.096,-0.041 0.073,-0.094 l -2.91,-6.831 c -0.022,-0.052 -0.091,-0.095 -0.154,-0.096 -0.063,-10e-4 -0.096,0.041 -0.073,0.093 l 2.909,6.832 c 0.023,0.052 0.092,0.095 0.155,0.096 z"
   id="path4319" />
						</g>
					</g>
					<g
   id="g4339">
						<g
   id="g4329">
							<path
   style="fill:#04217f"
   d="m 605.857,48.063 1.817,4.316 c 0.807,0.505 1.259,0.789 2.066,1.294 l 5.187,0.07 c 0.384,-0.488 0.599,-0.762 0.983,-1.249 l -1.829,-4.304 c -0.803,-0.502 -1.253,-0.784 -2.055,-1.287 l -5.175,-0.083 c -0.388,0.486 -0.606,0.758 -0.994,1.243 z"
   id="path4325" />
							<path
   style="fill:#143893"
   d="m 605.857,48.063 0.603,1.433 c 2.532,1.115 4.311,1.497 4.994,0.955 0.643,-0.51 0.238,-1.776 -1.008,-3.573 l -3.596,-0.057 c -0.387,0.485 -0.605,0.757 -0.993,1.242 z"
   id="path4327" />
						</g>
						<g
   id="g4333">
							<path
   style="fill:#ffffff"
   d="m 614.891,53.838 c 0.063,10e-4 0.096,-0.041 0.074,-0.094 l -2.902,-6.84 c -0.022,-0.052 -0.091,-0.096 -0.154,-0.097 -0.063,-0.001 -0.096,0.041 -0.074,0.093 l 2.901,6.84 c 0.023,0.054 0.092,0.097 0.155,0.098 z"
   id="path4331" />
						</g>
						<g
   id="g4337">
							<path
   style="fill:#ffffff"
   d="m 609.818,53.769 c 0.063,0.001 0.097,-0.041 0.074,-0.094 l -2.89,-6.852 c -0.022,-0.052 -0.091,-0.096 -0.154,-0.097 -0.063,-10e-4 -0.096,0.041 -0.074,0.093 l 2.889,6.852 c 0.022,0.054 0.092,0.098 0.155,0.098 z"
   id="path4335" />
						</g>
					</g>
					<g
   id="g4355">
						<g
   id="g4345">
							<path
   style="fill:#04217f"
   d="m 597.295,47.93 1.804,4.329 c 0.809,0.507 1.262,0.791 2.071,1.298 l 5.219,0.071 c 0.389,-0.49 0.607,-0.764 0.996,-1.253 l -1.816,-4.317 c -0.805,-0.504 -1.256,-0.787 -2.061,-1.291 l -5.207,-0.083 c -0.392,0.487 -0.613,0.759 -1.006,1.246 z"
   id="path4341" />
							<path
   style="fill:#143893"
   d="m 597.295,47.93 0.599,1.437 c 2.541,1.119 4.33,1.502 5.02,0.958 0.65,-0.512 0.249,-1.781 -0.995,-3.583 l -3.618,-0.058 c -0.392,0.487 -0.613,0.759 -1.006,1.246 z"
   id="path4343" />
						</g>
						<g
   id="g4349">
							<path
   style="fill:#ffffff"
   d="m 606.354,53.723 c 0.063,10e-4 0.097,-0.041 0.075,-0.094 l -2.882,-6.86 c -0.022,-0.052 -0.091,-0.096 -0.155,-0.097 -0.064,-10e-4 -0.097,0.041 -0.075,0.093 l 2.881,6.861 c 0.023,0.052 0.092,0.096 0.156,0.097 z"
   id="path4347" />
						</g>
						<g
   id="g4353">
							<path
   style="fill:#ffffff"
   d="m 601.249,53.654 c 0.064,10e-4 0.097,-0.041 0.075,-0.094 l -2.87,-6.873 c -0.022,-0.053 -0.091,-0.096 -0.155,-0.097 -0.064,-0.001 -0.097,0.041 -0.075,0.093 l 2.869,6.873 c 0.023,0.053 0.092,0.097 0.156,0.098 z"
   id="path4351" />
						</g>
					</g>
				</g>
			</g>
		</g>
		<g
   id="g4367">
			<rect
   x="560.91101"
   y="96.413002"
   style="fill:#c2bdb7"
   width="162.431"
   height="6.493"
   id="rect4363" />
			<rect
   x="560.91101"
   y="95.627998"
   style="fill:#ffffff"
   width="162.431"
   height="3.027"
   id="rect4365" />
		</g>
		<g
   id="g4427">
			<g
   id="g4423">
				<g
   id="g4385">
					<g
   id="g4373">
						<rect
   x="606.953"
   y="31.112"
   style="fill:#c2bdb7"
   width="5.6440001"
   height="2.1930001"
   id="rect4369" />
						<rect
   x="612.78198"
   y="31.112"
   style="fill:#ada59c"
   width="5.7119999"
   height="2.1930001"
   id="rect4371" />
					</g>
					<g
   id="g4379">
						<rect
   x="606.953"
   y="28.919001"
   style="fill:#ada59c"
   width="2.493"
   height="2.1930001"
   id="rect4375" />
						<rect
   x="609.63098"
   y="28.919001"
   style="fill:#c2bdb7"
   width="5.7119999"
   height="2.1930001"
   id="rect4377" />
					</g>
					<g
   id="g4383">
						<rect
   x="615.48199"
   y="28.919001"
   style="fill:#c2bdb7"
   width="3.0190001"
   height="2.1930001"
   id="rect4381" />
					</g>
				</g>
				<g
   id="g4403">
					<g
   id="g4391">
						<rect
   x="612.85797"
   y="24.589001"
   style="fill:#ada59c"
   width="5.6440001"
   height="2.1930001"
   id="rect4387" />
						
							<rect
   x="606.961"
   y="24.589001"
   transform="rotate(180,609.8169,25.6853)"
   style="fill:#c2bdb7"
   width="5.7119999"
   height="2.1930001"
   id="rect4389" />
					</g>
					<g
   id="g4397">
						<rect
   x="616.008"
   y="26.782"
   style="fill:#c3c7d2"
   width="2.493"
   height="2.1930001"
   id="rect4393" />
						
							<rect
   x="610.11102"
   y="26.782"
   transform="rotate(180,612.9674,27.8787)"
   style="fill:#ada59c"
   width="5.7119999"
   height="2.1930001"
   id="rect4395" />
					</g>
					<g
   id="g4401">
						<rect
   x="606.953"
   y="26.782"
   style="fill:#c2bdb7"
   width="3.0190001"
   height="2.1930001"
   id="rect4399" />
					</g>
				</g>
				<g
   id="g4421">
					<g
   id="g4409">
						<rect
   x="606.09698"
   y="36.222"
   style="fill:#ada59c"
   width="6.4809999"
   height="2.9170001"
   id="rect4405" />
						<rect
   x="612.78998"
   y="36.222"
   style="fill:#c2bdb7"
   width="6.559"
   height="2.9170001"
   id="rect4407" />
					</g>
					<g
   id="g4415">
						<rect
   x="606.09698"
   y="33.306"
   style="fill:#c2bdb7"
   width="2.8629999"
   height="2.9170001"
   id="rect4411" />
						<rect
   x="609.172"
   y="33.306"
   style="fill:#c2bdb7"
   width="6.559"
   height="2.9170001"
   id="rect4413" />
					</g>
					<g
   id="g4419">
						<rect
   x="615.89099"
   y="33.306"
   style="fill:#c2bdb7"
   width="3.467"
   height="2.9170001"
   id="rect4417" />
					</g>
				</g>
			</g>
			<polygon
   style="fill:#5f5f60"
   points="606.117,24.039 619.297,24.039 612.707,20.721 "
   id="polygon4425" />
		</g>
		<g
   id="g4499">
			<g
   id="g4431">
				<path
   style="fill:#383e56"
   d="m 573.831,111.328 c -0.158,0 -0.286,-0.128 -0.286,-0.286 V 76.898 c 0,-0.158 0.128,-0.286 0.286,-0.286 0.158,0 0.286,0.128 0.286,0.286 v 34.145 c 0,0.158 -0.128,0.285 -0.286,0.285 z"
   id="path4429" />
			</g>
			<g
   id="g4435">
				<path
   style="fill:#383e56"
   d="m 573.831,87.794 c -0.059,0 -0.117,-0.018 -0.167,-0.054 l -9.891,-7.122 c -0.128,-0.092 -0.157,-0.271 -0.065,-0.399 0.092,-0.128 0.271,-0.157 0.399,-0.065 l 9.742,7.015 10.229,-5.868 c 0.137,-0.078 0.311,-0.031 0.39,0.106 0.079,0.137 0.031,0.312 -0.106,0.39 l -10.389,5.96 c -0.044,0.025 -0.093,0.037 -0.142,0.037 z"
   id="path4433" />
			</g>
			<g
   id="g4439">
				<path
   style="fill:#383e56"
   d="m 563.94,86.486 c -0.129,0 -0.247,-0.089 -0.278,-0.22 -0.036,-0.154 0.059,-0.307 0.213,-0.344 l 5.757,-1.361 -1.615,-4.07 c -0.058,-0.147 0.013,-0.313 0.16,-0.371 0.146,-0.058 0.313,0.013 0.371,0.16 l 1.737,4.377 c 0.031,0.077 0.026,0.164 -0.012,0.237 -0.038,0.074 -0.107,0.127 -0.188,0.146 l -6.079,1.437 c -0.022,0.007 -0.045,0.009 -0.066,0.009 z"
   id="path4437" />
			</g>
			<g
   id="g4443">
				<path
   style="fill:#383e56"
   d="m 573.831,100.678 c -0.048,0 -0.095,-0.012 -0.138,-0.035 L 555.407,90.557 c -0.138,-0.076 -0.188,-0.25 -0.112,-0.388 0.076,-0.138 0.251,-0.188 0.388,-0.112 l 18.153,10.012 16.043,-8.272 c 0.14,-0.073 0.313,-0.017 0.385,0.123 0.072,0.14 0.017,0.313 -0.123,0.385 l -16.179,8.341 c -0.041,0.021 -0.086,0.032 -0.131,0.032 z"
   id="path4441" />
			</g>
			<g
   id="g4447">
				<path
   style="fill:#383e56"
   d="m 586.826,84.99 h -8.106 c -0.158,0 -0.286,-0.128 -0.286,-0.286 v -6.353 c 0,-0.158 0.128,-0.286 0.286,-0.286 0.158,0 0.286,0.128 0.286,0.286 v 6.067 h 7.82 c 0.158,0 0.286,0.128 0.286,0.286 -10e-4,0.158 -0.129,0.286 -0.286,0.286 z"
   id="path4445" />
			</g>
			<g
   id="g4451">
				<path
   style="fill:#383e56"
   d="m 556.992,95.721 c -0.131,0 -0.249,-0.091 -0.279,-0.224 -0.034,-0.154 0.063,-0.307 0.217,-0.341 l 5.288,-1.174 -3.086,-9.187 c -0.05,-0.15 0.03,-0.312 0.18,-0.362 0.15,-0.05 0.312,0.03 0.362,0.18 l 3.188,9.488 c 0.026,0.077 0.018,0.161 -0.022,0.231 -0.04,0.07 -0.108,0.121 -0.187,0.138 l -5.598,1.243 c -0.022,0.006 -0.042,0.008 -0.063,0.008 z"
   id="path4449" />
			</g>
			<g
   id="g4455">
				<path
   style="fill:#383e56"
   d="m 559.403,103.609 c -0.11,0 -0.215,-0.064 -0.262,-0.171 -0.063,-0.145 0.003,-0.313 0.147,-0.376 l 10.766,-4.712 -2.041,-5.89 c -0.052,-0.149 0.027,-0.312 0.176,-0.364 0.148,-0.051 0.312,0.027 0.364,0.176 l 2.128,6.139 c 0.049,0.141 -0.019,0.296 -0.155,0.355 l -11.008,4.818 c -0.038,0.018 -0.077,0.025 -0.115,0.025 z"
   id="path4453" />
			</g>
			<g
   id="g4459">
				<path
   style="fill:#383e56"
   d="m 584.22,98.791 c -0.011,0 -0.023,-10e-4 -0.034,-0.002 l -5.5,-0.661 c -0.144,-0.017 -0.252,-0.139 -0.252,-0.284 v -7.538 c 0,-0.158 0.128,-0.286 0.286,-0.286 0.158,0 0.286,0.128 0.286,0.286 v 7.285 l 5.248,0.63 c 0.157,0.019 0.268,0.161 0.25,0.318 -0.018,0.145 -0.141,0.252 -0.284,0.252 z"
   id="path4457" />
			</g>
			<g
   id="g4463">
				<path
   style="fill:#383e56"
   d="m 594.931,95.626 c -0.004,0 -0.007,0 -0.011,0 l -10.38,-0.571 c -0.053,-0.003 -0.103,-0.028 -0.137,-0.069 -0.034,-0.041 -0.049,-0.095 -0.041,-0.148 l 0.542,-3.763 c 0.015,-0.104 0.111,-0.176 0.216,-0.161 0.104,0.015 0.176,0.112 0.161,0.216 l -0.512,3.557 10.172,0.559 c 0.105,0.006 0.186,0.096 0.18,0.201 -0.005,0.101 -0.089,0.179 -0.19,0.179 z"
   id="path4461" />
			</g>
			<path
   style="fill:#858e0a"
   d="m 563.164,102.059 c 0,1.255 -1.013,2.273 -2.264,2.273 -1.25,0 -2.264,-1.018 -2.264,-2.273 0,-1.255 1.013,-2.273 2.264,-2.273 1.251,-0.001 2.264,1.017 2.264,2.273 z"
   id="path4465" />
			<path
   style="fill:#d2e200"
   d="m 586.484,98.505 c 0,1.255 -1.014,2.273 -2.264,2.273 -1.25,0 -2.264,-1.018 -2.264,-2.273 0,-1.255 1.013,-2.273 2.264,-2.273 1.25,0 2.264,1.018 2.264,2.273 z"
   id="path4467" />
			<path
   style="fill:#d2e200"
   d="m 597.195,95.436 c 0,1.256 -1.014,2.273 -2.264,2.273 -1.25,0 -2.264,-1.018 -2.264,-2.273 0,-1.255 1.014,-2.273 2.264,-2.273 1.25,-10e-4 2.264,1.017 2.264,2.273 z"
   id="path4469" />
			<path
   style="fill:#a3b700"
   d="m 589.681,84.704 c 0,1.256 -1.013,2.273 -2.264,2.273 -1.25,0 -2.264,-1.018 -2.264,-2.273 0,-1.255 1.013,-2.273 2.264,-2.273 1.251,0 2.264,1.018 2.264,2.273 z"
   id="path4471" />
			<path
   style="fill:#858e0a"
   d="m 586.484,90.307 c 0,0.737 -0.596,1.335 -1.33,1.335 -0.734,0 -1.33,-0.598 -1.33,-1.335 0,-0.738 0.595,-1.336 1.33,-1.336 0.735,0 1.33,0.598 1.33,1.336 z"
   id="path4473" />
			<ellipse
   style="fill:#a3b700"
   cx="578.71997"
   cy="78.350998"
   rx="1.33"
   ry="1.336"
   id="ellipse4475" />
			<path
   style="fill:#a3b700"
   d="m 569.845,79.687 c 0,0.738 -0.596,1.336 -1.33,1.336 -0.734,0 -1.33,-0.598 -1.33,-1.336 0,-0.738 0.596,-1.335 1.33,-1.335 0.735,-0.001 1.33,0.597 1.33,1.335 z"
   id="path4477" />
			<path
   style="fill:#858e0a"
   d="m 558.322,95.436 c 0,0.738 -0.595,1.336 -1.33,1.336 -0.735,0 -1.33,-0.598 -1.33,-1.336 0,-0.738 0.595,-1.336 1.33,-1.336 0.735,0 1.33,0.598 1.33,1.336 z"
   id="path4479" />
			<path
   style="fill:#d2e200"
   d="m 591.333,91.651 c 0,0.738 -0.596,1.336 -1.33,1.336 -0.734,0 -1.33,-0.598 -1.33,-1.336 0,-0.738 0.596,-1.336 1.33,-1.336 0.734,0 1.33,0.598 1.33,1.336 z"
   id="path4481" />
			<path
   style="fill:#a3b700"
   d="m 581.784,88.971 c 0,1.64 -1.323,2.969 -2.956,2.969 -1.633,0 -2.956,-1.329 -2.956,-2.969 0,-1.639 1.323,-2.968 2.956,-2.968 1.632,0 2.956,1.329 2.956,2.968 z"
   id="path4483" />
			<path
   style="fill:#a3b700"
   d="m 565.546,78.924 c 0,1.64 -1.323,2.969 -2.956,2.969 -1.633,0 -2.956,-1.329 -2.956,-2.969 0,-1.639 1.324,-2.969 2.956,-2.969 1.633,0 2.956,1.329 2.956,2.969 z"
   id="path4485" />
			<path
   style="fill:#a3b700"
   d="m 576.574,75.955 c 0,1.64 -1.323,2.969 -2.956,2.969 -1.633,0 -2.956,-1.329 -2.956,-2.969 0,-1.64 1.323,-2.969 2.956,-2.969 1.632,10e-4 2.956,1.33 2.956,2.969 z"
   id="path4487" />
			<ellipse
   style="fill:#a3b700"
   cx="564.40997"
   cy="86.064003"
   rx="2.9560001"
   ry="2.9690001"
   id="ellipse4489" />
			<path
   style="fill:#a3b700"
   d="m 585.721,81.528 c 0,0.832 -0.672,1.507 -1.5,1.507 -0.829,0 -1.5,-0.675 -1.5,-1.507 0,-0.832 0.672,-1.507 1.5,-1.507 0.828,0 1.5,0.675 1.5,1.507 z"
   id="path4491" />
			<path
   style="fill:#858e0a"
   d="m 560.903,84.704 c 0,0.832 -0.672,1.507 -1.5,1.507 -0.829,0 -1.501,-0.675 -1.501,-1.507 0,-0.832 0.672,-1.507 1.501,-1.507 0.828,10e-4 1.5,0.675 1.5,1.507 z"
   id="path4493" />
			<path
   style="fill:#a3b700"
   d="m 572.279,92.051 c 0,1.9 -1.534,3.441 -3.427,3.441 -1.893,0 -3.427,-1.541 -3.427,-3.441 0,-1.9 1.534,-3.441 3.427,-3.441 1.893,0 3.427,1.54 3.427,3.441 z"
   id="path4495" />
			<path
   style="fill:#858e0a"
   d="m 558.456,89.434 c 0,1.9 -1.534,3.441 -3.427,3.441 -1.892,0 -3.426,-1.541 -3.426,-3.441 0,-1.9 1.534,-3.441 3.426,-3.441 1.893,0 3.427,1.541 3.427,3.441 z"
   id="path4497" />
		</g>
		<g
   id="g4507">
			<rect
   x="615.28003"
   y="107.448"
   style="fill:#ffffff"
   width="29.843"
   height="15.605"
   id="rect4501" />
			<rect
   x="617.60699"
   y="109.467"
   style="fill:#85c8ff"
   width="11.629"
   height="13.585"
   id="rect4503" />
			<rect
   x="631.37299"
   y="109.467"
   style="fill:#85c8ff"
   width="11.629"
   height="13.585"
   id="rect4505" />
		</g>
		<g
   id="g4515">
			<path
   style="fill:#ffffff"
   d="m 692.111,107.447 v 8.323 c -0.697,0.198 -1.405,0.393 -2.12,0.585 -3.667,0.983 -7.561,1.88 -11.629,2.677 -0.707,0.138 -1.42,0.274 -2.137,0.406 -3.754,0.693 -7.644,1.302 -11.629,1.815 -0.772,0.099 -1.548,0.196 -2.328,0.287 v -14.093 z"
   id="path4509" />
			<path
   style="fill:#85c8ff"
   d="m 676.224,109.467 v 9.971 c -3.754,0.693 -7.644,1.302 -11.629,1.815 v -11.785 h 11.629 z"
   id="path4511" />
			<path
   style="fill:#85c8ff"
   d="m 689.991,109.467 v 6.888 c -3.667,0.983 -7.561,1.88 -11.629,2.677 v -9.565 z"
   id="path4513" />
		</g>
	</g>
</svg>
